<svg xmlns="http://www.w3.org/2000/svg" width="18" height="15" viewBox="0 0 18 15"><g><g><path fill="#fff" d="M5.823 14.916c6.561 0 10.15-5.557 10.15-10.376 0-.158 0-.315-.01-.471a7.353 7.353 0 0 0 1.78-1.888 7.015 7.015 0 0 1-2.05.574A3.65 3.65 0 0 0 17.262.737a7.06 7.06 0 0 1-2.266.886 3.516 3.516 0 0 0-5.047-.158 3.702 3.702 0 0 0-1.032 3.484c-2.868-.147-5.54-1.532-7.352-3.81-.947 1.666-.463 3.798 1.104 4.868A3.488 3.488 0 0 1 1.05 5.55v.047c0 1.735 1.198 3.23 2.862 3.575a3.49 3.49 0 0 1-1.61.062c.467 1.486 1.806 2.503 3.332 2.533a7.06 7.06 0 0 1-5.28 1.511 9.94 9.94 0 0 0 5.469 1.635"/></g></g></svg>