<svg xmlns="http://www.w3.org/2000/svg" width="19" height="17" viewBox="0 0 19 17"><g><g><path fill="#fff" d="M.168 16.316V5.754c0-.334.27-.604.604-.604H3.19c.333 0 .603.27.603.604v10.562c0 .333-.27.603-.603.603H.772a.603.603 0 0 1-.604-.603zm0-13.627V.543c0-.333.27-.603.604-.603H3.19c.333 0 .603.27.603.603V2.69c0 .334-.27.604-.603.604H.772a.604.604 0 0 1-.604-.604zm18.394 5.208c.134.567.2 1.38.2 2.437v5.982c0 .333-.27.603-.604.603h-2.417a.603.603 0 0 1-.603-.603v-4.46c0-1.479-.078-2.435-.233-2.87a2.012 2.012 0 0 0-.754-1.012c-.349-.24-.768-.361-1.258-.361a2.91 2.91 0 0 0-1.69.516 2.6 2.6 0 0 0-1.026 1.367c-.185.567-.277 1.616-.277 3.147v3.673c0 .333-.27.603-.604.603H6.88a.603.603 0 0 1-.604-.603V5.754c0-.334.27-.604.604-.604h2.16c.333 0 .603.27.603.604v.804c0 .333.163.387.388.14 1.128-1.238 2.503-1.858 4.127-1.858.8 0 1.53.144 2.193.432.662.288 1.163.656 1.503 1.103.34.447.576.954.71 1.522z"/></g></g></svg>