<?xml version="1.0" standalone="no"?>
<!DOCTYPE svg PUBLIC "-//W3C//DTD SVG 1.1//EN" "http://www.w3.org/Graphics/SVG/1.1/DTD/svg11.dtd" >
<svg>
<metadata>
Created by FontForge 20090914 at Wed Jan 27 12:04:18 2021
 By www-data
Copyright (c) 2012 by Fontfabric LLC. All rights reserved.
</metadata>
<defs>
<font id="NexaHeavy" horiz-adv-x="616" >
  <font-face 
    font-family="Nexa Heavy"
    font-weight="900"
    font-stretch="normal"
    units-per-em="1000"
    panose-1="2 0 0 0 0 0 0 0 0 0"
    ascent="750"
    descent="-250"
    x-height="493"
    cap-height="700"
    bbox="-171 -298.002 1160 983.999"
    underline-thickness="50"
    underline-position="-150"
    unicode-range="U+0020-U+FB02"
  />
<missing-glyph horiz-adv-x="665" 
d="M242 142c0 -27.333 10.332 -46.5 30.999 -57.5s41.334 -11 62.001 0s31 30.167 31 57.5c0 21.333 -6.5 37.833 -19.5 49.5s-27.167 17.5 -42.5 17.5s-29.5 -5.83301 -42.5 -17.5s-19.5 -28.167 -19.5 -49.5zM141.999 443l108 -0.00292969c-0.666992 16 6 30 20 42
s30.667 18 50 18c48.667 0 73.334 -19 74.001 -57c0 -11.333 -3.16699 -20 -9.5 -26s-17.5 -12 -33.5 -18s-27.333 -11 -34 -15c-1.33301 -1.33301 -5.83301 -5.16602 -13.5 -11.499s-13.5 -12 -17.5 -17s-8.83301 -12.333 -14.5 -22s-9.66699 -21.667 -12 -36
s-3.5 -30.833 -3.5 -49.5l107 -1c0 12 2.33301 28.333 7 49c6.66699 6 18.667 13.167 36 21.5s32.666 16.333 45.999 24s25.5 20.334 36.5 38.001s16.167 38.834 15.5 63.501c0 50 -17.667 88.167 -53 114.5s-79 39.5 -131 39.5s-94.833 -13.667 -128.5 -41
s-50.167 -66 -49.5 -116zM51.999 -0.00292969v700h538v-700h-538z" />
    <glyph glyph-name=".notdef" horiz-adv-x="665" 
d="M242 142c0 -27.333 10.332 -46.5 30.999 -57.5s41.334 -11 62.001 0s31 30.167 31 57.5c0 21.333 -6.5 37.833 -19.5 49.5s-27.167 17.5 -42.5 17.5s-29.5 -5.83301 -42.5 -17.5s-19.5 -28.167 -19.5 -49.5zM141.999 443l108 -0.00292969c-0.666992 16 6 30 20 42
s30.667 18 50 18c48.667 0 73.334 -19 74.001 -57c0 -11.333 -3.16699 -20 -9.5 -26s-17.5 -12 -33.5 -18s-27.333 -11 -34 -15c-1.33301 -1.33301 -5.83301 -5.16602 -13.5 -11.499s-13.5 -12 -17.5 -17s-8.83301 -12.333 -14.5 -22s-9.66699 -21.667 -12 -36
s-3.5 -30.833 -3.5 -49.5l107 -1c0 12 2.33301 28.333 7 49c6.66699 6 18.667 13.167 36 21.5s32.666 16.333 45.999 24s25.5 20.334 36.5 38.001s16.167 38.834 15.5 63.501c0 50 -17.667 88.167 -53 114.5s-79 39.5 -131 39.5s-94.833 -13.667 -128.5 -41
s-50.167 -66 -49.5 -116zM51.999 -0.00292969v700h538v-700h-538z" />
    <glyph glyph-name="space" unicode=" " horiz-adv-x="237" 
 />
    <glyph glyph-name="exclam" unicode="!" horiz-adv-x="299" 
d="M72 701l155 -0.000976562l-4 -488h-148c0 54.667 -0.5 135.834 -1.5 243.501s-1.5 189.167 -1.5 244.5zM62 82.999c0 27.333 9.16699 49 27.5 65s38.5 24 60.5 24s42.167 -8 60.5 -24s27.5 -37.667 27.5 -65s-9.16699 -48.833 -27.5 -64.5s-38.5 -23.5 -60.5 -23.5
s-42.167 7.83301 -60.5 23.5s-27.5 37.167 -27.5 64.5z" />
    <glyph glyph-name="quotedbl" unicode="&#x22;" horiz-adv-x="459" 
d="M64 699h131v-271h-131v271zM262 699h133v-271h-133v271z" />
    <glyph glyph-name="numbersign" unicode="#" horiz-adv-x="700" 
d="M252 700h134l-37 -150h109l38 150h133l-37 -150h72v-116h-101l-47 -182h79v-117h-106l-33 -135h-134l33 135h-110l-33 -135h-133l33 135h-76v117h106l46 183h-83v115h110zM440 443h-126l-50 -198h126z" />
    <glyph glyph-name="dollar" unicode="$" horiz-adv-x="715" 
d="M647 581l-122.996 -57.0039c-10 21.333 -30.333 39.833 -61 55.5s-64.667 23.5 -102 23.5c-38.667 0 -71.667 -7.33301 -99 -22s-41.333 -36 -42 -64c0 -14 4 -26.167 12 -36.5s19.667 -18.166 35 -23.499s30.666 -9.33301 45.999 -12s33.666 -5 54.999 -7
c33.333 -3.33301 63.333 -7.83301 90 -13.5s54.334 -14.167 83.001 -25.5s52.5 -25.166 71.5 -41.499s34.667 -37.833 47 -64.5s18.5 -57 18.5 -91c0 -65.333 -20.5 -117.166 -61.5 -155.499s-100.833 -61.5 -179.5 -69.5v-95h-137v94c-60 6 -114.5 25.167 -163.5 57.5
s-83.833 73.5 -104.5 123.5l130 63c14.667 -31.333 41.167 -57.333 79.5 -78s78.166 -31 119.499 -31c52 0 91.667 6.16699 119 18.5s41 36.5 41 72.5c0 55.333 -55 87.333 -165 96c-34.667 3.33301 -64 7 -88 11s-49.667 11.167 -77 21.5s-49.5 22.833 -66.5 37.5
s-31 34.667 -42 60s-16.5 55 -16.5 89c0.666992 62 23.667 110.5 69 145.5s101.666 55.167 168.999 60.5v83h132v-83c101.333 -11.333 171.666 -58.666 210.999 -141.999z" />
    <glyph glyph-name="percent" unicode="%" horiz-adv-x="815" 
d="M200 704c52.667 0 93.5 -15.833 122.5 -47.5s43.5 -69.167 43.5 -112.5c0 -44 -14.5 -81.833 -43.5 -113.5s-69.833 -47.5 -122.5 -47.5s-93.5 15.833 -122.5 47.5s-43.5 69.5 -43.5 113.5c0 43.333 14.5 80.833 43.5 112.5s69.833 47.5 122.5 47.5zM558 699h157
l-458 -700h-159zM615 314c52.667 0 93.5 -15.833 122.5 -47.5s43.5 -69.167 43.5 -112.5c0 -44 -14.5 -81.833 -43.5 -113.5s-69.833 -47.5 -122.5 -47.5s-93.5 15.833 -122.5 47.5s-43.5 69.5 -43.5 113.5c0 43.333 14.5 80.833 43.5 112.5s69.833 47.5 122.5 47.5z
M615 210c-17.333 0 -31 -5.66797 -41 -17.001s-15 -24.666 -15 -39.999s5 -28.5 15 -39.5s23.667 -16.5 41 -16.5s30.833 5.5 40.5 16.5s14.5 24.167 14.5 39.5c0 16 -4.83301 29.5 -14.5 40.5s-23.167 16.5 -40.5 16.5zM200 601.999c-18 0 -32 -5.66797 -42 -17.001
s-15 -25 -15 -41c0 -15.333 5 -28.666 15 -39.999s24 -17 42 -17s31.833 5.5 41.5 16.5s14.5 24.5 14.5 40.5s-4.83301 29.667 -14.5 41s-23.5 17 -41.5 17z" />
    <glyph glyph-name="ampersand" unicode="&#x26;" horiz-adv-x="717" 
d="M325 300c-39.333 0 -69.834 -7.99805 -91.501 -23.998s-32.5 -34.667 -32.5 -56c0 -18.667 4.33301 -34.5 13 -47.5s20 -22.5 34 -28.5s28 -10.333 42 -13s28.333 -4 43 -4c15.333 0 32.333 2.66699 51 8s36.834 16.166 54.501 32.499s26.5 36.166 26.5 59.499v73h-140z
M602.999 300.002l-0.00292969 -89.9922c0 -18 6.33301 -33.833 19 -47.5s29.667 -18.167 51 -13.5v-154c-39.333 -5.33301 -73.666 -1 -102.999 13s-49 40 -59 78c-19.333 -33.333 -46.666 -58 -81.999 -74s-74 -23.667 -116 -23c-34.667 0 -66.667 3.33301 -96 10
s-57.166 17.667 -83.499 33s-47.166 37.166 -62.499 65.499s-23.333 62.166 -24 101.499c-0.666992 35.333 9.16602 67 29.499 95s48.5 50 84.5 66c-28.667 9.33301 -51.5 28.166 -68.5 56.499s-25.5 55.5 -25.5 81.5c0 39.333 8.5 73.666 25.5 102.999
s39.667 51.666 68 66.999s57.333 26.666 87 33.999s60.167 11 91.5 11c73.333 0 134.5 -16.333 183.5 -49s76.167 -84.667 81.5 -156h-143c-4 25.333 -18.5 44.833 -43.5 58.5s-52.5 20.167 -82.5 19.5c-31.333 -0.666992 -58 -8.83398 -80 -24.501s-33 -36.834 -33 -63.501
c0 -52.667 37 -79 111 -79h326v-119h-56z" />
    <glyph glyph-name="quotesingle" unicode="'" horiz-adv-x="258" 
d="M64 697h130v-271h-130v271z" />
    <glyph glyph-name="parenleft" unicode="(" horiz-adv-x="361" 
d="M274 773l72 -99c-52.667 -44 -93 -99 -121 -165s-41.667 -134.333 -41 -205c0 -78 13.167 -149.5 39.5 -214.5s65.5 -118.833 117.5 -161.5l-72 -97c-156 103.333 -234 261 -234 473c0 100 21.333 190.167 64 270.5s101 146.5 175 198.5z" />
    <glyph glyph-name="parenright" unicode=")" horiz-adv-x="361" 
d="M15 674l72 99c74 -52 132.333 -118.167 175 -198.5s64 -170.5 64 -270.5c0 -212 -78 -369.667 -234 -473l-72 97c52 42.667 91.167 96.5 117.5 161.5s39.5 136.5 39.5 214.5c0.666992 70.667 -13 139 -41 205s-68.333 121 -121 165z" />
    <glyph glyph-name="asterisk" unicode="*" horiz-adv-x="410" 
d="M342 464l-78 -58l-57 85l-56 -87l-81 60l62 73l-90 21l28 90l89 -33l-5 93h103l-11 -93l94 35l27 -92l-91 -19z" />
    <glyph glyph-name="plus" unicode="+" horiz-adv-x="497" 
d="M43 391h138v144h132v-144h141v-126h-141v-144h-132v144h-138v126z" />
    <glyph glyph-name="comma" unicode="," horiz-adv-x="263" 
d="M211 64c0 -15.333 -1.99805 -31.1689 -5.99805 -47.502s-10.833 -37.666 -20.5 -63.999s-15.834 -44.166 -18.501 -53.499h-77l15 104c-16.667 2.66699 -29.834 9 -39.501 19s-14.5 23.333 -14.5 40c0 32 13.333 54.5 40 67.5s53.5 13 80.5 0s40.5 -34.833 40.5 -65.5z
" />
    <glyph glyph-name="hyphen" unicode="-" horiz-adv-x="493" 
d="M59 230v125h375v-125h-375z" />
    <glyph glyph-name="period" unicode="." horiz-adv-x="264" 
d="M50 73c0 25.333 8.5 45.333 25.5 60s35.833 22 56.5 22s39.5 -7.33301 56.5 -22s25.5 -34.667 25.5 -60s-8.5 -45.333 -25.5 -60s-35.833 -22 -56.5 -22s-39.5 7.33301 -56.5 22s-25.5 34.667 -25.5 60z" />
    <glyph glyph-name="slash" unicode="/" horiz-adv-x="509" 
d="M344 768h141l-322 -850h-140z" />
    <glyph glyph-name="zero" unicode="0" horiz-adv-x="723" 
d="M205 401l-0.00195312 -101c0 -59.333 14.333 -104.5 43 -135.5s66.334 -46.5 113.001 -46.5c47.333 0 85.333 15.5 114 46.5s43 76.167 43 135.5v101c0 58 -14.167 102.333 -42.5 133s-65.5 46 -111.5 46c-47.333 0 -85.666 -15.167 -114.999 -45.5
s-44 -74.833 -44 -133.5zM49.998 300l0.00195312 102c0 104 29.667 183.333 89 238s134.333 82 225 82c89.333 0 163 -27.667 221 -83s87 -134.333 87 -237v-101c0 -102 -29.333 -181 -88 -237s-131.334 -84 -218.001 -84c-56.667 0 -108.334 11 -155.001 33
s-85.167 57.833 -115.5 107.5s-45.5 109.5 -45.5 179.5z" />
    <glyph glyph-name="one" unicode="1" horiz-adv-x="453" 
d="M52 0v128h118v378l-112 -35v136l259 93v-572h110v-128h-375z" />
    <glyph glyph-name="two" unicode="2" horiz-adv-x="675" 
d="M209 492l-149.997 -0.00195312c2 39.333 11.333 73.5 28 102.5s38.5 51.5 65.5 67.5s56.167 27.833 87.5 35.5s65 11.5 101 11.5c80 0 146.833 -18.833 200.5 -56.5s80.5 -92.167 80.5 -163.5c0 -81.333 -24.667 -138.833 -74 -172.5s-118 -50.5 -206 -50.5
c-18.667 0 -34.834 -1 -48.501 -3s-28.5 -5.83301 -44.5 -11.5s-28.5 -15.334 -37.5 -29.001s-13.5 -30.834 -13.5 -51.501v-27h419v-144h-566v172c0 36 5.83301 67.833 17.5 95.5s26.667 49.834 45 66.501s40.666 30.334 66.999 41.001s52.333 17.834 78 21.501
s53.5 5.5 83.5 5.5c33.333 0 62.833 6.33301 88.5 19s38.5 34.334 38.5 65.001c0 28.667 -11.333 50.834 -34 66.501s-54 23.5 -94 23.5c-34.667 0 -64.834 -7.33301 -90.501 -22s-39.5 -35.334 -41.5 -62.001z" />
    <glyph glyph-name="three" unicode="3" horiz-adv-x="681" 
d="M342 295h-106.998v127h97c16 0 30 0.666992 42 2s25.333 4 40 8s26 11 34 21s12 22.667 12 38c0 20 -9.16699 38.167 -27.5 54.5s-50.5 24.5 -96.5 24.5c-76.667 0 -119.334 -22.667 -128.001 -68h-155c3.33301 38 13.666 71 30.999 99s39.5 49.833 66.5 65.5
s56 27.167 87 34.5s64.167 11 99.5 11c42 0 81.667 -5.5 119 -16.5s71.166 -30.5 101.499 -58.5s48.833 -63 55.5 -105c6.66699 -38.667 1.83398 -73.667 -14.499 -105s-41.166 -54.333 -74.499 -69c40.667 -16.667 70.167 -42.167 88.5 -76.5s24.5 -72.5 18.5 -114.5
c-20 -120.667 -120 -181 -300 -181c-76 0 -141.833 18.833 -197.5 56.5s-86.167 94.5 -91.5 170.5h157c7.33301 -58.667 51.666 -88 132.999 -88c13.333 0 26.666 1 39.999 3s27.833 5.83301 43.5 11.5s28.334 14.5 38.001 26.5s14.5 26.667 14.5 44
c0 56.667 -42 85 -126 85z" />
    <glyph glyph-name="four" unicode="4" horiz-adv-x="684" 
d="M408 699h155v-438h80v-135h-80v-127h-153v127h-373l-13 160zM184 261h226v249z" />
    <glyph glyph-name="five" unicode="5" horiz-adv-x="658" 
d="M578 699l0.000976562 -140.001h-368v-108h123c40 0 76.167 -3.5 108.5 -10.5s62.166 -18.667 89.499 -35s48.5 -40 63.5 -71s22.5 -68.167 22.5 -111.5c0 -41.333 -8.5 -77.5 -25.5 -108.5s-39.333 -55.167 -67 -72.5s-57.334 -30.166 -89.001 -38.499
s-64.5 -12.5 -98.5 -12.5c-87.333 0 -156.666 17.833 -207.999 53.5s-77.333 92.834 -78 171.501h154c0 -28.667 13.167 -50.334 39.5 -65.001s56.5 -22 90.5 -22c16.667 0 33.667 2 51 6s34.5 13.5 51.5 28.5s25.5 34.833 25.5 59.5c0 18.667 -4.33301 34.5 -13 47.5
s-20.167 22.667 -34.5 29s-28.333 10.833 -42 13.5s-27.167 4 -40.5 4h-268v382h513z" />
    <glyph glyph-name="six" unicode="6" horiz-adv-x="695" 
d="M211 474l0.00195312 -78c21.333 23.333 44.666 39.833 69.999 49.5s56.666 14.5 93.999 14.5c79.333 0 145.166 -20.333 197.499 -61s78.5 -98.667 78.5 -174c0 -40.667 -8.33301 -76.667 -25 -108s-39 -56.166 -67 -74.499s-59.167 -32 -93.5 -41
s-70.833 -13.5 -109.5 -13.5c-81.333 0 -151.166 20 -209.499 60s-87.5 99.667 -87.5 179v247c0 52 14.333 96.667 43 134s64.5 64.333 107.5 81s90.167 25 141.5 25c84 0 152 -16.833 204 -50.5s79.667 -87.834 83 -162.501h-146c-5.33301 27.333 -21.333 47.5 -48 60.5
s-58 19.5 -94 19.5c-38 0 -70.5 -9.83301 -97.5 -29.5s-40.833 -45.5 -41.5 -77.5zM356.002 126c40 0 73.333 9.00098 100 27.001s40 42 40 72c0 32 -12.5 57.167 -37.5 75.5s-58.833 27.5 -101.5 27.5c-43.333 0 -78.333 -9.16699 -105 -27.5s-39.667 -43.5 -39 -75.5
c0.666992 -30.667 14.167 -54.834 40.5 -72.501s60.5 -26.5 102.5 -26.5z" />
    <glyph glyph-name="seven" unicode="7" horiz-adv-x="560" 
d="M259 0h-175l261 558h-314v142h515l5 -77z" />
    <glyph glyph-name="eight" unicode="8" horiz-adv-x="709" 
d="M354 300c-42 0 -76.3311 -7.83301 -102.998 -23.5s-40.334 -36.834 -41.001 -63.501c-0.666992 -23.333 10.166 -44.5 32.499 -63.5s59.5 -28.5 111.5 -28.5s89.167 9.5 111.5 28.5s32.833 40.167 31.5 63.5c-0.666992 26.667 -13.5 47.834 -38.5 63.501
s-59.833 23.5 -104.5 23.5zM46.002 221c0.666992 24.667 10.5039 51.4971 29.5039 80.4971s45.833 49.5 80.5 61.5c-32.667 18 -56.334 42 -71.001 72s-19.667 62.667 -15 98c7.33301 58 37 103 89 135s116.333 48 193 48c82 0 149 -16.167 201 -48.5
s81.667 -79.166 89 -140.499c4 -34 -2 -65 -18 -93s-39.667 -49 -71 -63c38 -14 65.5 -35.667 82.5 -65s25.833 -57.666 26.5 -84.999c1.33301 -54 -12.667 -99.5 -42 -136.5s-67 -63.167 -113 -78.5s-97.667 -22.666 -155 -21.999
c-56.667 0.666992 -107.334 8.5 -152.001 23.5s-81.834 40.833 -111.501 77.5s-43.834 82 -42.501 136zM227.006 503.997c1.33301 -24.667 13.168 -45.333 35.501 -62s52.833 -25 91.5 -25s69 8.33301 91 25s33.667 37.334 35 62.001c1.33301 22 -9 42 -31 60
s-54.333 27 -97 27c-45.333 0 -77.833 -9.83301 -97.5 -29.5s-28.834 -38.834 -27.501 -57.501z" />
    <glyph glyph-name="nine" unicode="9" horiz-adv-x="700" 
d="M488 228l-0.00390625 78.001c-21.333 -23.333 -44.666 -39.833 -69.999 -49.5s-56.666 -14.5 -93.999 -14.5c-79.333 0 -145.166 20.333 -197.499 61s-78.5 98.667 -78.5 174c0 40.667 8.33301 76.667 25 108s39 56.166 67 74.499s59.167 32 93.5 41
s70.833 13.5 109.5 13.5c81.333 0 151.166 -20 209.499 -60s87.5 -99.667 87.5 -179v-247c0 -42 -8.5 -79 -25.5 -111s-40.167 -57.167 -69.5 -75.5s-61.166 -31.833 -95.499 -40.5s-70.833 -13 -109.5 -13c-84.667 0 -153.5 17 -206.5 51s-81.167 88 -84.5 162h146
c5.33301 -26.667 21.833 -46.167 49.5 -58.5s59.834 -18.5 96.501 -18.5c40.667 0 75.167 8.66699 103.5 26s42.833 43.333 43.5 78zM342.996 576.001c-40 0 -73.333 -9.00098 -100 -27.001s-40 -42 -40 -72c0 -32 12.5 -57.167 37.5 -75.5s58.833 -27.5 101.5 -27.5
c43.333 0 78.333 9.16699 105 27.5s39.667 43.5 39 75.5c-0.666992 30.667 -14.167 54.834 -40.5 72.501s-60.5 26.5 -102.5 26.5z" />
    <glyph glyph-name="colon" unicode=":" horiz-adv-x="279" 
d="M59 73c0 33.333 13.5 56.833 40.5 70.5s53.833 13.667 80.5 0s40 -37.167 40 -70.5c0 -24.667 -8.33301 -44 -25 -58s-35.167 -21 -55.5 -21s-38.833 7 -55.5 21s-25 33.333 -25 58zM59 360c0 33.333 13.5 56.833 40.5 70.5s53.833 13.667 80.5 0s40 -37.167 40 -70.5
c0 -24.667 -8.33301 -44 -25 -58s-35.167 -21 -55.5 -21s-38.833 7 -55.5 21s-25 33.333 -25 58z" />
    <glyph glyph-name="semicolon" unicode=";" horiz-adv-x="287" 
d="M65 360c0 33.333 13.5 56.833 40.5 70.5s53.833 13.667 80.5 0s40 -37.167 40 -70.5c0 -24.667 -8.33301 -44 -25 -58s-35.167 -21 -55.5 -21s-38.833 7 -55.5 21s-25 33.333 -25 58zM223 62c0 -6.66699 -0.333008 -13.6699 -1 -21.0029s-2.16699 -15.333 -4.5 -24
l-6 -22.5c-1.66699 -6.33301 -4.16699 -14.666 -7.5 -24.999s-6 -18 -8 -23l-9.5 -25c-4.33301 -11.667 -7.16602 -19.167 -8.49902 -22.5h-77l18 99c-16.667 2.66699 -30.334 9.83398 -41.001 21.501s-16 25.834 -16 42.501c0 24.667 8.33301 44 25 58s35.167 21 55.5 21
s38.833 -6.83301 55.5 -20.5s25 -33.167 25 -58.5z" />
    <glyph glyph-name="less" unicode="&#x3c;" horiz-adv-x="418" 
d="M213 313l147 -145l-93 -99l-235 241v7l235 241l94 -99z" />
    <glyph glyph-name="equal" unicode="=" horiz-adv-x="570" 
d="M64 128v128h442v-128h-442zM64 363v129h442v-129h-442z" />
    <glyph glyph-name="greater" unicode="&#x3e;" horiz-adv-x="420" 
d="M59 160l147 153l-148 154l94 91l236 -241v-7l-236 -241z" />
    <glyph glyph-name="question" unicode="?" horiz-adv-x="598" 
d="M196 82c0 23.333 6.33301 42.833 19 58.5s28 25.334 46 29.001s36 3.66699 54 0s33.333 -13.334 46 -29.001s19 -35.167 19 -58.5c0 -28.667 -9.66699 -51.167 -29 -67.5s-40.333 -24.5 -63 -24.5s-43.667 8.16699 -63 24.5s-29 38.833 -29 67.5zM188 489
l-155.997 0.000976562c0.666992 71.333 25 127 73 167s111.333 60 190 60c71.333 0 130.333 -14 177 -42s75.667 -69 87 -123c6 -32 5.66699 -60.333 -1 -85s-17.334 -43.834 -32.001 -57.501s-31.334 -27.334 -50.001 -41.001s-36.334 -26 -53.001 -37
s-30.667 -25.833 -42 -44.5s-17 -40 -17 -64h-155c0.666992 36.667 6.16699 68.334 16.5 95.001s23 46.834 38 60.501s31 26.167 48 37.5s32.5 20.666 46.5 27.999s25 17.333 33 30s10.667 27.667 8 45c-2.66699 20 -13.667 35.5 -33 46.5s-43 16.5 -71 16.5
c-30 0 -55 -8.5 -75 -25.5s-30.667 -39.167 -32 -66.5z" />
    <glyph glyph-name="at" unicode="@" horiz-adv-x="928" 
d="M465 561c-88.667 0 -164.165 -29.665 -226.498 -88.998s-93.5 -135.666 -93.5 -228.999c0 -102 30.333 -178.333 91 -229s135.667 -76 225 -76c53.333 0 102.333 13 147 39l41 -81c-57.333 -34 -121 -51 -191 -51c-52 0 -102 8.16699 -150 24.5s-92 40.166 -132 71.499
s-72 73 -96 125s-36 111 -36 177c0 63.333 11.833 121.166 35.5 173.499s55.334 95.333 95.001 129s84.5 59.667 134.5 78s102 27.5 156 27.5c81.333 0 153.666 -14.333 216.999 -43s114.333 -73.667 153 -135s58 -135.333 58 -222c0 -79.333 -17.333 -142.666 -52 -189.999
s-81.334 -71 -140.001 -71c-23.333 0 -45 6 -65 18s-32.333 32 -37 60c-14.667 -20.667 -36.167 -37.667 -64.5 -51s-52.833 -20 -73.5 -20c-73.333 0 -134.333 23 -183 69s-73 105 -73 177c0 65.333 20.333 120.833 61 166.5s92 72.5 154 80.5
c32.667 3.33301 65 -0.333984 97 -11.001s57 -28.667 75 -54l7 43l93 -15v-338c0 -10 2.66699 -17 8 -21s10.666 -6 15.999 -6c51.333 3.33301 77 56.666 77 159.999c0 102.667 -28.5 180.5 -85.5 233.5s-137.833 79.5 -242.5 79.5zM458.002 378.002
c-42 0 -73.999 -13.165 -95.999 -39.498s-33 -57.833 -33 -94.5s11.167 -67.834 33.5 -93.501s54.5 -38.5 96.5 -38.5c41.333 0 73.166 13 95.499 39s33.5 58.667 33.5 98c0 37.333 -11.167 68.166 -33.5 92.499s-54.5 36.5 -96.5 36.5z" />
    <glyph glyph-name="A" unicode="A" horiz-adv-x="790" 
d="M625 0l-51 120h-359l-51 -120h-168l314 700h170l314 -700h-169zM515 258l-120 284l-121 -284h241z" />
    <glyph glyph-name="B" unicode="B" horiz-adv-x="727" 
d="M231 298v-162h192c68.667 0 103 26.667 103 80c0 25.333 -9 45.333 -27 60s-44 22 -78 22h-190zM231 565v-137h190c60.667 0 91 22 91 66c0 21.333 -7.66699 38.5 -23 51.5s-37.333 19.5 -66 19.5h-192zM78 700l344.998 0.00195312
c70.667 0 128.834 -16.167 174.501 -48.5s68.5 -79.5 68.5 -141.5c0 -66.667 -31 -114.334 -93 -143.001c42.667 -15.333 73.834 -42.333 93.501 -81s25.5 -79.334 17.5 -122.001c-20 -109.333 -105 -164 -255 -164h-351v700z" />
    <glyph glyph-name="C" unicode="C" horiz-adv-x="696" 
d="M584 193l97.002 -107.998c-69.333 -68.667 -159 -103 -269 -103c-64.667 0 -121.5 9.83301 -170.5 29.5s-88 46.667 -117 81s-50.667 72.666 -65 114.999s-21.5 88.166 -21.5 137.499c0 46.667 7.5 91.5 22.5 134.5s37.333 82.5 67 118.5s69 64.667 118 86
s104.5 32 166.5 32c98 0 183.667 -36 257 -108l-98 -97c-39.333 38.667 -92.333 58 -159 58c-38 0 -71.667 -6.83301 -101 -20.5s-52.5 -31.667 -69.5 -54s-29.5 -46.333 -37.5 -72s-12 -51.834 -12 -78.501c0 -27.333 4 -53.166 12 -77.499s20.167 -47.333 36.5 -69
s39.166 -39 68.499 -52s63.666 -19.5 102.999 -19.5c29.333 0 60.333 6.16699 93 18.5s59 28.5 79 48.5z" />
    <glyph glyph-name="D" unicode="D" horiz-adv-x="753" 
d="M78 700l286.999 0.000976562c77.333 0 142.833 -16.333 196.5 -49s92.334 -74.334 116.001 -125.001s35.5 -107.667 35.5 -171c0 -47.333 -6.83301 -91.666 -20.5 -132.999s-34 -78.833 -61 -112.5s-63.333 -60.334 -109 -80.001s-98.167 -29.5 -157.5 -29.5h-287v700z
M231.999 559.001l-0.000976562 -414.999h133c36 0 67.333 6.16699 94 18.5s46.834 29.166 60.501 50.499s23.667 43.833 30 67.5s9.5 49.167 9.5 76.5c0 57.333 -15.5 105.333 -46.5 144s-80.167 58 -147.5 58h-133z" />
    <glyph glyph-name="E" unicode="E" horiz-adv-x="656" 
d="M611 144v-144h-533v700h519v-143h-366v-135h345v-137h-345v-141h380z" />
    <glyph glyph-name="F" unicode="F" horiz-adv-x="626" 
d="M234 0h-156v699h510v-143h-354v-166h332v-139h-332v-251z" />
    <glyph glyph-name="G" unicode="G" horiz-adv-x="742" 
d="M672 613l-97.002 -97.002c-43.333 41.333 -98 62 -164 62c-68 0 -121.667 -19.5 -161 -58.5s-59 -95.833 -59 -170.5c0 -26.667 3.83301 -52.5 11.5 -77.5s19.667 -49 36 -72s39.333 -41.333 69 -55s64.167 -20.5 103.5 -20.5c56 0 105.667 16.333 149 49v112h-167v130
h302v-305c-60.667 -86.667 -155.667 -130 -285 -130c-64.667 0 -121.667 10.5 -171 31.5s-88.166 49.333 -116.499 85s-49.5 74.834 -63.5 117.501s-21 87.667 -21 135c0 50.667 7.5 97.834 22.5 141.501s37.333 83 67 118s68.834 62.5 117.501 82.5s104 30 166 30
c104 0 191 -36 261 -108z" />
    <glyph glyph-name="H" unicode="H" horiz-adv-x="779" 
d="M701 -1h-154v277h-313v-277h-156v700h156v-280h313v280h154v-700z" />
    <glyph glyph-name="I" unicode="I" horiz-adv-x="311" 
d="M233 0h-155v700h155v-700z" />
    <glyph glyph-name="J" unicode="J" horiz-adv-x="716" 
d="M18 291l151 0.000976562c4.66699 -105.333 57.667 -158 159 -158c51.333 0 91.333 14.667 120 44s43 70.666 43 123.999v257h-194v142h350v-400c0 -94 -27.667 -170 -83 -228s-133.333 -87 -234 -87c-206 0 -310 102 -312 306z" />
    <glyph glyph-name="K" unicode="K" horiz-adv-x="673" 
d="M656 700v-4l-284 -336l309 -351v-9h-188l-259 299v-299h-156v700h156v-289l233 289h189z" />
    <glyph glyph-name="L" unicode="L" horiz-adv-x="600" 
d="M78 700h156v-557h350v-143h-506v700z" />
    <glyph glyph-name="M" unicode="M" horiz-adv-x="921" 
d="M687 -1v487l-216 -272h-28l-209 274v-489h-156v700h179l204 -269l205 269h177v-700h-156z" />
    <glyph glyph-name="N" unicode="N" horiz-adv-x="790" 
d="M212 700l353 -455l-10 220v235h157v-700h-134l-348 448l6 -230v-218h-158v700h134z" />
    <glyph glyph-name="O" unicode="O" horiz-adv-x="832" 
d="M794 350c0 -112.667 -34.667 -202 -104 -268s-160.666 -99 -273.999 -99s-204.666 33 -273.999 99s-104 155.333 -104 268s34.667 202 104 268s160.666 99 273.999 99s204.666 -33 273.999 -99s104 -155.333 104 -268zM641 350c0 65.333 -20.8311 119.5 -62.498 162.5
s-95.834 64.5 -162.501 64.5c-66 0 -120 -21.667 -162 -65s-63 -97.333 -63 -162c0 -66 21 -120.167 63 -162.5s96 -63.5 162 -63.5c67.333 0 121.666 21.167 162.999 63.5s62 96.5 62 162.5z" />
    <glyph glyph-name="P" unicode="P" horiz-adv-x="699" 
d="M234 552v-211h174c36 0 63.667 10 83 30s29 45 29 75s-9.83301 55.167 -29.5 75.5s-47.167 30.5 -82.5 30.5h-174zM408 198l-174 0.000976562v-198h-156v700h330c85.333 0 151.333 -24 198 -72s70 -107.667 70 -179c0 -73.333 -23.167 -133.333 -69.5 -180
s-112.5 -70.334 -198.5 -71.001z" />
    <glyph glyph-name="Q" unicode="Q" horiz-adv-x="832" 
d="M792 351c0 -84.667 -20.333 -157.333 -61 -218l81 -82l-109 -108l-85 87c-58 -30.667 -125.333 -46 -202 -46c-114 0 -205.5 32.667 -274.5 98s-103.5 155 -103.5 269s34.5 203.667 103.5 269s160.5 98 274.5 98c113.333 0 204.333 -32.667 273 -98s103 -155 103 -269z
M639 351.001c0 66 -20.334 120.001 -61.001 162.001s-94.667 63 -162 63c-66 0 -120 -21.167 -162 -63.5s-63 -96.166 -63 -161.499c0 -66.667 20.833 -120.834 62.5 -162.501s95.834 -62.5 162.501 -62.5c67.333 0 122 21.667 164 65s61.667 96.666 59 159.999z" />
    <glyph glyph-name="R" unicode="R" horiz-adv-x="725" 
d="M699 12l0.000976562 -12h-173l-179 230h-113v-230h-156v700h332c80.667 0 144 -23 190 -69s69 -101.667 69 -167c-0.666992 -52 -12.334 -96.167 -35.001 -132.5s-65 -65.5 -127 -87.5zM410.001 566h-176v-204h178c33.333 0 58.833 10 76.5 30s26.5 42.667 26.5 68
c-0.666992 27.333 -10 51.833 -28 73.5s-43.667 32.5 -77 32.5z" />
    <glyph glyph-name="S" unicode="S" horiz-adv-x="654" 
d="M590 617l-98.001 -85.999c-18.667 19.333 -42.834 34 -72.501 44s-59.5 15 -89.5 15c-35.333 0 -65 -7 -89 -21s-36 -32.667 -36 -56c0 -29.333 12.167 -49.5 36.5 -60.5s62.5 -18.833 114.5 -23.5c179.333 -15.333 269 -91 269 -227c0 -49.333 -14.333 -91.5 -43 -126.5
s-64.667 -60 -108 -75s-91.333 -22.833 -144 -23.5c-64 -0.666992 -124 11.333 -180 36s-98 60.667 -126 108l93 97c25.333 -32.667 57.666 -57.334 96.999 -74.001s78.333 -25 117 -25c41.333 0 75 7.66699 101 23s39 35.333 39 60c0.666992 28.667 -10.5 50.5 -33.5 65.5
s-58.833 24.5 -107.5 28.5c-42 4 -77.833 9.66699 -107.5 17s-58.5 18.666 -86.5 33.999s-49.167 36.833 -63.5 64.5s-21.166 61.167 -20.499 100.5c0.666992 66.667 27.834 118.834 81.501 156.501s118.834 56.5 195.501 56.5c57.333 0 106.5 -8 147.5 -24
s78.833 -44 113.5 -84z" />
    <glyph glyph-name="T" unicode="T" horiz-adv-x="615" 
d="M230 0v561h-213v139h581v-139h-213v-561h-155z" />
    <glyph glyph-name="U" unicode="U" horiz-adv-x="774" 
d="M551 699l155 -0.000976562v-391c0 -102 -26.5 -180.833 -79.5 -236.5s-126.5 -85.167 -220.5 -88.5c-97.333 -3.33301 -178 23 -242 79s-96 138 -96 246v391h155v-391c0 -62 16.333 -109 49 -141s77.667 -46.667 135 -44c96 6.66699 144 68.334 144 185.001v391z" />
    <glyph glyph-name="V" unicode="V" horiz-adv-x="738" 
d="M741 700l-291 -703h-161l-292 703h175l197 -517l197 517h175z" />
    <glyph glyph-name="W" unicode="W" horiz-adv-x="1073" 
d="M1068 700l-254 -699h-128l-150 391l-145 -391h-128l-261 699h175l87 -239l63 -226l157 465h102l164 -465l60 225l83 240h175z" />
    <glyph glyph-name="X" unicode="X" horiz-adv-x="689" 
d="M345 451l163 249h171v-7l-236 -341l240 -347v-5h-173l-165 246l-165 -246h-173v5l238 347l-235 341v7h171z" />
    <glyph glyph-name="Y" unicode="Y" horiz-adv-x="704" 
d="M184 700l168 -278l177 278h179v-8l-280 -414v-278h-156v278l-268 414v8h180z" />
    <glyph glyph-name="Z" unicode="Z" horiz-adv-x="628" 
d="M48 566v134h535v-68l-336 -486h344v-146h-560v81l342 485h-325z" />
    <glyph glyph-name="bracketleft" unicode="[" horiz-adv-x="363" 
d="M328 -178h-256v882h256v-123h-114v-635h114v-124z" />
    <glyph glyph-name="backslash" unicode="\" horiz-adv-x="511" 
d="M24 768h143l321 -850h-142z" />
    <glyph glyph-name="bracketright" unicode="]" horiz-adv-x="363" 
d="M291 -178h-256v124h114v635h-114v123h256v-882z" />
    <glyph glyph-name="asciicircum" unicode="^" horiz-adv-x="649" 
d="M37 328l1 6l240 369h83l249 -367l1 -8h-153l-140 210l-134 -210h-147z" />
    <glyph glyph-name="underscore" unicode="_" horiz-adv-x="501" 
d="M14 -121v125h473v-125h-473z" />
    <glyph glyph-name="grave" unicode="`" horiz-adv-x="264" 
d="M-3 692v6h168l74 -140v-7h-126z" />
    <glyph glyph-name="a" unicode="a" horiz-adv-x="639" 
d="M438 437l4.99902 57h135v-494h-130l-8 62c-15.333 -24 -37.5 -42 -66.5 -54s-57.5 -18.333 -85.5 -19c-75.333 -0.666992 -136.666 22.166 -183.999 68.499s-71 109.5 -71 189.5s24.5 143.333 73.5 190s110.833 69.334 185.5 68.001c32 0 61.167 -6 87.5 -18
s45.833 -28.667 58.5 -50zM306.999 378c-37.333 0 -68.333 -11.833 -93 -35.5s-37 -55.5 -37 -95.5s12.333 -71.667 37 -95s55.667 -35 93 -35c38.667 0 70.167 12.667 94.5 38s36.5 54.333 36.5 87c0 38 -11.5 70.167 -34.5 96.5s-55.167 39.5 -96.5 39.5z" />
    <glyph glyph-name="b" unicode="b" horiz-adv-x="640" 
d="M341 374c-35.333 0 -66.333 -11.333 -93 -34s-40 -53.667 -40 -93c0 -43.333 13 -75.333 39 -96s57.333 -31 94 -31c37.333 0 66.833 12 88.5 36s32.5 54.333 32.5 91c0 37.333 -11 67.833 -33 91.5s-51.333 35.5 -88 35.5zM61 699h145.001v-265
c38 46.667 89.667 70 155 70c73.333 0 132.666 -23.167 177.999 -69.5s68 -108.833 68 -187.5c0 -76.667 -22.5 -138.667 -67.5 -186s-103.833 -71 -176.5 -71c-71.333 0 -126 24.333 -164 73l-9 -63h-129v699z" />
    <glyph glyph-name="c" unicode="c" horiz-adv-x="508" 
d="M404 159l90.998 -94c-51.333 -50.667 -115.666 -76 -192.999 -76s-141.666 21.667 -192.999 65s-77 107.333 -77 192c0 80 26 143.167 78 189.5s115.667 69.5 191 69.5c76 0 135.667 -22.667 179 -68l-80 -91c-25.333 19.333 -56.333 29 -93 29
c-37.333 0 -68.333 -11.5 -93 -34.5s-37 -54.5 -37 -94.5c0 -38 12.333 -68.167 37 -90.5s54.667 -33.5 90 -33.5c17.333 0 35.5 3.33301 54.5 10s34.167 15.667 45.5 27z" />
    <glyph glyph-name="d" unicode="d" horiz-adv-x="640" 
d="M299 374c-36.667 0 -66 -11.833 -88 -35.5s-33 -54.167 -33 -91.5c0 -36.667 10.833 -67 32.5 -91s51.167 -36 88.5 -36c36.667 0 68 10.333 94 31s39 52.667 39 96c0 39.333 -13.333 70.333 -40 93s-57.667 34 -93 34zM434 699h145.001v-699h-129l-9 63
c-37.333 -48 -92 -72 -164 -72c-72.667 0 -131.5 23.5 -176.5 70.5s-67.5 108.833 -67.5 185.5c0 78.667 22.667 141.167 68 187.5s104.666 69.5 177.999 69.5c65.333 0 117 -23.333 155 -70v265z" />
    <glyph glyph-name="e" unicode="e" horiz-adv-x="577" 
d="M542 200l-362.999 -0.000976562c4 -25.333 17.667 -46.166 41 -62.499s54.333 -24.5 93 -24.5c55.333 0 98 13 128 39l81 -90c-49.333 -48.667 -120 -73 -212 -73c-88 0 -156.167 23.667 -204.5 71s-72.5 111.333 -72.5 192c0 76 23.667 137.5 71 184.5
s111 70.5 191 70.5c87.333 0 154.166 -26.667 200.499 -80s61.833 -129 46.5 -227zM179.001 304.999h234.001c-1.33301 25.333 -13.333 44.833 -36 58.5s-50 20.5 -82 20.5c-28.667 0 -53.334 -7 -74.001 -21s-34.667 -33.333 -42 -58z" />
    <glyph glyph-name="f" unicode="f" horiz-adv-x="406" 
d="M254 0h-144.001v364h-87v121h87v29c0 66 19.833 115.667 59.5 149s86.5 50 140.5 50c46.667 0 92.334 -14 137.001 -42l-49 -101c-22 13.333 -45.667 20 -71 20c-22.667 0 -40.5 -6.33301 -53.5 -19s-19.5 -31.667 -19.5 -57v-29h137v-121h-137v-364z" />
    <glyph glyph-name="g" unicode="g" horiz-adv-x="606" 
d="M40 -68l133.999 -0.000976562c4.66699 -66.667 46 -100 124 -100c34 0 62.833 7.83301 86.5 23.5s35.5 38.167 35.5 67.5c0 56.667 -40 85 -120 85c-81.333 0 -146.166 22.5 -194.499 67.5s-72.5 105.5 -72.5 181.5c0 80 26 142 78 186s115 66 189 66
c51.333 0 90 -9 116 -27l54 70l104 -80l-63 -75c36 -43.333 53 -90.666 51 -141.999c-2 -80 -37.333 -137.667 -106 -173c73.333 -32.667 110 -85.667 110 -159c0 -69.333 -26.333 -123 -79 -161s-115.667 -57 -189 -57c-84.667 0 -149.167 19.833 -193.5 59.5
s-65.833 95.5 -64.5 167.5zM299.999 380.999c-38 0 -68.833 -11 -92.5 -33s-35.5 -52.333 -35.5 -91c0 -35.333 12.167 -63.833 36.5 -85.5s54.833 -32.5 91.5 -32.5c34.667 0 64 10.333 88 31s36 49.667 36 87c0 34.667 -11.833 64 -35.5 88s-53.167 36 -88.5 36z" />
    <glyph glyph-name="h" unicode="h" horiz-adv-x="607" 
d="M61 700h145v-267c35.333 46 85.333 69 150 69c131.333 0 197 -79 197 -237v-265h-144v264c0 34 -8.5 60.333 -25.5 79s-39.833 28 -68.5 28c-31.333 0 -57.5 -10.667 -78.5 -32s-31.5 -51 -31.5 -89v-250h-144v700z" />
    <glyph glyph-name="i" unicode="i" horiz-adv-x="266" 
d="M205 495h-144v-495h144v495zM51 625c0 25.333 8.5 45.333 25.5 60s35.833 22 56.5 22s39.5 -7.33301 56.5 -22s25.5 -34.667 25.5 -60s-8.5 -45.333 -25.5 -60s-35.833 -22 -56.5 -22s-39.5 7.33301 -56.5 22s-25.5 34.667 -25.5 60z" />
    <glyph glyph-name="j" unicode="j" horiz-adv-x="265" 
d="M204 495l-142.999 0.00195312v-523c0 -68 -33 -85.333 -99 -52l-41 -105c32 -18.667 64.667 -29.667 98 -33s64 0.666992 92 12s50.667 32.666 68 63.999s25.666 70.666 24.999 117.999v519zM52.001 625.002c0 25.333 8.5 45.333 25.5 60s35.667 22 56 22
s39 -7.33301 56 -22s25.5 -34.667 25.5 -60s-8.5 -45.333 -25.5 -60s-35.667 -22 -56 -22s-39 7.33301 -56 22s-25.5 34.667 -25.5 60z" />
    <glyph glyph-name="k" unicode="k" horiz-adv-x="548" 
d="M61 699h144v-399l146 193h170v-9l-181 -223l209 -250v-11h-173l-171 217v-217h-144v699z" />
    <glyph glyph-name="l" unicode="l" horiz-adv-x="269" 
d="M63 699h143v-699h-143v699z" />
    <glyph glyph-name="m" unicode="m" horiz-adv-x="886" 
d="M521 0h-141.999v265c0 72 -28.333 108 -85 108c-27.333 0 -49 -10.667 -65 -32s-24 -47 -24 -77v-264h-144v494h126l10 -56c25.333 44.667 68.666 67 129.999 67c68.667 0 116.667 -30.667 144 -92c22 33.333 45.667 57.166 71 71.499s56.333 21.5 93 21.5
c58.667 0 106.167 -18 142.5 -54s54.5 -96.667 54.5 -182v-270h-145v267c0 68.667 -25 103 -75 103c-27.333 0 -49.333 -10.167 -66 -30.5s-25 -45.166 -25 -74.499v-265z" />
    <glyph glyph-name="n" unicode="n" 
d="M562 0h-144.999v261c0 76.667 -34 115 -102 115c-32.667 0.666992 -59.5 -11 -80.5 -35s-31.5 -52.667 -31.5 -86v-255h-142v494h130l5 -63c39.333 51.333 92.666 76.333 159.999 75c137.333 0 206 -81.333 206 -244v-262z" />
    <glyph glyph-name="o" unicode="o" horiz-adv-x="605" 
d="M302 -11c-82 0 -147.501 23.833 -196.501 71.5s-73.5 109.5 -73.5 185.5c0 75.333 24.833 137.333 74.5 186s114.834 73 195.501 73c81.333 0 146.833 -24.333 196.5 -73s74.5 -110.667 74.5 -186c0 -76 -24.5 -137.833 -73.5 -185.5s-114.833 -71.5 -197.5 -71.5z
M301.999 117c41.333 0 72.5 12.501 93.5 37.501s31.5 55.5 31.5 91.5c0 34.667 -10.667 65 -32 91s-52.333 39 -93 39c-40 0 -70.667 -13 -92 -39s-32 -56.333 -32 -91s10.5 -64.834 31.5 -90.501s51.833 -38.5 92.5 -38.5z" />
    <glyph glyph-name="p" unicode="p" horiz-adv-x="640" 
d="M341 119c36.667 0 66 11.833 88 35.5s33 54.167 33 91.5c0 36.667 -10.833 67 -32.5 91s-51.167 36 -88.5 36c-36.667 0 -68 -10.333 -94 -31s-39 -52.667 -39 -96c0 -39.333 13.333 -70.333 40 -93s57.667 -34 93 -34zM206 -218h-145.001v711h129l9 -63
c37.333 48 92 72 164 72c72.667 0 131.5 -23.5 176.5 -70.5s67.5 -108.833 67.5 -185.5c0 -78.667 -22.667 -141.167 -68 -187.5s-104.666 -69.5 -177.999 -69.5c-65.333 0 -117 23.333 -155 70v-277z" />
    <glyph glyph-name="q" unicode="q" horiz-adv-x="640" 
d="M299 119c35.333 0 66.333 11.333 93 34s40 53.667 40 93c0 43.333 -13 75.333 -39 96s-57.333 31 -94 31c-37.333 0 -66.833 -12 -88.5 -36s-32.5 -54.333 -32.5 -91c0 -37.333 11 -67.833 33 -91.5s51.333 -35.5 88 -35.5zM579 -218h-145.001v277
c-38 -46.667 -89.667 -70 -155 -70c-73.333 0 -132.666 23.167 -177.999 69.5s-68 108.833 -68 187.5c0 76.667 22.5 138.5 67.5 185.5s103.833 70.5 176.5 70.5c72 0 126.667 -24 164 -72l9 63h129v-711z" />
    <glyph glyph-name="r" unicode="r" horiz-adv-x="454" 
d="M61 493l133.999 -0.000976562l11 -54c31.333 44 75.333 66 132 66c46.667 0 87 -15 121 -45l-60 -114c-23.333 16.667 -49.666 25 -78.999 25c-32.667 0 -60 -10.167 -82 -30.5s-33 -48.166 -33 -83.499v-257h-144v493z" />
    <glyph glyph-name="s" unicode="s" horiz-adv-x="497" 
d="M443 444l-70.9961 -90.002c-34 24 -73 36 -117 36c-22.667 0 -40.167 -3.66699 -52.5 -11s-18.5 -17.333 -18.5 -30c0 -27.333 24.333 -41.666 73 -42.999c22 -0.666992 41.833 -2.16699 59.5 -4.5s36.667 -7 57 -14s37.166 -15.833 50.499 -26.5
s24.666 -25.834 33.999 -45.501s14 -42.5 14 -68.5c0.666992 -45.333 -17 -84.333 -53 -117s-90.333 -49 -163 -49c-87.333 0 -164.666 28 -231.999 84l62 102c48.667 -40 106 -60.667 172 -62c21.333 -0.666992 39.166 3 53.499 11s21.166 18.333 20.499 31
c0 27.333 -28 42 -84 44c-24.667 1.33301 -48.5 4.83301 -71.5 10.5s-45 14.334 -66 26.001s-37.833 28 -50.5 49s-19 45.167 -19 72.5c0 52.667 20.667 92.334 62 119.001s91.666 40 150.999 40c76.667 0 139.667 -21.333 189 -64z" />
    <glyph glyph-name="t" unicode="t" horiz-adv-x="419" 
d="M113 613l144.001 16.001v-138h125v-120h-126v-186c0 -44 18.667 -66 56 -66c24 0 44 4 60 12l33 -120c-32.667 -12.667 -67.334 -20 -104.001 -22c-58 -2.66699 -103.833 11.166 -137.5 41.499s-50.5 81.833 -50.5 154.5v186h-88v120h88v122z" />
    <glyph glyph-name="u" unicode="u" 
d="M54 494h145v-261c0 -76.667 34 -115 102 -115c32.667 -0.666992 59.5 11 80.5 35s31.5 52.667 31.5 86v255h142v-494h-130l-5 65c-38 -51.333 -91.333 -76.333 -160 -75c-137.333 0 -206 80.667 -206 242v262z" />
    <glyph glyph-name="v" unicode="v" horiz-adv-x="590" 
d="M237 313l58 -163l58 163l71 181h162l-212 -497h-158l-212 497h162z" />
    <glyph glyph-name="w" unicode="w" horiz-adv-x="845" 
d="M366 494h113l95 -315l32 112l69 203h161l-183 -497h-143l-88 247l-87 -247h-144l-182 497h161l69 -203l32 -112z" />
    <glyph glyph-name="x" unicode="x" horiz-adv-x="542" 
d="M271 346l82 147h172v-5l-157 -240l166 -245v-3h-172l-91 148l-90 -148h-173v3l167 245l-158 240v5h172z" />
    <glyph glyph-name="y" unicode="y" horiz-adv-x="573" 
d="M409 494h159l-303 -716h-157l102 237l-207 479h162l123 -311z" />
    <glyph glyph-name="z" unicode="z" horiz-adv-x="479" 
d="M46 494h388v-70l-207 -291h217v-133h-417v61l217 308h-198v125z" />
    <glyph glyph-name="braceleft" unicode="{" horiz-adv-x="373" 
d="M334 -45v-112.999c-74 -14 -131.833 -6 -173.5 24s-62.5 76.333 -62.5 139v149c0 14 -1.16699 25.667 -3.5 35s-8.83301 18.166 -19.5 26.499s-25.667 12.5 -45 12.5v106c19.333 0 34.333 4.16699 45 12.5s17.167 17.166 19.5 26.499s3.5 21 3.5 35v142
c0 67.333 20.167 116.5 60.5 147.5s98.833 39.5 175.5 25.5v-109c-29.333 6 -50.5 3.5 -63.5 -7.5s-19.5 -32.5 -19.5 -64.5v-134v-17.5v-17.5c0 -2.66699 -0.166992 -7.83398 -0.5 -15.501s-1 -12.667 -2 -15s-2.33301 -6.5 -4 -12.5s-3.66699 -10.167 -6 -12.5
s-5.16602 -5.83301 -8.49902 -10.5s-7.33301 -8.16699 -12 -10.5l-16.5 -8c-6.33301 -3 -13.166 -5.83301 -20.499 -8.5c7.33301 -2 14.166 -4.5 20.499 -7.5l16.5 -8c4.66699 -2.33301 8.66699 -5.66602 12 -9.99902s6.16602 -7.83301 8.49902 -10.5s4.33301 -7 6 -13
s3 -10.167 4 -12.5s1.66699 -7.33301 2 -15s0.5 -12.667 0.5 -15v-17v-17.5v-130c0 -32 5.16699 -52.167 15.5 -60.5s32.833 -11.166 67.5 -8.49902z" />
    <glyph glyph-name="bar" unicode="|" horiz-adv-x="282" 
d="M210 766v-840h-138v840h138z" />
    <glyph glyph-name="braceright" unicode="}" horiz-adv-x="373" 
d="M39 -160v111.999c34.667 -2.66699 57.167 0.333008 67.5 9s15.5 29 15.5 61v130v17.5v17c0 2.33301 0.166992 7.33301 0.5 15s1 12.667 2 15s2.33301 6.5 4 12.5s3.66699 10.333 6 13s5.16602 6.16699 8.49902 10.5s7.33301 7.66602 12 9.99902l16.5 8
c6.33301 3 13.166 5.5 20.499 7.5c-7.33301 2 -14.166 4.5 -20.499 7.5s-11.833 5.83301 -16.5 8.5s-8.66699 6.16699 -12 10.5s-6.16602 7.83301 -8.49902 10.5s-4.33301 7 -6 13s-3 10.167 -4 12.5s-1.66699 7.33301 -2 15s-0.5 12.667 -0.5 15v17.5v18v134
c0 30.667 -6.33301 50.667 -19 60s-34 12 -64 8v113c76.667 14 135.167 5.5 175.5 -25.5s60.5 -80.167 60.5 -147.5v-142c0 -14 1.16699 -25.667 3.5 -35s8.83301 -18.166 19.5 -26.499s25.667 -12.5 45 -12.5v-106c-19.333 0 -34.333 -4.16699 -45 -12.5
s-17.167 -17.166 -19.5 -26.499s-3.5 -21 -3.5 -35v-149c0 -62.667 -20.833 -109 -62.5 -139s-99.5 -38 -173.5 -24z" />
    <glyph glyph-name="asciitilde" unicode="~" horiz-adv-x="622" 
d="M461 387l109 -31.0039c-10.667 -46 -29.5 -81.5 -56.5 -106.5s-58.833 -38.167 -95.5 -39.5c-27.333 -0.666992 -61.666 11.333 -102.999 36s-74 36.667 -98 36c-26.667 -1.33301 -47.334 -19.666 -62.001 -54.999l-100 34c10 40.667 28.833 74 56.5 100
s62.167 39.667 103.5 41c28.667 0.666992 63 -10.166 103 -32.499s66.667 -35.166 80 -38.499c26.667 -3.33301 47.667 15.334 63 56.001z" />
    <glyph glyph-name="exclamdown" unicode="&#xa1;" horiz-adv-x="281" 
d="M63 -181l155 -0.000976562c0 55.333 -0.5 136.833 -1.5 244.5s-1.5 188.834 -1.5 243.501h-148zM228 436.999c0 -27.333 -9.16699 -49 -27.5 -65s-38.5 -24 -60.5 -24s-42.167 8 -60.5 24s-27.5 37.667 -27.5 65s9.16699 48.833 27.5 64.5s38.5 23.5 60.5 23.5
s42.167 -7.83301 60.5 -23.5s27.5 -37.167 27.5 -64.5z" />
    <glyph glyph-name="cent" unicode="&#xa2;" horiz-adv-x="549" 
d="M424 149l88.999 -101.998c-32 -34 -77.333 -57.333 -136 -70v-76h-132v78c-60.667 16.667 -109.167 46.5 -145.5 89.5s-54.5 97.833 -54.5 164.5c0 63.333 17.833 117.166 53.5 161.499s84.5 75.166 146.5 92.499v77h132v-76c48 -10.667 90 -33.667 126 -69l-82 -89
c-23.333 24 -57.666 36 -102.999 36c-34 0 -64.167 -12.833 -90.5 -38.5s-39.5 -57.167 -39.5 -94.5c0 -38 13 -69.333 39 -94s56.333 -37 91 -37c44 0 79.333 15.667 106 47z" />
    <glyph glyph-name="sterling" unicode="&#xa3;" horiz-adv-x="661" 
d="M259 472c0 -21.333 4.00098 -48.665 12.001 -81.998h198v-125h-170c0 -24.667 -4.83301 -50.334 -14.5 -77.001s-25.5 -42.334 -47.5 -47.001h377v-141h-561v142c34 0.666992 57.5 11.834 70.5 33.501s20.5 51.5 22.5 89.5h-93v125h69c-9.33301 28 -14.333 55 -15 81
c-3.33301 70.667 17.667 128.5 63 173.5s108.666 67.5 189.999 67.5c74.667 0 133.667 -19.167 177 -57.5s64.333 -92.5 63 -162.5h-135c-0.666992 56.667 -35.667 85 -105 85c-28 0 -51.833 -9.33301 -71.5 -28s-29.5 -44.334 -29.5 -77.001z" />
    <glyph glyph-name="currency" unicode="&#xa4;" horiz-adv-x="621" 
d="M309 213c30.667 0 54.5 9 71.5 27s25.5 42.333 25.5 73s-8.5 55 -25.5 73s-40.833 27 -71.5 27c-28.667 0 -52.167 -9.16699 -70.5 -27.5s-27.5 -42.5 -27.5 -72.5s9.16699 -54.167 27.5 -72.5s41.833 -27.5 70.5 -27.5zM220 118l-56.999 -59l-109 108l57 56
c-22.667 58 -20.667 117 6 177l-63 59l109 109l58 -58c28 8.66699 58 13 90 13c28.667 0 57.667 -5 87 -15l60 60l108 -109l-58 -57c24 -61.333 24.667 -121 2 -179l56 -56l-106 -106l-59 57c-25.333 -8.66699 -56 -13 -92 -13c-30.667 0 -60.334 4.33301 -89.001 13z" />
    <glyph glyph-name="yen" unicode="&#xa5;" horiz-adv-x="760" 
d="M148 102v107h150v58h-150v107h94l-213 318v8h176l88 -142l82 -145l86 144l93 143h179v-8l-223 -318h92v-107h-151v-58h151v-107h-151v-102h-153v102h-150z" />
    <glyph glyph-name="brokenbar" unicode="&#xa6;" horiz-adv-x="292" 
d="M219 341h-146v370h146v-370zM73 279h146v-371h-146v371z" />
    <glyph glyph-name="section" unicode="&#xa7;" horiz-adv-x="615" 
d="M49 81l74.999 90c51.333 -50 111.333 -74.333 180 -73c80.667 0 121 16.667 121 50c0 26.667 -39 39.334 -117 38.001c-32 -0.666992 -62.667 1.83301 -92 7.5s-56.5 14.334 -81.5 26.001s-44.833 28 -59.5 49s-21 45.5 -19 73.5
c1.33301 19.333 8.16602 38.166 20.499 56.499s30.833 31.833 55.5 40.5c-24 8.66699 -41.5 23.5 -52.5 44.5s-16.5 42.5 -16.5 64.5c0 30 8.66699 56 26 78s40 38.5 68 49.5s55.833 19 83.5 24s55.834 7.5 84.501 7.5c41.333 0 82.833 -6.66699 124.5 -20
s75.167 -34.333 100.5 -63l-86 -71c-38 27.333 -85.667 41.333 -143 42c-34 0.666992 -62.667 -2.83301 -86 -10.5s-35 -19.834 -35 -36.501c0 -29.333 37.667 -44 113 -44c25.333 0 49 -1.16699 71 -3.5s44.833 -6.83301 68.5 -13.5s43.667 -15.5 60 -26.5
s29.333 -26.167 39 -45.5s13.5 -42 11.5 -68c-2 -19.333 -9.66699 -38 -23 -56s-30.666 -31.333 -51.999 -40c49.333 -21.333 74 -56 74 -104c0 -32.667 -9 -60.667 -27 -84s-41.5 -40.5 -70.5 -51.5s-57 -18.833 -84 -23.5s-53.833 -7 -80.5 -7
c-50.667 0 -98.167 8.5 -142.5 25.5s-80.5 41.833 -108.5 74.5zM426.999 347c0 16.667 -11.167 29.499 -33.5 38.499s-49.166 13.833 -80.499 14.5c-32 0.666992 -60.167 -3.66602 -84.5 -12.999s-36.5 -22.333 -36.5 -39c0 -16 10.667 -28.5 32 -37.5
s47.666 -13.833 78.999 -14.5c28 -0.666992 55.667 3 83 11s41 21.333 41 40z" />
    <glyph glyph-name="dieresis" unicode="&#xa8;" horiz-adv-x="526" 
d="M59 648c0 24.667 8.33301 44 25 58s34.834 21 54.501 21s37.834 -7 54.501 -21s25 -33.333 25 -58s-8.33301 -44 -25 -58s-34.834 -21 -54.501 -21s-37.834 7 -54.501 21s-25 33.333 -25 58zM319 648c0 24.667 8.33301 44 25 58s34.834 21 54.501 21
s37.834 -7 54.501 -21s25 -33.333 25 -58s-8.33301 -44 -25 -58s-34.834 -21 -54.501 -21s-37.834 7 -54.501 21s-25 33.333 -25 58z" />
    <glyph glyph-name="copyright" unicode="&#xa9;" horiz-adv-x="827" 
d="M418 721c114 0 203.333 -34 268 -102s97 -155.667 97 -263c0 -108 -32.333 -195.833 -97 -263.5s-154 -101.5 -268 -101.5c-113.333 0 -204 34.167 -272 102.5s-102 155.833 -102 262.5c0 104 34.167 190.833 102.5 260.5s158.833 104.5 271.5 104.5zM230 352
c0 -58.667 19.167 -104.833 57.5 -138.5s84.5 -50.5 138.5 -50.5c60.667 0 113 21.667 157 65l-68 68c-22 -22 -48.667 -33 -80 -33c-27.333 0 -50.666 7.83301 -69.999 23.5s-29 37.5 -29 65.5c0 31.333 9.5 55.166 28.5 71.499s42.5 24.5 70.5 24.5
c29.333 0 55.333 -10 78 -30l67 66c-43.333 42 -93.333 63 -150 63c-54.667 0 -100.834 -17.167 -138.501 -51.5s-58.167 -82.166 -61.5 -143.499zM154 356.001c0 -80 24.1689 -144.666 72.502 -193.999s112.166 -74 191.499 -74c80 0 142.667 24.167 188 72.5
s68 113.5 68 195.5s-22.667 147 -68 195s-108 72 -188 72c-78.667 0 -142.334 -24.833 -191.001 -74.5s-73 -113.834 -73 -192.501z" />
    <glyph glyph-name="ordfeminine" unicode="&#xaa;" horiz-adv-x="441" 
d="M290 661l7.00098 39.001h101v-323h-104l-4 47c-8.66699 -18 -22.5 -31.833 -41.5 -41.5s-38.5 -14.5 -58.5 -14.5c-49.333 0 -89.333 14.5 -120 43.5s-46 71.5 -46 127.5c0 55.333 15.667 97.5 47 126.5s72.333 43.5 123 43.5c21.333 0 40.666 -4.33301 57.999 -13
s30 -20.334 38 -35.001zM205.001 612.001c-20 0 -36.833 -6.49902 -50.5 -19.499s-20.5 -30.833 -20.5 -53.5c0 -23.333 6.66699 -41.333 20 -54s30.333 -19 51 -19c29.333 0 50 12.167 62 36.5s12 48.666 0 72.999s-32.667 36.5 -62 36.5zM38.001 223.002v98h364v-98h-364z
" />
    <glyph glyph-name="guillemotleft" unicode="&#xab;" horiz-adv-x="563" 
d="M30 297l139.001 222h153v1l-139 -223c65.333 -108 111.666 -182.333 138.999 -223h-153zM236.001 297l139 222h154v1l-139 -223l139 -223h-154z" />
    <glyph glyph-name="logicalnot" unicode="&#xac;" horiz-adv-x="543" 
d="M473 388v-244h-121v124h-288v120h409z" />
    <glyph glyph-name="registered" unicode="&#xae;" horiz-adv-x="827" 
d="M588 170l-83 128.999c22.667 6.66699 41 19 55 37s21.333 37.833 22 59.5s-3.33301 42.834 -12 63.501s-24.667 38 -48 52s-51.333 21 -84 21h-166v-362h103v108h42l60 -108h111zM373 442.999l68.998 0.000976562c9.33301 0 17.333 -2.83301 24 -8.5
s10.834 -12.5 12.501 -20.5s1.83398 -15.833 0.500977 -23.5s-5.33301 -14.334 -12 -20.001s-14.667 -8.5 -24 -8.5h-70v81zM417.998 721c114 0 203.333 -34 268 -102s97 -155.667 97 -263c0 -108 -32.333 -195.833 -97 -263.5s-154 -101.5 -268 -101.5
c-113.333 0 -204 34.167 -272 102.5s-102 155.833 -102 262.5c0 104 34.167 190.833 102.5 260.5s158.833 104.5 271.5 104.5zM153.998 356c0 -80 24.1689 -144.666 72.502 -193.999s112.166 -74 191.499 -74c80 0 142.667 24.167 188 72.5s68 113.5 68 195.5
s-22.667 147 -68 195s-108 72 -188 72c-78.667 0 -142.334 -24.833 -191.001 -74.5s-73 -113.834 -73 -192.501z" />
    <glyph glyph-name="macron" unicode="&#xaf;" horiz-adv-x="453" 
d="M50 583v119h359v-119h-359z" />
    <glyph glyph-name="degree" unicode="&#xb0;" horiz-adv-x="365" 
d="M182 633c-16 0 -29.333 -4 -40 -12s-17.334 -17.833 -20.001 -29.5s-2.66699 -23.167 0 -34.5s9.33398 -21 20.001 -29s23.667 -12 39 -12c16 0 29.5 4 40.5 12s17.667 17.667 20 29s2.33301 22.833 0 34.5s-9 21.5 -20 29.5s-24.167 12 -39.5 12zM182 710
c26 0 49.168 -5 69.501 -15s35.666 -22.833 45.999 -38.5s18 -33.167 23 -52.5s5 -38.666 0 -57.999s-12.833 -36.833 -23.5 -52.5s-26.167 -28.5 -46.5 -38.5s-43.833 -15 -70.5 -15c-36 0 -66.167 9.33301 -90.5 28s-39.333 41.167 -45 67.5s-5.5 52.666 0.5 78.999
s21.333 48.833 46 67.5s55 28 91 28z" />
    <glyph glyph-name="plusminus" unicode="&#xb1;" horiz-adv-x="546" 
d="M63 312v135h140v143h140v-143h140v-135h-140v-142h-140v142h-140zM61 11v126h424v-126h-424z" />
    <glyph glyph-name="twosuperior" unicode="&#xb2;" horiz-adv-x="376" 
d="M135 649l-97.998 -0.00488281c0.666992 36 15.667 64.5 45 85.5s63.666 31.5 102.999 31.5c46 0 83.333 -10.5 112 -31.5s43 -51.5 43 -91.5c0 -27.333 -7.16699 -49.666 -21.5 -66.999s-31.833 -29.333 -52.5 -36s-41.334 -12.167 -62.001 -16.5
s-38.167 -9.66602 -52.5 -15.999s-21.5 -14.833 -21.5 -25.5h207v-96h-302v96c0 26.667 7 48.334 21 65.001s30.833 28.334 50.5 35.001s39.5 12.167 59.5 16.5s37 9.83301 51 16.5s21 16 21 28c0 14.667 -8 24.834 -24 30.501s-32.5 6 -49.5 1s-26.833 -13.5 -29.5 -25.5z
" />
    <glyph glyph-name="threesuperior" unicode="&#xb3;" horiz-adv-x="385" 
d="M190 538h-58v75h54c37.333 0 56 11.667 56 35c0 20.667 -18.667 31.667 -56 33c-36 1.33301 -56 -8 -60 -28h-89c0 37.333 15.167 65.5 45.5 84.5s65.5 28.5 105.5 28.5s75.667 -10.333 107 -31s47 -50 47 -88c0 -34 -16 -58 -48 -72
c16.667 -5.33301 30.5 -15.666 41.5 -30.999s16.5 -32 16.5 -50c0 -42.667 -16.167 -72.834 -48.5 -90.501s-70.5 -26.5 -114.5 -26.5c-40.667 0 -77.167 10 -109.5 30s-48.833 49 -49.5 87h105c2.66699 -18.667 20.334 -28 53.001 -28c15.333 0 28.666 3.16699 39.999 9.5
s17 15.5 17 27.5c0 23.333 -18.333 35 -55 35z" />
    <glyph glyph-name="acute" unicode="&#xb4;" horiz-adv-x="278" 
d="M257 698v-6l-116 -141h-126v7l74 140h168z" />
    <glyph glyph-name="mu" unicode="&#xb5;" horiz-adv-x="619" 
d="M568 0h-124.999l-15 51c-8.66699 -22.667 -22.834 -40.334 -42.501 -53.001s-41.5 -19.667 -65.5 -21s-46.167 3.66699 -66.5 15s-35.5 28 -45.5 50v-255h-138v707h145v-272c0 -34 10.167 -60.833 30.5 -80.5s43.833 -29.167 70.5 -28.5c28 0 52.667 10.333 74 31
s32 50.334 32 89.001v261h146v-494z" />
    <glyph glyph-name="mu" unicode="&#x3bc;" horiz-adv-x="619" 
d="M568 0h-124.999l-15 51c-8.66699 -22.667 -22.834 -40.334 -42.501 -53.001s-41.5 -19.667 -65.5 -21s-46.167 3.66699 -66.5 15s-35.5 28 -45.5 50v-255h-138v707h145v-272c0 -34 10.167 -60.833 30.5 -80.5s43.833 -29.167 70.5 -28.5c28 0 52.667 10.333 74 31
s32 50.334 32 89.001v261h146v-494z" />
    <glyph glyph-name="paragraph" unicode="&#xb6;" horiz-adv-x="856" 
d="M425 552l0.00292969 -764.002h-157v400c-36.667 2.66699 -69.834 10.834 -99.501 24.501s-53.667 30.667 -72 51s-33.5 43.333 -45.5 69s-18.333 52.334 -19 80.001s1.66602 55.167 6.99902 82.5s16 53.333 32 78s34.833 46.5 56.5 65.5s48.667 34 81 45
s67.166 16.5 104.499 16.5h500v-148h-85v-764h-157v764h-146z" />
    <glyph glyph-name="periodcentered" unicode="&#xb7;" horiz-adv-x="278" 
d="M52 297c0 27.333 9 48.666 27 63.999s38 23 60 23s42 -7.66699 60 -23s27 -36.666 27 -63.999c0 -26.667 -9 -47.667 -27 -63s-38 -23 -60 -23s-42 7.66699 -60 23s-27 36.333 -27 63z" />
    <glyph glyph-name="cedilla" unicode="&#xb8;" horiz-adv-x="364" 
d="M51 -174l61.001 50.9971c12.667 -16 33.167 -26 61.5 -30s46.166 4 53.499 24c4.66699 18.667 -4.5 32.334 -27.5 41.001s-43.167 6.33398 -60.5 -6.99902l-32 24l35 96h103l-17 -49c42.667 -2 72 -14.833 88 -38.5s22 -50.834 18 -81.501
c-4 -32 -18.333 -56.833 -43 -74.5s-52.167 -26.667 -82.5 -27s-60.5 5.83398 -90.5 18.501s-52.333 30.334 -67 53.001z" />
    <glyph glyph-name="onesuperior" unicode="&#xb9;" horiz-adv-x="285" 
d="M35 387v87h62v172l-52 -11v84l152 40v-285h64v-87h-226z" />
    <glyph glyph-name="ordmasculine" unicode="&#xba;" horiz-adv-x="425" 
d="M35 218v99h356v-99h-356zM212 365c-54 0 -97.833 15 -131.5 45s-50.5 73 -50.5 129c0 55.333 16.667 97.5 50 126.5s77.333 43.5 132 43.5c55.333 0 99.5 -14.5 132.5 -43.5s49.5 -71.167 49.5 -126.5c0 -56 -16.667 -99 -50 -129s-77.333 -45 -132 -45zM212 466
c20.667 0 37.834 6.33301 51.501 19s20.5 30.667 20.5 54c0 22.667 -6.83301 40.5 -20.5 53.5s-30.834 19.5 -51.501 19.5c-20 0 -37 -6.5 -51 -19.5s-21 -30.833 -21 -53.5s7 -40.5 21 -53.5s31 -19.5 51 -19.5z" />
    <glyph glyph-name="guillemotright" unicode="&#xbb;" horiz-adv-x="562" 
d="M393 521l139 -222l-139 -222h-154l139 222l-139 223v-1h154zM188 521l139 -222l-139 -222h-153l139 222l-139 223v-1h153z" />
    <glyph glyph-name="onequarter" unicode="&#xbc;" horiz-adv-x="805" 
d="M596 370h130v-222h45v-87h-45v-61h-96v61h-197l-4 86zM630 148v125l-99 -125h99zM255 -1h-120l390 709h122zM45 330v88h62v171l-53 -11v84l153 40v-284h63v-88h-225z" />
    <glyph glyph-name="onehalf" unicode="&#xbd;" horiz-adv-x="818" 
d="M252 -2h-120l390 710h122zM41 329v88h62v172l-52 -12v85l152 40v-285h64v-88h-226zM577 258l-97.998 -0.00488281c0.666992 36 15.667 64.5 45 85.5s63.666 31.5 102.999 31.5c46 0 83.333 -10.5 112 -31.5s43 -51.5 43 -91.5c0 -27.333 -7.16699 -49.666 -21.5 -66.999
s-31.833 -29.333 -52.5 -36s-41.334 -12.167 -62.001 -16.5s-38.167 -9.66602 -52.5 -15.999s-21.5 -14.833 -21.5 -25.5h207v-96h-302v96c0 26.667 7 48.334 21 65.001s30.833 28.334 50.5 35.001s39.5 12.167 59.5 16.5s37 9.83301 51 16.5s21 16 21 28
c0 14.667 -8 24.834 -24 30.501s-32.5 6 -49.5 1s-26.833 -13.5 -29.5 -25.5z" />
    <glyph glyph-name="threequarters" unicode="&#xbe;" horiz-adv-x="843" 
d="M189 495l-55.001 0.000976562v72h51c20.667 0 34.5 1.66699 41.5 5s10.833 12.333 11.5 27c0 3.33301 -0.833008 7 -2.5 11s-6.83398 8.5 -15.501 13.5s-20 7.5 -34 7.5c-17.333 0 -30.166 -1.66699 -38.499 -5s-14.5 -10.333 -18.5 -21h-87
c0 35.333 14.833 62.166 44.5 80.499s63.5 27.5 101.5 27.5s72 -10 102 -30s45.333 -48 46 -84c0 -14 -3.83301 -27.833 -11.5 -41.5s-18.5 -22.5 -32.5 -26.5c16 -5.33301 28.667 -14.833 38 -28.5s14 -28.167 14 -43.5c0 -40 -16.167 -69.667 -48.5 -89
s-69.166 -29 -110.499 -29c-38.667 0 -73 9.5 -103 28.5s-45.333 46.833 -46 83.5h100c12 -16.667 29.667 -25 53 -25c14.667 0 27.167 2.66699 37.5 8s15.5 12 15.5 20c0 26 -17.667 39 -53 39zM296.999 -5.99902h-121l393 714h122zM632.999 370.001h130v-222h45v-87h-45
v-61h-96v61h-197l-4 86zM666.999 148.001v125l-99 -125h99z" />
    <glyph glyph-name="questiondown" unicode="&#xbf;" horiz-adv-x="592" 
d="M398 426c0 -23.333 -6.33203 -42.833 -18.999 -58.5s-28 -25.334 -46 -29.001s-36 -3.66699 -54 0s-33.333 13.334 -46 29.001s-19 35.167 -19 58.5c0 22.667 6.16699 42 18.5 58s27.666 25.833 45.999 29.5s36.5 3.66699 54.5 0s33.333 -13.5 46 -29.5
s19 -35.333 19 -58zM563.001 19l-156.998 0.000976562c-1.33301 -27.333 -12 -49.5 -32 -66.5s-45 -25.5 -75 -25.5c-28 0 -51.667 5.5 -71 16.5s-30.333 26.5 -33 46.5c-2.66699 17.333 0 32.333 8 45s19 22.667 33 30s29.5 16.666 46.5 27.999s33 23.833 48 37.5
s27.667 33.834 38 60.501s15.833 58.334 16.5 95.001h-155c0 -24 -5.66699 -45.333 -17 -64s-25.333 -33.5 -42 -44.5s-34.334 -23.333 -53.001 -37s-35.334 -27.334 -50.001 -41.001s-25.334 -32.834 -32.001 -57.501s-7 -53 -1 -85c11.333 -54 40.5 -95 87.5 -123
s105.833 -42 176.5 -42c78 0 141.333 20 190 60s73.334 95.667 74.001 167z" />
    <glyph glyph-name="Agrave" unicode="&#xc0;" horiz-adv-x="790" 
d="M625 0l-51 120h-359l-51 -120h-168l314 700h170l314 -700h-169zM515 258l-120 284l-121 -284h241zM221 898v6h168l74 -140v-7h-126z" />
    <glyph glyph-name="Aacute" unicode="&#xc1;" horiz-adv-x="790" 
d="M574 120l51 -120h169l-314 700h-170l-314 -700h168l51 120h359zM395 542l120 -284h-241zM562 904v-6l-116 -141h-126v7l74 140h168z" />
    <glyph glyph-name="Acircumflex" unicode="&#xc2;" horiz-adv-x="790" 
d="M574 120l51 -120h169l-314 700h-170l-314 -700h168l51 120h359zM395 542l120 -284h-241zM357 907h75l149 -140v-5h-140l-47 42l-46 -42h-141v5z" />
    <glyph glyph-name="Atilde" unicode="&#xc3;" horiz-adv-x="790" 
d="M625 0l-51 120h-359l-51 -120h-168l314 700h170l314 -700h-169zM515 258l-120 284l-121 -284h241zM290 754l-85 50c36 76 84.333 106 145 90c8.66699 -2 20.5 -6.5 35.5 -13.5s27 -12.167 36 -15.5s18.5 -3 28.5 1s17.667 13.667 23 29l89 -44
c-34.667 -80.667 -81 -110.667 -139 -90c-8.66699 2.66699 -19.5 7 -32.5 13s-23.333 10.333 -31 13s-16.167 4.5 -25.5 5.5s-17.5 -1.83301 -24.5 -8.5s-13.5 -16.667 -19.5 -30z" />
    <glyph glyph-name="Adieresis" unicode="&#xc4;" horiz-adv-x="790" 
d="M574 120l51 -120h169l-314 700h-170l-314 -700h168l51 120h359zM395 542l120 -284h-241zM184 836c0 24.667 8.33301 44 25 58s34.834 21 54.501 21s37.834 -7 54.501 -21s25 -33.333 25 -58s-8.33301 -44 -25 -58s-34.834 -21 -54.501 -21s-37.834 7 -54.501 21
s-25 33.333 -25 58zM444 836c0 24.667 8.33301 44 25 58s34.834 21 54.501 21s37.834 -7 54.501 -21s25 -33.333 25 -58s-8.33301 -44 -25 -58s-34.834 -21 -54.501 -21s-37.834 7 -54.501 21s-25 33.333 -25 58z" />
    <glyph glyph-name="Aring" unicode="&#xc5;" horiz-adv-x="790" 
d="M253 801c0 40 14.167 71.333 42.5 94s61.5 34 99.5 34c37.333 0 69.833 -11.333 97.5 -34s41.5 -54 41.5 -94c0 -44 -18 -78.667 -54 -104l314 -697h-170l-53 120h-351l-55 -120h-169l313 697c-37.333 24 -56 58.667 -56 104zM283 265h225l-51 122l-62 171l-63 -175z
M392 851c-24 0 -40.833 -8.16699 -50.5 -24.5s-9.5 -32.5 0.5 -48.5s26.667 -24 50 -24c24.667 0 41.667 8 51 24s9 32.167 -1 48.5s-26.667 24.5 -50 24.5z" />
    <glyph glyph-name="AE" unicode="&#xc6;" horiz-adv-x="892" 
d="M849 138v-138h-409v109h-222l-63 -109h-182l439 700h421v-136h-253v-144h236v-132h-236v-150h269zM298 246h142l6 254z" />
    <glyph glyph-name="Ccedilla" unicode="&#xc7;" horiz-adv-x="699" 
d="M244 -203l61.002 50.998c12.667 -16 33.167 -26 61.5 -30s46.166 4 53.499 24c4.66699 18.667 -4.5 32.334 -27.5 41.001s-43.167 6.33398 -60.5 -6.99902l-32 24l32 88c-98 15.333 -171 55.666 -219 120.999s-72.333 144 -73 236c0 46.667 7.5 91.5 22.5 134.5
s37.333 82.5 67 118.5s69 64.667 118 86s104.5 32 166.5 32c98 0 183.667 -36 257 -108l-98 -97c-39.333 38.667 -92.333 58 -159 58c-38 0 -71.667 -6.83301 -101 -20.5s-52.5 -31.667 -69.5 -54s-29.5 -46.333 -37.5 -72s-12 -51.834 -12 -78.501
c0 -27.333 4 -53.166 12 -77.499s20.167 -47.333 36.5 -69s39.166 -39 68.499 -52s63.666 -19.5 102.999 -19.5c29.333 0 60.333 6.16699 93 18.5s59 28.5 79 48.5l97 -108c-65.333 -64.667 -148.666 -99 -249.999 -103l-12 -35c42.667 -2 72 -14.833 88 -38.5
s22 -50.834 18 -81.501c-4 -32 -18.333 -56.833 -43 -74.5s-52.167 -26.667 -82.5 -27s-60.5 5.83398 -90.5 18.501s-52.333 30.334 -67 53.001z" />
    <glyph glyph-name="Egrave" unicode="&#xc8;" horiz-adv-x="656" 
d="M611 144v-144h-533v700h519v-143h-366v-135h345v-137h-345v-141h380zM175 909v6h168l74 -140v-7h-126z" />
    <glyph glyph-name="Eacute" unicode="&#xc9;" horiz-adv-x="656" 
d="M611 0v144h-380v141h345v137h-345v135h366v143h-519v-700h533zM507 915v-6l-116 -141h-126v7l74 140h168z" />
    <glyph glyph-name="Ecircumflex" unicode="&#xca;" horiz-adv-x="656" 
d="M611 0v144h-380v141h345v137h-345v135h366v143h-519v-700h533zM309 913h75l149 -140v-5h-140l-47 42l-46 -42h-141v5z" />
    <glyph glyph-name="Edieresis" unicode="&#xcb;" horiz-adv-x="656" 
d="M611 0v144h-380v141h345v137h-345v135h366v143h-519v-700h533zM138 839c0 24.667 8.33301 44 25 58s34.834 21 54.501 21s37.834 -7 54.501 -21s25 -33.333 25 -58s-8.33301 -44 -25 -58s-34.834 -21 -54.501 -21s-37.834 7 -54.501 21s-25 33.333 -25 58zM398 839
c0 24.667 8.33301 44 25 58s34.834 21 54.501 21s37.834 -7 54.501 -21s25 -33.333 25 -58s-8.33301 -44 -25 -58s-34.834 -21 -54.501 -21s-37.834 7 -54.501 21s-25 33.333 -25 58z" />
    <glyph glyph-name="Igrave" unicode="&#xcc;" horiz-adv-x="311" 
d="M233 0h-155v700h155v-700zM-15 903v6h168l74 -140v-7h-126z" />
    <glyph glyph-name="Iacute" unicode="&#xcd;" horiz-adv-x="311" 
d="M78 0h155v700h-155v-700zM325 905v-6l-116 -141h-126v7l74 140h168z" />
    <glyph glyph-name="Icircumflex" unicode="&#xce;" horiz-adv-x="311" 
d="M78 0h155v700h-155v-700zM119 910h75l149 -140v-5h-140l-47 42l-46 -42h-141v5z" />
    <glyph glyph-name="Idieresis" unicode="&#xcf;" horiz-adv-x="311" 
d="M78 0h155v700h-155v-700zM-53 839c0 24.667 8.33301 44 25 58s34.834 21 54.501 21s37.834 -7 54.501 -21s25 -33.333 25 -58s-8.33301 -44 -25 -58s-34.834 -21 -54.501 -21s-37.834 7 -54.501 21s-25 33.333 -25 58zM207 839c0 24.667 8.33301 44 25 58
s34.834 21 54.501 21s37.834 -7 54.501 -21s25 -33.333 25 -58s-8.33301 -44 -25 -58s-34.834 -21 -54.501 -21s-37.834 7 -54.501 21s-25 33.333 -25 58z" />
    <glyph glyph-name="Eth" unicode="&#xd0;" horiz-adv-x="757" 
d="M15 286v125.001h71v289h265c114.667 0 204.5 -31.833 269.5 -95.5s97.5 -144.834 97.5 -243.501c0 -105.333 -31.333 -191.833 -94 -259.5s-153.667 -101.5 -273 -101.5h-265v286h-71zM235 286.001v-148h116c70.667 0 123.667 19.5 159 58.5s53.333 93.833 54 164.5
c0.666992 68 -17.333 119.167 -54 153.5s-89.667 51.5 -159 51.5h-116v-155h126v-125h-126z" />
    <glyph glyph-name="Ntilde" unicode="&#xd1;" horiz-adv-x="790" 
d="M212 700l353 -455l-10 220v235h157v-700h-134l-348 448l6 -230v-218h-158v700h134zM283 760l-89.999 53.001c37.333 80.667 88.333 112.334 153 95.001c8.66699 -2 19 -5.83301 31 -11.5s22.333 -10.334 31 -14.001s17.667 -6.16699 27 -7.5s17.5 0.666992 24.5 6
s12.833 14.666 17.5 27.999l94 -47c-36.667 -84.667 -85.667 -116.334 -147 -95.001c-9.33301 2.66699 -21 7.33398 -35 14.001s-25 11.334 -33 14.001s-16.833 4.5 -26.5 5.5s-18.334 -1.83301 -26.001 -8.5s-14.5 -17.334 -20.5 -32.001z" />
    <glyph glyph-name="Ograve" unicode="&#xd2;" horiz-adv-x="832" 
d="M794 350c0 -112.667 -34.667 -202 -104 -268s-160.666 -99 -273.999 -99s-204.666 33 -273.999 99s-104 155.333 -104 268s34.667 202 104 268s160.666 99 273.999 99s204.666 -33 273.999 -99s104 -155.333 104 -268zM641 350c0 65.333 -20.8311 119.5 -62.498 162.5
s-95.834 64.5 -162.501 64.5c-66 0 -120 -21.667 -162 -65s-63 -97.333 -63 -162c0 -66 21 -120.167 63 -162.5s96 -63.5 162 -63.5c67.333 0 121.666 21.167 162.999 63.5s62 96.5 62 162.5zM238.002 913v6h168l74 -140v-7h-126z" />
    <glyph glyph-name="Oacute" unicode="&#xd3;" horiz-adv-x="832" 
d="M794 350c0 112.667 -34.667 202 -104 268s-160.666 99 -273.999 99s-204.666 -33 -273.999 -99s-104 -155.333 -104 -268s34.667 -202 104 -268s160.666 -99 273.999 -99s204.666 33 273.999 99s104 155.333 104 268zM641 350c0 -66 -20.6689 -120.167 -62.002 -162.5
s-95.666 -63.5 -162.999 -63.5c-66 0 -120 21.167 -162 63.5s-63 96.5 -63 162.5c0 64.667 21 118.667 63 162s96 65 162 65c66.667 0 120.834 -21.5 162.501 -64.5s62.5 -97.167 62.5 -162.5zM581.998 922v-6l-116 -141h-126v7l74 140h168z" />
    <glyph glyph-name="Ocircumflex" unicode="&#xd4;" horiz-adv-x="832" 
d="M794 350c0 112.667 -34.667 202 -104 268s-160.666 99 -273.999 99s-204.666 -33 -273.999 -99s-104 -155.333 -104 -268s34.667 -202 104 -268s160.666 -99 273.999 -99s204.666 33 273.999 99s104 155.333 104 268zM641 350c0 -66 -20.6689 -120.167 -62.002 -162.5
s-95.666 -63.5 -162.999 -63.5c-66 0 -120 21.167 -162 63.5s-63 96.5 -63 162.5c0 64.667 21 118.667 63 162s96 65 162 65c66.667 0 120.834 -21.5 162.501 -64.5s62.5 -97.167 62.5 -162.5zM378.998 920h75l149 -140v-5h-140l-47 42l-46 -42h-141v5z" />
    <glyph glyph-name="Otilde" unicode="&#xd5;" horiz-adv-x="832" 
d="M794 350c0 -112.667 -34.667 -202 -104 -268s-160.666 -99 -273.999 -99s-204.666 33 -273.999 99s-104 155.333 -104 268s34.667 202 104 268s160.666 99 273.999 99s204.666 -33 273.999 -99s104 -155.333 104 -268zM641 350c0 65.333 -20.8311 119.5 -62.498 162.5
s-95.834 64.5 -162.501 64.5c-66 0 -120 -21.667 -162 -65s-63 -97.333 -63 -162c0 -66 21 -120.167 63 -162.5s96 -63.5 162 -63.5c67.333 0 121.666 21.167 162.999 63.5s62 96.5 62 162.5zM317.002 771l-88.999 52.001c38 79.333 88.667 111 152 95
c8 -2 18 -5.83301 30 -11.5l30.5 -14c8.33301 -3.66699 17.166 -6.16699 26.499 -7.5s17.5 0.666992 24.5 6s12.833 14.666 17.5 27.999l93 -47c-36.667 -84 -85 -115.333 -145 -94c-8.66699 2.66699 -20 7.16699 -34 13.5s-25 11 -33 14s-17 4.83301 -27 5.5
s-18.667 -2.33301 -26 -9s-14 -17 -20 -31z" />
    <glyph glyph-name="Odieresis" unicode="&#xd6;" horiz-adv-x="832" 
d="M794 350c0 112.667 -34.667 202 -104 268s-160.666 99 -273.999 99s-204.666 -33 -273.999 -99s-104 -155.333 -104 -268s34.667 -202 104 -268s160.666 -99 273.999 -99s204.666 33 273.999 99s104 155.333 104 268zM641 350c0 -66 -20.6689 -120.167 -62.002 -162.5
s-95.666 -63.5 -162.999 -63.5c-66 0 -120 21.167 -162 63.5s-63 96.5 -63 162.5c0 64.667 21 118.667 63 162s96 65 162 65c66.667 0 120.834 -21.5 162.501 -64.5s62.5 -97.167 62.5 -162.5zM208.998 846c0 24.667 8.33301 44 25 58s34.834 21 54.501 21
s37.834 -7 54.501 -21s25 -33.333 25 -58s-8.33301 -44 -25 -58s-34.834 -21 -54.501 -21s-37.834 7 -54.501 21s-25 33.333 -25 58zM468.998 846c0 24.667 8.33301 44 25 58s34.834 21 54.501 21s37.834 -7 54.501 -21s25 -33.333 25 -58s-8.33301 -44 -25 -58
s-34.834 -21 -54.501 -21s-37.834 7 -54.501 21s-25 33.333 -25 58z" />
    <glyph glyph-name="multiply" unicode="&#xd7;" horiz-adv-x="460" 
d="M148 495l84 -89l89 89l89 -89l-93 -94l92 -91l-89 -85l-90 90l-87 -90l-93 92l89 87l-87 88z" />
    <glyph glyph-name="Oslash" unicode="&#xd8;" horiz-adv-x="798" 
d="M400 715c40 0 82.001 -6.33203 126.001 -18.999l44 71h150l-82 -135c40.667 -35.333 71.5 -78.333 92.5 -129s31.167 -103.334 30.5 -158.001c-0.666992 -46.667 -8.33398 -91 -23.001 -133s-36 -80.333 -64 -115s-65.667 -62.334 -113 -83.001s-101 -31 -161 -31
c-54.667 0 -103 8 -145 24l-47 -77h-149l87 142c-72 69.333 -108 159.666 -108 270.999c0 46.667 7.66699 91.834 23 135.501s37.333 83.334 66 119.001s66.667 64.167 114 85.5s100.333 32 159 32zM400.001 125.001c37.333 0 69.832 6.33301 97.499 19s49 29.834 64 51.501
s26.333 44.667 34 69s11.834 50.166 12.501 77.499c1.33301 64.667 -15 118.667 -49 162l-228 -372c23.333 -4.66699 46.333 -7 69 -7zM400 574.001c-36.667 0 -69.166 -7.1709 -97.499 -21.5039s-50.333 -33.166 -66 -56.499s-27.334 -48.166 -35.001 -74.499
s-11.167 -53.166 -10.5 -80.499c2.66699 -53.333 14 -98.666 34 -135.999l225 365c-21.333 2.66699 -38 4 -50 4z" />
    <glyph glyph-name="Ugrave" unicode="&#xd9;" horiz-adv-x="774" 
d="M551 699l155 -0.000976562v-391c0 -102 -26.5 -180.833 -79.5 -236.5s-126.5 -85.167 -220.5 -88.5c-97.333 -3.33301 -178 23 -242 79s-96 138 -96 246v391h155v-391c0 -62 16.333 -109 49 -141s77.667 -46.667 135 -44c96 6.66699 144 68.334 144 185.001v391z
M223 903.999v6h168l74 -140v-7h-126z" />
    <glyph glyph-name="Uacute" unicode="&#xda;" horiz-adv-x="774" 
d="M706 699l-155 0.000976562v-391c0 -116.667 -48 -178.334 -144 -185.001c-57.333 -2.66699 -102.333 12 -135 44s-49 79 -49 141v391h-155v-391c0 -108 32 -190 96 -246s144.667 -82.333 242 -79c94 3.33301 167.5 32.833 220.5 88.5s79.5 134.5 79.5 236.5v391z
M545 909.001v-6l-116 -141h-126v7l74 140h168z" />
    <glyph glyph-name="Ucircumflex" unicode="&#xdb;" horiz-adv-x="774" 
d="M706 699l-155 0.000976562v-391c0 -116.667 -48 -178.334 -144 -185.001c-57.333 -2.66699 -102.333 12 -135 44s-49 79 -49 141v391h-155v-391c0 -108 32 -190 96 -246s144.667 -82.333 242 -79c94 3.33301 167.5 32.833 220.5 88.5s79.5 134.5 79.5 236.5v391z
M351 913.001h75l149 -140v-5h-140l-47 42l-46 -42h-141v5z" />
    <glyph glyph-name="Udieresis" unicode="&#xdc;" horiz-adv-x="774" 
d="M706 699l-155 0.000976562v-391c0 -116.667 -48 -178.334 -144 -185.001c-57.333 -2.66699 -102.333 12 -135 44s-49 79 -49 141v391h-155v-391c0 -108 32 -190 96 -246s144.667 -82.333 242 -79c94 3.33301 167.5 32.833 220.5 88.5s79.5 134.5 79.5 236.5v391z
M183 839.001c0 24.667 8.33301 44 25 58s34.834 21 54.501 21s37.834 -7 54.501 -21s25 -33.333 25 -58s-8.33301 -44 -25 -58s-34.834 -21 -54.501 -21s-37.834 7 -54.501 21s-25 33.333 -25 58zM443 839.001c0 24.667 8.33301 44 25 58s34.834 21 54.501 21
s37.834 -7 54.501 -21s25 -33.333 25 -58s-8.33301 -44 -25 -58s-34.834 -21 -54.501 -21s-37.834 7 -54.501 21s-25 33.333 -25 58z" />
    <glyph glyph-name="Yacute" unicode="&#xdd;" horiz-adv-x="704" 
d="M352 422l-168 278h-180v-8l268 -414v-278h156v278l280 414v8h-179zM510 913v-6l-116 -141h-126v7l74 140h168z" />
    <glyph glyph-name="Thorn" unicode="&#xde;" horiz-adv-x="686" 
d="M78 0l0.999023 698.998h154v-112h166c42.667 0 81.334 -6.83301 116.001 -20.5s62.5 -31.5 83.5 -53.5s37.333 -47.167 49 -75.5s17.5 -57.166 17.5 -86.499s-5.66699 -58.166 -17 -86.499s-27.666 -53.5 -48.999 -75.5s-49.333 -39.833 -84 -53.5
s-73.334 -20.5 -116.001 -20.5h-165v-115h-156zM233.999 444.998v-191h165c35.333 0 63 10 83 30s30 41.833 30 65.5s-10 45.5 -30 65.5s-47.667 30 -83 30h-165z" />
    <glyph glyph-name="germandbls" unicode="&#xdf;" horiz-adv-x="632" 
d="M270 -1c0 14.667 -0.165039 34.666 -0.498047 59.999s-0.5 45 -0.5 59c31.333 -7.33301 57.666 -9.33301 78.999 -6s38.666 8 51.999 14s23.5 15 30.5 27s11.667 23 14 33s3.5 20.667 3.5 32c0 37.333 -12.667 64.666 -38 81.999s-57 26 -95 26h-44v137h33
c63.333 0 95 18.333 95 55c0 16 -6.16699 29.5 -18.5 40.5s-27.333 17.5 -45 19.5s-35.5 1.5 -53.5 -1.5s-33.5 -10.333 -46.5 -22s-19.833 -26.167 -20.5 -43.5v-511h-154v513c0 35.333 9 67 27 95s41.333 49.333 70 64s60.5 25.834 95.5 33.501s70 8.5 105 2.5
s66.833 -16 95.5 -30s52 -34.833 70 -62.5s27 -59.167 27 -94.5c0 -28.667 -8.5 -55 -25.5 -79s-42.833 -40 -77.5 -48c48.667 -10 86.167 -31.167 112.5 -63.5s39.5 -69.166 39.5 -110.499c0 -49.333 -9 -91 -27 -125s-42 -58.667 -72 -74s-65 -25.333 -105 -30
s-82 -2 -126 8z" />
    <glyph glyph-name="agrave" unicode="&#xe0;" horiz-adv-x="639" 
d="M438 437l4.99902 57h135v-494h-130l-8 62c-15.333 -24 -37.5 -42 -66.5 -54s-57.5 -18.333 -85.5 -19c-75.333 -0.666992 -136.666 22.166 -183.999 68.499s-71 109.5 -71 189.5s24.5 143.333 73.5 190s110.833 69.334 185.5 68.001c32 0 61.167 -6 87.5 -18
s45.833 -28.667 58.5 -50zM306.999 378c-37.333 0 -68.333 -11.833 -93 -35.5s-37 -55.5 -37 -95.5s12.333 -71.667 37 -95s55.667 -35 93 -35c38.667 0 70.167 12.667 94.5 38s36.5 54.333 36.5 87c0 38 -11.5 70.167 -34.5 96.5s-55.167 39.5 -96.5 39.5zM148.999 709v6
h168l74 -140v-7h-126z" />
    <glyph glyph-name="aacute" unicode="&#xe1;" horiz-adv-x="639" 
d="M438 437c-12.667 21.333 -32.166 38 -58.499 50s-55.5 18 -87.5 18c-74.667 1.33301 -136.5 -21.334 -185.5 -68.001s-73.5 -110 -73.5 -190s23.667 -143.167 71 -189.5s108.666 -69.166 183.999 -68.499c28 0.666992 56.5 7 85.5 19s51.167 30 66.5 54l8 -62h130v494
h-135zM307.001 378c41.333 0 73.5 -13.167 96.5 -39.5s34.5 -58.5 34.5 -96.5c0 -32.667 -12.167 -61.667 -36.5 -87s-55.833 -38 -94.5 -38c-37.333 0 -68.333 11.667 -93 35s-37 55 -37 95s12.333 71.833 37 95.5s55.667 35.5 93 35.5zM474.001 715v-6l-116 -141h-126v7
l74 140h168z" />
    <glyph glyph-name="acircumflex" unicode="&#xe2;" horiz-adv-x="639" 
d="M438 437c-12.667 21.333 -32.166 38 -58.499 50s-55.5 18 -87.5 18c-74.667 1.33301 -136.5 -21.334 -185.5 -68.001s-73.5 -110 -73.5 -190s23.667 -143.167 71 -189.5s108.666 -69.166 183.999 -68.499c28 0.666992 56.5 7 85.5 19s51.167 30 66.5 54l8 -62h130v494
h-135zM307.001 378c41.333 0 73.5 -13.167 96.5 -39.5s34.5 -58.5 34.5 -96.5c0 -32.667 -12.167 -61.667 -36.5 -87s-55.833 -38 -94.5 -38c-37.333 0 -68.333 11.667 -93 35s-37 55 -37 95s12.333 71.833 37 95.5s55.667 35.5 93 35.5zM276.001 714h75l149 -140v-5h-140
l-47 42l-46 -42h-141v5z" />
    <glyph glyph-name="atilde" unicode="&#xe3;" horiz-adv-x="639" 
d="M211 575l-85 53.999c38.667 79.333 88.667 109.666 150 90.999c8 -2 23 -8.83301 45 -20.5s38.833 -16.5 50.5 -14.5s21.5 13 29.5 33l89 -48c-36 -82.667 -83.333 -112.667 -142 -90c-8.66699 2.66699 -19.667 7.33398 -33 14.001s-24 11.5 -32 14.5
s-16.667 4.83301 -26 5.5s-17.833 -2.16602 -25.5 -8.49902s-14.5 -16.5 -20.5 -30.5zM438 436.999l4.99902 57h135v-494h-130l-8 62c-15.333 -24 -37.5 -42 -66.5 -54s-57.5 -18.333 -85.5 -19c-75.333 -0.666992 -136.666 22.166 -183.999 68.499s-71 109.5 -71 189.5
s24.5 143.333 73.5 190s110.833 69.334 185.5 68.001c32 0 61.167 -6 87.5 -18s45.833 -28.667 58.5 -50zM306.999 377.999c-37.333 0 -68.333 -11.833 -93 -35.5s-37 -55.5 -37 -95.5s12.333 -71.667 37 -95s55.667 -35 93 -35c38.667 0 70.167 12.667 94.5 38
s36.5 54.333 36.5 87c0 38 -11.5 70.167 -34.5 96.5s-55.167 39.5 -96.5 39.5z" />
    <glyph glyph-name="adieresis" unicode="&#xe4;" horiz-adv-x="639" 
d="M438 437c-12.667 21.333 -32.166 38 -58.499 50s-55.5 18 -87.5 18c-74.667 1.33301 -136.5 -21.334 -185.5 -68.001s-73.5 -110 -73.5 -190s23.667 -143.167 71 -189.5s108.666 -69.166 183.999 -68.499c28 0.666992 56.5 7 85.5 19s51.167 30 66.5 54l8 -62h130v494
h-135zM307.001 378c41.333 0 73.5 -13.167 96.5 -39.5s34.5 -58.5 34.5 -96.5c0 -32.667 -12.167 -61.667 -36.5 -87s-55.833 -38 -94.5 -38c-37.333 0 -68.333 11.667 -93 35s-37 55 -37 95s12.333 71.833 37 95.5s55.667 35.5 93 35.5zM109.001 655
c0 24.667 8.33301 44 25 58s34.834 21 54.501 21s37.834 -7 54.501 -21s25 -33.333 25 -58s-8.33301 -44 -25 -58s-34.834 -21 -54.501 -21s-37.834 7 -54.501 21s-25 33.333 -25 58zM369.001 655c0 24.667 8.33301 44 25 58s34.834 21 54.501 21s37.834 -7 54.501 -21
s25 -33.333 25 -58s-8.33301 -44 -25 -58s-34.834 -21 -54.501 -21s-37.834 7 -54.501 21s-25 33.333 -25 58z" />
    <glyph glyph-name="aring" unicode="&#xe5;" horiz-adv-x="639" 
d="M438 437l4.99902 57h135v-494h-130l-8 62c-15.333 -24 -37.5 -42 -66.5 -54s-57.5 -18.333 -85.5 -19c-75.333 -0.666992 -136.666 22.166 -183.999 68.499s-71 109.5 -71 189.5s24.5 143.333 73.5 190s110.833 69.334 185.5 68.001c32 0 61.167 -6 87.5 -18
s45.833 -28.667 58.5 -50zM306.999 378c-37.333 0 -68.333 -11.833 -93 -35.5s-37 -55.5 -37 -95.5s12.333 -71.667 37 -95s55.667 -35 93 -35c38.667 0 70.167 12.667 94.5 38s36.5 54.333 36.5 87c0 38 -11.5 70.167 -34.5 96.5s-55.167 39.5 -96.5 39.5zM230.999 663
c0 40 14 69.5 42 88.5s61.667 28.5 101 28.5c37.333 0 69.166 -9.66699 95.499 -29s39.5 -48.666 39.5 -87.999c0 -36 -13.667 -64 -41 -84s-58.666 -30 -93.999 -30c-38.667 0 -72.167 9.16699 -100.5 27.5s-42.5 47.166 -42.5 86.499zM370.999 712
c-23.333 0 -39.665 -7.83301 -48.998 -23.5s-9.33301 -31.334 0 -47.001s25.666 -23.5 48.999 -23.5c24 0 40.5 7.83301 49.5 23.5s8.66699 31.334 -1 47.001s-25.834 23.5 -48.501 23.5z" />
    <glyph glyph-name="ae" unicode="&#xe6;" horiz-adv-x="963" 
d="M930 205l-366.001 -0.000976562c7.33301 -30 23.833 -53.333 49.5 -70s54.834 -25 87.501 -25c49.333 0 90 13.667 122 41l77 -92c-46 -50 -112.333 -75 -199 -75c-70.667 0 -122 23 -154 69l-6 -53h-105l-1 62c-10 -23.333 -30.167 -41.166 -60.5 -53.499
s-59.833 -18.833 -88.5 -19.5c-78 -0.666992 -139.667 20.5 -185 63.5s-68 107.833 -68 194.5c0 80 24.5 143 73.5 189s108.167 69 177.5 69c66.667 0 116.667 -22.667 150 -68l5 56h108v-50c36.667 43.333 90.667 65 162 65c72.667 0 132.167 -28 178.5 -84
s60.5 -129 42.5 -219zM305.999 378.999c-37.333 0 -68.166 -11.668 -92.499 -35.001s-36.5 -55.666 -36.5 -96.999s12.167 -73.833 36.5 -97.5s55.166 -35.5 92.499 -35.5c42 0 74.833 13.833 98.5 41.5s35.5 58 35.5 91s-11.833 63.333 -35.5 91s-56.5 41.5 -98.5 41.5z
M566.999 310.998h230c-3.33301 24 -14 42.167 -32 54.5s-39 18.5 -63 18.5c-68 0 -113 -24.333 -135 -73z" />
    <glyph glyph-name="ccedilla" unicode="&#xe7;" horiz-adv-x="509" 
d="M143 -190l59 58.001c12 -14.667 32 -23.834 60 -27.501s45.667 3.83301 53 22.5c4.66699 18 -4 31.5 -26 40.5s-43.333 7.16699 -64 -5.5l-28 19l31 79c-58.667 12 -105.834 39.167 -141.501 81.5s-53.5 98.5 -53.5 168.5c0 80 26 143.333 78 190s115.667 70 191 70
c76 0 135.667 -22.667 179 -68l-80 -91c-25.333 19.333 -56.333 29 -93 29c-37.333 0 -68.333 -11.667 -93 -35s-37 -55 -37 -95c0 -38 12.333 -68.333 37 -91s54.667 -34 90 -34c17.333 0 35.5 3.33301 54.5 10s34.167 15.667 45.5 27l91 -94
c-44.667 -44 -100.667 -69 -168 -75l-12 -28c23.333 -2 43 -7.16699 59 -15.5s27 -18 33 -29s10.333 -22.667 13 -35s2.33398 -23.166 -0.999023 -32.499c-5.33301 -41.333 -26 -70.833 -62 -88.5s-75 -21.334 -117 -11.001s-74.667 30.5 -98 60.5z" />
    <glyph glyph-name="egrave" unicode="&#xe8;" horiz-adv-x="577" 
d="M542 200l-362.999 -0.000976562c4 -25.333 17.667 -46.166 41 -62.499s54.333 -24.5 93 -24.5c55.333 0 98 13 128 39l81 -90c-49.333 -48.667 -120 -73 -212 -73c-88 0 -156.167 23.667 -204.5 71s-72.5 111.333 -72.5 192c0 76 23.667 137.5 71 184.5
s111 70.5 191 70.5c87.333 0 154.166 -26.667 200.499 -80s61.833 -129 46.5 -227zM179.001 304.999h234.001c-1.33301 25.333 -13.333 44.833 -36 58.5s-50 20.5 -82 20.5c-28.667 0 -53.334 -7 -74.001 -21s-34.667 -33.333 -42 -58zM139.002 710.999v6h168l74 -140v-7
h-126z" />
    <glyph glyph-name="eacute" unicode="&#xe9;" horiz-adv-x="577" 
d="M542 200l-362.999 -0.000976562c4 -25.333 17.667 -46.166 41 -62.499s54.333 -24.5 93 -24.5c55.333 0 98 13 128 39l81 -90c-49.333 -48.667 -120 -73 -212 -73c-88 0 -156.167 23.667 -204.5 71s-72.5 111.333 -72.5 192c0 76 23.667 137.5 71 184.5
s111 70.5 191 70.5c87.333 0 154.166 -26.667 200.499 -80s61.833 -129 46.5 -227zM179.001 304.999h234.001c-1.33301 25.333 -13.333 44.833 -36 58.5s-50 20.5 -82 20.5c-28.667 0 -53.334 -7 -74.001 -21s-34.667 -33.333 -42 -58zM452.002 711.999v-6l-116 -141h-126v7
l74 140h168z" />
    <glyph glyph-name="ecircumflex" unicode="&#xea;" horiz-adv-x="577" 
d="M542 200l-362.999 -0.000976562c4 -25.333 17.667 -46.166 41 -62.499s54.333 -24.5 93 -24.5c55.333 0 98 13 128 39l81 -90c-49.333 -48.667 -120 -73 -212 -73c-88 0 -156.167 23.667 -204.5 71s-72.5 111.333 -72.5 192c0 76 23.667 137.5 71 184.5
s111 70.5 191 70.5c87.333 0 154.166 -26.667 200.499 -80s61.833 -129 46.5 -227zM179.001 304.999h234.001c-1.33301 25.333 -13.333 44.833 -36 58.5s-50 20.5 -82 20.5c-28.667 0 -53.334 -7 -74.001 -21s-34.667 -33.333 -42 -58zM258.002 718.999h75l149 -140v-5h-140
l-47 42l-46 -42h-141v5z" />
    <glyph glyph-name="edieresis" unicode="&#xeb;" horiz-adv-x="577" 
d="M104 642c0 31.333 12.833 53.5 38.5 66.5s51.334 13 77.001 0s38.5 -35.167 38.5 -66.5s-12.833 -53.333 -38.5 -66s-51.334 -12.667 -77.001 0s-38.5 34.667 -38.5 66zM337 642c0 31.333 12.833 53.5 38.5 66.5s51.334 13 77.001 0s38.5 -35.167 38.5 -66.5
s-12.833 -53.333 -38.5 -66s-51.334 -12.667 -77.001 0s-38.5 34.667 -38.5 66zM542 200l-362.999 -0.000976562c4 -25.333 17.667 -46.166 41 -62.499s54.333 -24.5 93 -24.5c55.333 0 98 13 128 39l81 -90c-49.333 -48.667 -120 -73 -212 -73
c-88 0 -156.167 23.667 -204.5 71s-72.5 111.333 -72.5 192c0 76 23.667 137.5 71 184.5s111 70.5 191 70.5c87.333 0 154.166 -26.667 200.499 -80s61.833 -129 46.5 -227zM179.001 304.999h234.001c-1.33301 25.333 -13.333 44.833 -36 58.5s-50 20.5 -82 20.5
c-28.667 0 -53.334 -7 -74.001 -21s-34.667 -33.333 -42 -58z" />
    <glyph glyph-name="igrave" unicode="&#xec;" horiz-adv-x="267" 
d="M2 693v6h157l49 -141v-7h-124zM206 0h-145v494h145v-494z" />
    <glyph glyph-name="iacute" unicode="&#xed;" horiz-adv-x="267" 
d="M266 699v-6l-82 -142h-124v7l49 141h157zM61 0h145v494h-145v-494z" />
    <glyph glyph-name="icircumflex" unicode="&#xee;" horiz-adv-x="267" 
d="M61 0h145v494h-145v-494zM100 712h67l131 -150v-5h-123l-42 44l-40 -44h-125v5z" />
    <glyph glyph-name="idieresis" unicode="&#xef;" horiz-adv-x="267" 
d="M-29 633c0 30.667 12.333 52.334 37 65.001s49.5 12.667 74.5 0s37.5 -34.334 37.5 -65.001s-12.333 -52.334 -37 -65.001s-49.5 -12.667 -74.5 0s-37.5 34.334 -37.5 65.001zM163 633c0 30.667 12.333 52.334 37 65.001s49.5 12.667 74.5 0s37.5 -34.334 37.5 -65.001
s-12.333 -52.334 -37 -65.001s-49.5 -12.667 -74.5 0s-37.5 34.334 -37.5 65.001zM61 0h145v494h-145v-494z" />
    <glyph glyph-name="eth" unicode="&#xf0;" horiz-adv-x="580" 
d="M302 660l50.9971 57.002l84 -67l-42 -47c52.667 -42.667 91.334 -94.834 116.001 -156.501s35.334 -127.167 32.001 -196.5c-3.33301 -78 -27.166 -140.5 -71.499 -187.5s-105.166 -70.5 -182.499 -70.5c-80.667 0 -143.5 24.167 -188.5 72.5
s-67.5 106.166 -67.5 173.499c0 54.667 15.833 104.167 47.5 148.5s76.167 73.833 133.5 88.5c65.333 12 116.666 4.66699 153.999 -22c-23.333 40 -58 71.667 -104 95s-92.333 38.333 -139 45l24 109c56.667 -8 107.667 -22 153 -42zM288.997 119.002
c34 0 60.832 11.168 80.499 33.501s30.834 51.166 33.501 86.499c2.66699 33.333 -6.83301 61.333 -28.5 84s-50.167 34 -85.5 34c-34 0 -61.167 -11.833 -81.5 -35.5s-30.5 -51.167 -30.5 -82.5c0 -32 10.167 -60 30.5 -84s47.5 -36 81.5 -36z" />
    <glyph glyph-name="ntilde" unicode="&#xf1;" 
d="M562 0h-144.999v261c0 76.667 -34 115 -102 115c-32.667 0.666992 -59.5 -11 -80.5 -35s-31.5 -52.667 -31.5 -86v-255h-142v494h130l5 -63c39.333 51.333 92.666 76.333 159.999 75c137.333 0 206 -81.333 206 -244v-262zM217.001 580l-81.998 48.998
c34.667 74 81.334 103.333 140.001 88c7.33301 -2 16.5 -5.5 27.5 -10.5l28 -12.5c7.66699 -3.33301 15.667 -5.83301 24 -7.5s15.666 0.166016 21.999 5.49902s11.833 14 16.5 26l86 -43c-34 -78.667 -78.667 -108 -134 -88c-8 2.66699 -18.333 6.83398 -31 12.501
s-22.834 9.83398 -30.501 12.501s-15.834 4.33398 -24.501 5.00098s-16.5 -2 -23.5 -8s-13.167 -15.667 -18.5 -29z" />
    <glyph glyph-name="ograve" unicode="&#xf2;" horiz-adv-x="605" 
d="M302 -11c-82 0 -147.501 23.833 -196.501 71.5s-73.5 109.5 -73.5 185.5c0 75.333 24.833 137.333 74.5 186s114.834 73 195.501 73c81.333 0 146.833 -24.333 196.5 -73s74.5 -110.667 74.5 -186c0 -76 -24.5 -137.833 -73.5 -185.5s-114.833 -71.5 -197.5 -71.5z
M301.999 117c41.333 0 72.5 12.501 93.5 37.501s31.5 55.5 31.5 91.5c0 34.667 -10.667 65 -32 91s-52.333 39 -93 39c-40 0 -70.667 -13 -92 -39s-32 -56.333 -32 -91s10.5 -64.834 31.5 -90.501s51.833 -38.5 92.5 -38.5zM141.999 704.001v6h168l74 -140v-7h-126z" />
    <glyph glyph-name="oacute" unicode="&#xf3;" horiz-adv-x="605" 
d="M302 -11c82.667 0 148.501 23.833 197.501 71.5s73.5 109.5 73.5 185.5c0 75.333 -24.833 137.333 -74.5 186s-115.167 73 -196.5 73c-80.667 0 -145.834 -24.333 -195.501 -73s-74.5 -110.667 -74.5 -186c0 -76 24.5 -137.833 73.5 -185.5s114.5 -71.5 196.5 -71.5z
M302.001 117c-40.667 0 -71.5 12.832 -92.5 38.499s-31.5 55.834 -31.5 90.501s10.667 65 32 91s52 39 92 39c40.667 0 71.667 -13 93 -39s32 -56.333 32 -91c0 -36 -10.5 -66.5 -31.5 -91.5s-52.167 -37.5 -93.5 -37.5zM475.001 711.999v-6l-116 -141h-126v7l74 140h168z
" />
    <glyph glyph-name="ocircumflex" unicode="&#xf4;" horiz-adv-x="605" 
d="M302 -11c82.667 0 148.501 23.833 197.501 71.5s73.5 109.5 73.5 185.5c0 75.333 -24.833 137.333 -74.5 186s-115.167 73 -196.5 73c-80.667 0 -145.834 -24.333 -195.501 -73s-74.5 -110.667 -74.5 -186c0 -76 24.5 -137.833 73.5 -185.5s114.5 -71.5 196.5 -71.5z
M302.001 117c-40.667 0 -71.5 12.832 -92.5 38.499s-31.5 55.834 -31.5 90.501s10.667 65 32 91s52 39 92 39c40.667 0 71.667 -13 93 -39s32 -56.333 32 -91c0 -36 -10.5 -66.5 -31.5 -91.5s-52.167 -37.5 -93.5 -37.5zM264.001 713.999h75l149 -140v-5h-140l-47 42
l-46 -42h-141v5z" />
    <glyph glyph-name="otilde" unicode="&#xf5;" horiz-adv-x="605" 
d="M302 -11c-82 0 -147.501 23.833 -196.501 71.5s-73.5 109.5 -73.5 185.5c0 75.333 24.833 137.333 74.5 186s114.834 73 195.501 73c81.333 0 146.833 -24.333 196.5 -73s74.5 -110.667 74.5 -186c0 -76 -24.5 -137.833 -73.5 -185.5s-114.833 -71.5 -197.5 -71.5z
M301.999 117c41.333 0 72.5 12.501 93.5 37.501s31.5 55.5 31.5 91.5c0 34.667 -10.667 65 -32 91s-52.333 39 -93 39c-40 0 -70.667 -13 -92 -39s-32 -56.333 -32 -91s10.5 -64.834 31.5 -90.501s51.833 -38.5 92.5 -38.5zM203.999 575.001l-85 50c36 76 84.333 106 145 90
c8.66699 -2 20.5 -6.5 35.5 -13.5s27 -12.167 36 -15.5s18.5 -3 28.5 1s17.667 13.667 23 29l89 -44c-34.667 -80.667 -81 -110.667 -139 -90c-8.66699 2.66699 -19.5 7 -32.5 13s-23.333 10.333 -31 13s-16.167 4.5 -25.5 5.5s-17.5 -1.83301 -24.5 -8.5
s-13.5 -16.667 -19.5 -30z" />
    <glyph glyph-name="odieresis" unicode="&#xf6;" horiz-adv-x="605" 
d="M106 640c0 24.667 8.33301 44 25 58s34.834 21 54.501 21s37.834 -7 54.501 -21s25 -33.333 25 -58s-8.33301 -44 -25 -58s-34.834 -21 -54.501 -21s-37.834 7 -54.501 21s-25 33.333 -25 58zM344 640c0 24.667 8.33301 44 25 58s34.834 21 54.501 21
s37.834 -7 54.501 -21s25 -33.333 25 -58s-8.33301 -44 -25 -58s-34.834 -21 -54.501 -21s-37.834 7 -54.501 21s-25 33.333 -25 58zM302 -11c82.667 0 148.501 23.833 197.501 71.5s73.5 109.5 73.5 185.5c0 75.333 -24.833 137.333 -74.5 186s-115.167 73 -196.5 73
c-80.667 0 -145.834 -24.333 -195.501 -73s-74.5 -110.667 -74.5 -186c0 -76 24.5 -137.833 73.5 -185.5s114.5 -71.5 196.5 -71.5zM302.001 117c-40.667 0 -71.5 12.832 -92.5 38.499s-31.5 55.834 -31.5 90.501s10.667 65 32 91s52 39 92 39c40.667 0 71.667 -13 93 -39
s32 -56.333 32 -91c0 -36 -10.5 -66.5 -31.5 -91.5s-52.167 -37.5 -93.5 -37.5z" />
    <glyph glyph-name="divide" unicode="&#xf7;" horiz-adv-x="552" 
d="M46 382v-129h460v129h-460zM197 132c0 33.333 13.168 56.833 39.501 70.5s52.666 13.667 78.999 0s39.5 -37.167 39.5 -70.5c0 -24.667 -8.16699 -44 -24.5 -58s-34.5 -21 -54.5 -21s-38.167 7 -54.5 21s-24.5 33.333 -24.5 58zM197.001 507
c0 33.333 13.168 56.833 39.501 70.5s52.666 13.667 78.999 0s39.5 -37.167 39.5 -70.5c0 -24.667 -8.16699 -44 -24.5 -58s-34.5 -21 -54.5 -21s-38.167 7 -54.5 21s-24.5 33.333 -24.5 58z" />
    <glyph glyph-name="oslash" unicode="&#xf8;" horiz-adv-x="605" 
d="M302 -11c-30.667 0 -58.001 3.33301 -82.001 10l-31 -54h-126l59 101c-60 47.333 -90 114 -90 200c0 75.333 24.833 137.5 74.5 186.5s114.834 73.5 195.501 73.5c28.667 0 56.667 -3.66699 84 -11l33 56h126l-62 -105c60 -49.333 90 -116 90 -200
c0 -76 -24.5 -137.833 -73.5 -185.5s-114.833 -71.5 -197.5 -71.5zM301.999 376c-40 0 -70.667 -13.001 -92 -39.001s-32 -56.333 -32 -91c0 -27.333 6.33301 -51.666 19 -72.999l119 202c-3.33301 0.666992 -8 1 -14 1zM289.999 116.999h12c41.333 0 72.5 12.5 93.5 37.5
s31.5 55.5 31.5 91.5c0 26.667 -6.33301 50.667 -19 72z" />
    <glyph glyph-name="ugrave" unicode="&#xf9;" 
d="M54 494h145v-261c0 -76.667 34 -115 102 -115c32.667 -0.666992 59.5 11 80.5 35s31.5 52.667 31.5 86v255h142v-494h-130l-5 65c-38 -51.333 -91.333 -76.333 -160 -75c-137.333 0 -206 80.667 -206 242v262zM141 700v6h168l74 -140v-7h-126z" />
    <glyph glyph-name="uacute" unicode="&#xfa;" 
d="M199 494h-145v-262c0 -161.333 68.667 -242 206 -242c68.667 -1.33301 122 23.667 160 75l5 -65h130v494h-142v-255c0 -33.333 -10.5 -62 -31.5 -86s-47.833 -35.667 -80.5 -35c-68 0 -102 38.333 -102 115v261zM468 710v-6l-116 -141h-126v7l74 140h168z" />
    <glyph glyph-name="ucircumflex" unicode="&#xfb;" 
d="M199 494h-145v-262c0 -161.333 68.667 -242 206 -242c68.667 -1.33301 122 23.667 160 75l5 -65h130v494h-142v-255c0 -33.333 -10.5 -62 -31.5 -86s-47.833 -35.667 -80.5 -35c-68 0 -102 38.333 -102 115v261zM265 712h75l149 -140v-5h-140l-47 42l-46 -42h-141v5z" />
    <glyph glyph-name="udieresis" unicode="&#xfc;" 
d="M199 494h-145v-262c0 -161.333 68.667 -242 206 -242c68.667 -1.33301 122 23.667 160 75l5 -65h130v494h-142v-255c0 -33.333 -10.5 -62 -31.5 -86s-47.833 -35.667 -80.5 -35c-68 0 -102 38.333 -102 115v261zM95 643c0 31.333 13.333 53.5 40 66.5s53.334 13 80.001 0
s40 -35.167 40 -66.5s-13.333 -53.333 -40 -66s-53.334 -12.667 -80.001 0s-40 34.667 -40 66zM356 643c0 31.333 13.335 53.5 40.002 66.5s53.167 13 79.5 0s39.5 -35.167 39.5 -66.5c0 -23.333 -8.33301 -41.666 -25 -54.999s-34.834 -20 -54.501 -20
s-37.834 6.66699 -54.501 20s-25 31.666 -25 54.999z" />
    <glyph glyph-name="yacute" unicode="&#xfd;" horiz-adv-x="573" 
d="M568 494h-159l-121 -311l-123 311h-162l207 -479l-102 -237h157zM441 708v-6l-116 -141h-126v7l74 140h168z" />
    <glyph glyph-name="thorn" unicode="&#xfe;" horiz-adv-x="639" 
d="M340 126c34.667 0 63.667 11 87 33s35 51 35 87s-11.667 65 -35 87s-52.333 33 -87 33c-32.667 0 -61.167 -12 -85.5 -36s-36.5 -52 -36.5 -84s12.167 -60 36.5 -84s52.833 -36 85.5 -36zM205 -206l-144.002 0.000976562v906h144v-259c14 20.667 35.333 36.5 64 47.5
s55.667 16.5 81 16.5c76 0.666992 137.5 -21.333 184.5 -66s70.5 -109 70.5 -193c0 -83.333 -22.667 -147.333 -68 -192s-105.666 -67 -180.999 -67c-26.667 0 -54.167 5.16699 -82.5 15.5s-51.166 27.166 -68.499 50.499v-259z" />
    <glyph glyph-name="ydieresis" unicode="&#xff;" horiz-adv-x="573" 
d="M568 494h-159l-121 -311l-123 311h-162l207 -479l-102 -237h157zM82 648c0 24.667 8.33301 44 25 58s34.834 21 54.501 21s37.834 -7 54.501 -21s25 -33.333 25 -58s-8.33301 -44 -25 -58s-34.834 -21 -54.501 -21s-37.834 7 -54.501 21s-25 33.333 -25 58zM342 648
c0 24.667 8.33301 44 25 58s34.834 21 54.501 21s37.834 -7 54.501 -21s25 -33.333 25 -58s-8.33301 -44 -25 -58s-34.834 -21 -54.501 -21s-37.834 7 -54.501 21s-25 33.333 -25 58z" />
    <glyph glyph-name="Amacron" unicode="&#x100;" horiz-adv-x="790" 
d="M625 0l-51 120h-359l-51 -120h-168l314 700h170l314 -700h-169zM515 258l-120 284l-121 -284h241zM216 763v119h359v-119h-359z" />
    <glyph glyph-name="amacron" unicode="&#x101;" horiz-adv-x="639" 
d="M438 437l4.99902 57h135v-494h-130l-8 62c-15.333 -24 -37.5 -42 -66.5 -54s-57.5 -18.333 -85.5 -19c-75.333 -0.666992 -136.666 22.166 -183.999 68.499s-71 109.5 -71 189.5s24.5 143.333 73.5 190s110.833 69.334 185.5 68.001c32 0 61.167 -6 87.5 -18
s45.833 -28.667 58.5 -50zM306.999 378c-37.333 0 -68.333 -11.833 -93 -35.5s-37 -55.5 -37 -95.5s12.333 -71.667 37 -95s55.667 -35 93 -35c38.667 0 70.167 12.667 94.5 38s36.5 54.333 36.5 87c0 38 -11.5 70.167 -34.5 96.5s-55.167 39.5 -96.5 39.5zM141.999 586v119
h359v-119h-359z" />
    <glyph glyph-name="Abreve" unicode="&#x102;" horiz-adv-x="790" 
d="M625 0l-51 120h-359l-51 -120h-168l314 700h170l314 -700h-169zM515 258l-120 284l-121 -284h241zM442 905l120 -0.000976562c2 -44 -12.833 -79.667 -44.5 -107s-71.5 -41 -119.5 -41s-89.167 13 -123.5 39s-48.833 62.333 -43.5 109h120
c0 -15.333 5.16699 -26.166 15.5 -32.499s20.833 -9.5 31.5 -9.5c29.333 0 44 14 44 42z" />
    <glyph glyph-name="abreve" unicode="&#x103;" horiz-adv-x="639" 
d="M438 437l4.99902 57h135v-494h-130l-8 62c-15.333 -24 -37.5 -42 -66.5 -54s-57.5 -18.333 -85.5 -19c-75.333 -0.666992 -136.666 22.166 -183.999 68.499s-71 109.5 -71 189.5s24.5 143.333 73.5 190s110.833 69.334 185.5 68.001c32 0 61.167 -6 87.5 -18
s45.833 -28.667 58.5 -50zM306.999 378c-37.333 0 -68.333 -11.833 -93 -35.5s-37 -55.5 -37 -95.5s12.333 -71.667 37 -95s55.667 -35 93 -35c38.667 0 70.167 12.667 94.5 38s36.5 54.333 36.5 87c0 38 -11.5 70.167 -34.5 96.5s-55.167 39.5 -96.5 39.5zM370.999 714
h118.998c2 -42.667 -12.667 -77.167 -44 -103.5s-70.666 -39.5 -117.999 -39.5s-88.166 12.667 -122.499 38s-48.833 60.333 -43.5 105h120c0 -26.667 15.333 -40 46 -40c28.667 0 43 13.333 43 40z" />
    <glyph glyph-name="Aogonek" unicode="&#x104;" horiz-adv-x="793" 
d="M508 265l-113 259l-112 -259h225zM729 -69l70.999 -55.999c-25.333 -33.333 -60.666 -53 -105.999 -59c-32 -4.66699 -61.667 -1.83398 -89 8.49902s-47.666 25.333 -60.999 45s-21.666 40.667 -24.999 63s2.16699 44.333 16.5 66s36.5 38.834 66.5 51.501l-31 70h-351
l-55 -120h-169l314 700h170l317 -700c-43.333 2 -81.333 1.33301 -114 -2c-20.667 -2 -34.834 -10.167 -42.501 -24.5s-7 -27.833 2 -40.5s23.5 -18.334 43.5 -17.001c13.333 1.33301 27.666 6.33301 42.999 15z" />
    <glyph glyph-name="aogonek" unicode="&#x105;" horiz-adv-x="640" 
d="M561 -120l71.001 -55.0029c-20.667 -33.333 -56.334 -53.666 -107.001 -60.999c-36.667 -4.66699 -71.167 1.33301 -103.5 18s-52.166 42.667 -59.499 78c-10 64 19.333 111 88 141l-13 61c-10 -24 -30.333 -43.167 -61 -57.5s-59.667 -21.5 -87 -21.5
c-76.667 -1.33301 -138.334 20.5 -185.001 65.5s-70 111.167 -70 198.5c0 84.667 24 149 72 193s110.333 66 187 66c30.667 0 59.334 -6.5 86.001 -19.5s46 -29.5 58 -49.5l5 56h137v-546c-18 4.66699 -41.833 3.16699 -71.5 -4.5s-44.5 -23.167 -44.5 -46.5
c0 -12 4.33301 -21.667 13 -29s20.667 -10.166 36 -8.49902s31.666 8.83398 48.999 21.501zM308.001 378.997c-37.333 0 -68.333 -11.668 -93 -35.001s-37 -55.666 -37 -96.999s12.333 -73.833 37 -97.5s55.667 -35.5 93 -35.5c32 0 58.833 9.16699 80.5 27.5
s35 40.333 40 66s5 51.5 0 77.5s-18.333 48.167 -40 66.5s-48.5 27.5 -80.5 27.5z" />
    <glyph glyph-name="Cacute" unicode="&#x106;" horiz-adv-x="696" 
d="M681 85l-97.002 107.998c-20 -20 -46.333 -36.167 -79 -48.5s-63.667 -18.5 -93 -18.5c-39.333 0 -73.666 6.5 -102.999 19.5s-52.166 30.333 -68.499 52s-28.5 44.667 -36.5 69s-12 50.166 -12 77.499c0 26.667 4 52.834 12 78.501s20.5 49.667 37.5 72
s40.167 40.333 69.5 54s63 20.5 101 20.5c66.667 0 119.667 -19.333 159 -58l98 97c-73.333 72 -159 108 -257 108c-62 0 -117.5 -10.667 -166.5 -32s-88.333 -50 -118 -86s-52 -75.5 -67 -118.5s-22.5 -87.833 -22.5 -134.5c0 -49.333 7.16699 -95.166 21.5 -137.499
s36 -80.666 65 -114.999s68 -61.333 117 -81s105.833 -29.5 170.5 -29.5c110 0 199.667 34.333 269 103zM558.998 911.998v-5l-110 -135h-120v7l71 133h159z" />
    <glyph glyph-name="cacute" unicode="&#x107;" horiz-adv-x="508" 
d="M495 65l-90.998 94c-11.333 -11.333 -26.5 -20.333 -45.5 -27s-37.167 -10 -54.5 -10c-35.333 0 -65.333 11.167 -90 33.5s-37 52.5 -37 90.5c0 40 12.333 71.5 37 94.5s55.667 34.5 93 34.5c36.667 0 67.667 -9.66699 93 -29l80 91c-43.333 45.333 -103 68 -179 68
c-75.333 0 -139 -23.167 -191 -69.5s-78 -109.5 -78 -189.5c0 -84.667 25.667 -148.667 77 -192s115.666 -65 192.999 -65s141.666 25.333 192.999 76zM426.002 699v-6l-102 -123h-111v6l65 123h148z" />
    <glyph glyph-name="Ccircumflex" unicode="&#x108;" horiz-adv-x="696" 
d="M370 924h72l144 -135v-5h-140l-40 35l-41 -35h-140v5zM681 85l-97.002 107.998c-20 -20 -46.333 -36.167 -79 -48.5s-63.667 -18.5 -93 -18.5c-39.333 0 -73.666 6.5 -102.999 19.5s-52.166 30.333 -68.499 52s-28.5 44.667 -36.5 69s-12 50.166 -12 77.499
c0 26.667 4 52.834 12 78.501s20.5 49.667 37.5 72s40.167 40.333 69.5 54s63 20.5 101 20.5c66.667 0 119.667 -19.333 159 -58l98 97c-73.333 72 -159 108 -257 108c-62 0 -117.5 -10.667 -166.5 -32s-88.333 -50 -118 -86s-52 -75.5 -67 -118.5
s-22.5 -87.833 -22.5 -134.5c0 -49.333 7.16699 -95.166 21.5 -137.499s36 -80.666 65 -114.999s68 -61.333 117 -81s105.833 -29.5 170.5 -29.5c110 0 199.667 34.333 269 103z" />
    <glyph glyph-name="ccircumflex" unicode="&#x109;" horiz-adv-x="508" 
d="M495 65l-90.998 94c-11.333 -11.333 -26.5 -20.333 -45.5 -27s-37.167 -10 -54.5 -10c-35.333 0 -65.333 11.167 -90 33.5s-37 52.5 -37 90.5c0 40 12.333 71.5 37 94.5s55.667 34.5 93 34.5c36.667 0 67.667 -9.66699 93 -29l80 91c-43.333 45.333 -103 68 -179 68
c-75.333 0 -139 -23.167 -191 -69.5s-78 -109.5 -78 -189.5c0 -84.667 25.667 -148.667 77 -192s115.666 -65 192.999 -65s141.666 25.333 192.999 76zM255.002 705h70l138 -130v-4h-130l-44 39l-42 -39h-131v4z" />
    <glyph glyph-name="Cdotaccent" unicode="&#x10a;" horiz-adv-x="696" 
d="M681 85l-97.002 107.998c-20 -20 -46.333 -36.167 -79 -48.5s-63.667 -18.5 -93 -18.5c-39.333 0 -73.666 6.5 -102.999 19.5s-52.166 30.333 -68.499 52s-28.5 44.667 -36.5 69s-12 50.166 -12 77.499c0 26.667 4 52.834 12 78.501s20.5 49.667 37.5 72
s40.167 40.333 69.5 54s63 20.5 101 20.5c66.667 0 119.667 -19.333 159 -58l98 97c-73.333 72 -159 108 -257 108c-62 0 -117.5 -10.667 -166.5 -32s-88.333 -50 -118 -86s-52 -75.5 -67 -118.5s-22.5 -87.833 -22.5 -134.5c0 -49.333 7.16699 -95.166 21.5 -137.499
s36 -80.666 65 -114.999s68 -61.333 117 -81s105.833 -29.5 170.5 -29.5c110 0 199.667 34.333 269 103zM307.998 853.998c0 24 8.83301 42.833 26.5 56.5s37 20.5 58 20.5s40.333 -6.83301 58 -20.5s26.5 -32.5 26.5 -56.5s-8.83301 -42.667 -26.5 -56s-37 -20 -58 -20
s-40.333 6.66699 -58 20s-26.5 32 -26.5 56z" />
    <glyph glyph-name="cdotaccent" unicode="&#x10b;" horiz-adv-x="508" 
d="M495 65l-90.998 94c-11.333 -11.333 -26.5 -20.333 -45.5 -27s-37.167 -10 -54.5 -10c-35.333 0 -65.333 11.167 -90 33.5s-37 52.5 -37 90.5c0 40 12.333 71.5 37 94.5s55.667 34.5 93 34.5c36.667 0 67.667 -9.66699 93 -29l80 91c-43.333 45.333 -103 68 -179 68
c-75.333 0 -139 -23.167 -191 -69.5s-78 -109.5 -78 -189.5c0 -84.667 25.667 -148.667 77 -192s115.666 -65 192.999 -65s141.666 25.333 192.999 76zM215.002 641c0 29.333 13.333 50 40 62s53.334 12 80.001 0s40 -32.667 40 -62c0 -28.667 -13.333 -49 -40 -61
s-53.334 -12 -80.001 0s-40 32.333 -40 61z" />
    <glyph glyph-name="Ccaron" unicode="&#x10c;" horiz-adv-x="696" 
d="M681 85l-97.002 107.998c-20 -20 -46.333 -36.167 -79 -48.5s-63.667 -18.5 -93 -18.5c-39.333 0 -73.666 6.5 -102.999 19.5s-52.166 30.333 -68.499 52s-28.5 44.667 -36.5 69s-12 50.166 -12 77.499c0 26.667 4 52.834 12 78.501s20.5 49.667 37.5 72
s40.167 40.333 69.5 54s63 20.5 101 20.5c66.667 0 119.667 -19.333 159 -58l98 97c-73.333 72 -159 108 -257 108c-62 0 -117.5 -10.667 -166.5 -32s-88.333 -50 -118 -86s-52 -75.5 -67 -118.5s-22.5 -87.833 -22.5 -134.5c0 -49.333 7.16699 -95.166 21.5 -137.499
s36 -80.666 65 -114.999s68 -61.333 117 -81s105.833 -29.5 170.5 -29.5c110 0 199.667 34.333 269 103zM228.998 898.998v5h139l44 -36l47 36h134v-5l-149 -129h-71z" />
    <glyph glyph-name="ccaron" unicode="&#x10d;" horiz-adv-x="508" 
d="M495 65l-90.998 94c-11.333 -11.333 -26.5 -20.333 -45.5 -27s-37.167 -10 -54.5 -10c-35.333 0 -65.333 11.167 -90 33.5s-37 52.5 -37 90.5c0 40 12.333 71.5 37 94.5s55.667 34.5 93 34.5c36.667 0 67.667 -9.66699 93 -29l80 91c-43.333 45.333 -103 68 -179 68
c-75.333 0 -139 -23.167 -191 -69.5s-78 -109.5 -78 -189.5c0 -84.667 25.667 -148.667 77 -192s115.666 -65 192.999 -65s141.666 25.333 192.999 76zM116.002 694v6h133l42 -37l45 37h128v-6l-142 -129h-69z" />
    <glyph glyph-name="Dcaron" unicode="&#x10e;" horiz-adv-x="753" 
d="M365 700l-286.999 -0.000976562v-700h287c59.333 0 111.833 9.83301 157.5 29.5s82 46.334 109 80.001s47.333 71.167 61 112.5s20.5 85.666 20.5 132.999c0 63.333 -11.833 120.333 -35.5 171s-62.334 92.334 -116.001 125.001s-119.167 49 -196.5 49zM232.001 143.999
l0.000976562 414.999h133c67.333 0 116.5 -19.333 147.5 -58s46.5 -86.667 46.5 -144c0 -27.333 -3.16699 -52.833 -9.5 -76.5s-16.333 -46.167 -30 -67.5s-33.834 -38.166 -60.501 -50.499s-58 -18.5 -94 -18.5h-133zM161.002 891.998v5h146l46 -36l49 36h141v-5l-156 -126
h-75z" />
    <glyph glyph-name="dcaron" unicode="&#x10f;" horiz-adv-x="701" 
d="M299 374c-36.667 0 -66 -11.833 -88 -35.5s-33 -54.167 -33 -91.5c0 -36.667 10.833 -67 32.5 -91s51.167 -36 88.5 -36c36.667 0 68 10.333 94 31s39 52.667 39 96c0 39.333 -13.333 70.333 -40 93s-57.667 34 -93 34zM434 699h145.001v-699h-129l-9 63
c-37.333 -48 -92 -72 -164 -72c-72.667 0 -131.5 23.5 -176.5 70.5s-67.5 108.833 -67.5 185.5c0 78.667 22.667 141.167 68 187.5s104.666 69.5 177.999 69.5c65.333 0 117 -23.333 155 -70v265zM611.001 487l43 213h130l-75 -213h-98z" />
    <glyph glyph-name="Dcroat" unicode="&#x110;" horiz-adv-x="759" 
d="M22 288l0.000976562 125.998h62v286h287c58 0 109.667 -9.83301 155 -29.5s81.666 -46.167 108.999 -79.5s48 -70.166 62 -110.499s21.333 -83.166 22 -128.499s-5.83301 -88.5 -19.5 -129.5s-34 -78.333 -61 -112s-63.667 -60.5 -110 -80.5s-98.833 -30 -157.5 -30h-287
v288h-62zM235.001 287.998v-144h136c66.667 0 116.167 20.5 148.5 61.5s47.5 90.5 45.5 148.5c-2 55.333 -19 102.833 -51 142.5s-79.667 59.5 -143 59.5h-136v-142h100v-126h-100z" />
    <glyph glyph-name="dcroat" unicode="&#x111;" horiz-adv-x="636" 
d="M434 699h141.001v-55h63v-98h-63v-546h-131l-10 56c-30.667 -45.333 -79 -68 -145 -68c-74.667 0 -136 23.333 -184 70s-72 109.667 -72 189c0 83.333 23.167 147.333 69.5 192s107.166 67 182.499 67c24 0 51.833 -6.5 83.5 -19.5s53.5 -29.167 65.5 -48.5v108h-99v98
h99v55zM298.001 372c-34.667 0 -63.501 -11.668 -86.501 -35.001s-34.5 -53.333 -34.5 -90c0 -35.333 11.667 -65.166 35 -89.499s52 -36.5 86 -36.5c34.667 0 64.334 11.5 89.001 34.5s37 53.5 37 91.5c0 36.667 -12.5 66.667 -37.5 90s-54.5 35 -88.5 35z" />
    <glyph glyph-name="Emacron" unicode="&#x112;" horiz-adv-x="656" 
d="M611 144v-144h-533v700h519v-143h-366v-135h345v-137h-345v-141h380zM162 773v119h359v-119h-359z" />
    <glyph glyph-name="emacron" unicode="&#x113;" horiz-adv-x="577" 
d="M542 200l-362.999 -0.000976562c4 -25.333 17.667 -46.166 41 -62.499s54.333 -24.5 93 -24.5c55.333 0 98 13 128 39l81 -90c-49.333 -48.667 -120 -73 -212 -73c-88 0 -156.167 23.667 -204.5 71s-72.5 111.333 -72.5 192c0 76 23.667 137.5 71 184.5
s111 70.5 191 70.5c87.333 0 154.166 -26.667 200.499 -80s61.833 -129 46.5 -227zM179.001 304.999h234.001c-1.33301 25.333 -13.333 44.833 -36 58.5s-50 20.5 -82 20.5c-28.667 0 -53.334 -7 -74.001 -21s-34.667 -33.333 -42 -58zM134.002 583.999v110h320v-110h-320z
" />
    <glyph glyph-name="Ebreve" unicode="&#x114;" horiz-adv-x="656" 
d="M611 144v-144h-533v700h519v-143h-366v-135h345v-137h-345v-141h380zM392 900h116c2 -41.333 -12.333 -74.666 -43 -99.999s-69 -38 -115 -38s-85.833 12.167 -119.5 36.5s-47.834 58.166 -42.501 101.499h117c0 -14 4.83301 -24 14.5 -30s19.834 -9 30.501 -9
c28 0 42 13 42 39z" />
    <glyph glyph-name="ebreve" unicode="&#x115;" horiz-adv-x="577" 
d="M542 200l-362.999 -0.000976562c4 -25.333 17.667 -46.166 41 -62.499s54.333 -24.5 93 -24.5c55.333 0 98 13 128 39l81 -90c-49.333 -48.667 -120 -73 -212 -73c-88 0 -156.167 23.667 -204.5 71s-72.5 111.333 -72.5 192c0 76 23.667 137.5 71 184.5
s111 70.5 191 70.5c87.333 0 154.166 -26.667 200.499 -80s61.833 -129 46.5 -227zM179.001 304.999h234.001c-1.33301 25.333 -13.333 44.833 -36 58.5s-50 20.5 -82 20.5c-28.667 0 -53.334 -7 -74.001 -21s-34.667 -33.333 -42 -58zM345.002 708.999l117.001 0.00195312
c2 -42.667 -12.5 -77.334 -43.5 -104.001s-69.5 -40 -115.5 -40c-47.333 0 -87.833 12.667 -121.5 38s-47.834 60.666 -42.501 105.999h118c0 -26.667 15.333 -40 46 -40c28 0 42 13.333 42 40z" />
    <glyph glyph-name="Edotaccent" unicode="&#x116;" horiz-adv-x="656" 
d="M611 0v144h-380v141h345v137h-345v135h366v143h-519v-700h533zM270 844c0 24 8.83301 42.667 26.5 56s37.334 20 59.001 20s41.334 -6.66699 59.001 -20s26.5 -32 26.5 -56c0 -23.333 -8.83301 -41.666 -26.5 -54.999s-37.334 -20 -59.001 -20
s-41.334 6.66699 -59.001 20s-26.5 31.666 -26.5 54.999z" />
    <glyph glyph-name="edotaccent" unicode="&#x117;" horiz-adv-x="577" 
d="M542 200l-362.999 -0.000976562c4 -25.333 17.667 -46.166 41 -62.499s54.333 -24.5 93 -24.5c55.333 0 98 13 128 39l81 -90c-49.333 -48.667 -120 -73 -212 -73c-88 0 -156.167 23.667 -204.5 71s-72.5 111.333 -72.5 192c0 76 23.667 137.5 71 184.5
s111 70.5 191 70.5c87.333 0 154.166 -26.667 200.499 -80s61.833 -129 46.5 -227zM179.001 304.999h234.001c-1.33301 25.333 -13.333 44.833 -36 58.5s-50 20.5 -82 20.5c-28.667 0 -53.334 -7 -74.001 -21s-34.667 -33.333 -42 -58zM213.002 645.999
c0 18.667 5.83398 34.167 17.501 46.5s26 20 43 23s34 3 51 0s31.333 -10.667 43 -23s17.5 -27.833 17.5 -46.5c0 -29.333 -14.333 -50.166 -43 -62.499s-57.334 -12.333 -86.001 0s-43 33.166 -43 62.499z" />
    <glyph glyph-name="Eogonek" unicode="&#x118;" horiz-adv-x="668" 
d="M611 153l0.000976562 -153.002c-90.667 12.667 -139.667 -2.33301 -147 -45c-3.33301 -16.667 2.83398 -27.667 18.501 -33s32.667 -6.16602 51 -2.49902s32.166 8.5 41.499 14.5l70 -56c-16.667 -27.333 -43 -47.5 -79 -60.5s-71.833 -17.167 -107.5 -12.5
s-62.834 17 -81.501 37c-22 23.333 -29 52.833 -21 88.5s28.667 58.834 62 69.501h-340v700h536v-151h-382v-128h370v-145h-370v-123h379z" />
    <glyph glyph-name="eogonek" unicode="&#x119;" horiz-adv-x="580" 
d="M549 197l-366.999 0.000976562c4 -24 17.167 -43.667 39.5 -59s52.833 -23 91.5 -23c20.667 0 42.5 3.33301 65.5 10s40.5 15.667 52.5 27l91 -91c-26 -24.667 -59 -44 -99 -58c-19.333 -1.33301 -33.333 -9.33301 -42 -24s-10 -28 -4 -40s17.833 -18.333 35.5 -19
s38.167 7 61.5 23l71 -56c-35.333 -39.333 -83 -61.333 -143 -66s-102 10.666 -126 45.999c-13.333 18 -19 38.833 -17 62.5s12.333 43.167 31 58.5c-27.333 2 -52.333 6.33301 -75 13c-59.333 18 -104.5 48.667 -135.5 92s-46.5 96 -46.5 158c0 76.667 23.833 139 71.5 187
s112.5 72 194.5 72c87.333 0 153.166 -26.833 197.499 -80.5s61.833 -131.167 52.5 -232.5zM185.001 314.001h225.001c-10.667 49.333 -46 74 -106 74c-58.667 0 -98.334 -24.667 -119.001 -74z" />
    <glyph glyph-name="Ecaron" unicode="&#x11a;" horiz-adv-x="656" 
d="M611 0v144h-380v141h345v137h-345v135h366v143h-519v-700h533zM152 896v6h146l47 -37l49 37h141v-6l-156 -127h-76z" />
    <glyph glyph-name="ecaron" unicode="&#x11b;" horiz-adv-x="577" 
d="M542 200l-362.999 -0.000976562c4 -25.333 17.667 -46.166 41 -62.499s54.333 -24.5 93 -24.5c55.333 0 98 13 128 39l81 -90c-49.333 -48.667 -120 -73 -212 -73c-88 0 -156.167 23.667 -204.5 71s-72.5 111.333 -72.5 192c0 76 23.667 137.5 71 184.5
s111 70.5 191 70.5c87.333 0 154.166 -26.667 200.499 -80s61.833 -129 46.5 -227zM179.001 304.999h234.001c-1.33301 25.333 -13.333 44.833 -36 58.5s-50 20.5 -82 20.5c-28.667 0 -53.334 -7 -74.001 -21s-34.667 -33.333 -42 -58zM113.002 693.999v6h145l45 -36l49 36
h140v-6l-155 -126h-74z" />
    <glyph glyph-name="Gcircumflex" unicode="&#x11c;" horiz-adv-x="742" 
d="M575 516l97.002 97.002c-70 72 -157 108 -261 108c-62 0 -117.333 -10 -166 -30s-87.834 -47.5 -117.501 -82.5s-52 -74.333 -67 -118s-22.5 -90.834 -22.5 -141.501c0 -47.333 7 -92.333 21 -135s35.167 -81.834 63.5 -117.501s67.166 -64 116.499 -85
s106.333 -31.5 171 -31.5c129.333 0 224.333 43.333 285 130v305h-302v-130h167v-112c-43.333 -32.667 -93 -49 -149 -49c-39.333 0 -73.833 6.83301 -103.5 20.5s-52.667 32 -69 55s-28.333 47 -36 72s-11.5 50.833 -11.5 77.5c0 74.667 19.667 131.5 59 170.5
s93 58.5 161 58.5c66 0 120.667 -20.667 164 -62zM363.002 914.002h78l154 -133v-5h-145l-49 40l-47 -40h-147v5z" />
    <glyph glyph-name="gcircumflex" unicode="&#x11d;" horiz-adv-x="606" 
d="M40 -68l133.999 -0.000976562c4.66699 -66.667 46 -100 124 -100c34 0 62.833 7.83301 86.5 23.5s35.5 38.167 35.5 67.5c0 56.667 -40 85 -120 85c-81.333 0 -146.166 22.5 -194.499 67.5s-72.5 105.5 -72.5 181.5c0 80 26 142 78 186s115 66 189 66
c51.333 0 90 -9 116 -27l54 70l104 -80l-63 -75c36 -43.333 53 -90.666 51 -141.999c-2 -80 -37.333 -137.667 -106 -173c73.333 -32.667 110 -85.667 110 -159c0 -69.333 -26.333 -123 -79 -161s-115.667 -57 -189 -57c-84.667 0 -149.167 19.833 -193.5 59.5
s-65.833 95.5 -64.5 167.5zM299.999 380.999c-38 0 -68.833 -11 -92.5 -33s-35.5 -52.333 -35.5 -91c0 -35.333 12.167 -63.833 36.5 -85.5s54.833 -32.5 91.5 -32.5c34.667 0 64 10.333 88 31s36 49.667 36 87c0 34.667 -11.833 64 -35.5 88s-53.167 36 -88.5 36z
M264.999 727.999h71l142 -137v-5h-133l-45 41l-44 -41h-135v5z" />
    <glyph glyph-name="Gbreve" unicode="&#x11e;" horiz-adv-x="742" 
d="M672 613l-97.002 -97.002c-43.333 41.333 -98 62 -164 62c-68 0 -121.667 -19.5 -161 -58.5s-59 -95.833 -59 -170.5c0 -26.667 3.83301 -52.5 11.5 -77.5s19.667 -49 36 -72s39.333 -41.333 69 -55s64.167 -20.5 103.5 -20.5c56 0 105.667 16.333 149 49v112h-167v130
h302v-305c-60.667 -86.667 -155.667 -130 -285 -130c-64.667 0 -121.667 10.5 -171 31.5s-88.166 49.333 -116.499 85s-49.5 74.834 -63.5 117.501s-21 87.667 -21 135c0 50.667 7.5 97.834 22.5 141.501s37.333 83 67 118s68.834 62.5 117.501 82.5s104 30 166 30
c104 0 191 -36 261 -108zM451.998 922.998l121.001 -0.000976562c2 -44 -13 -79.5 -45 -106.5s-72 -40.5 -120 -40.5c-48.667 0 -90.5 13 -125.5 39s-49.833 62 -44.5 108h122c0 -15.333 5.16699 -26.166 15.5 -32.499s21.166 -9.5 32.499 -9.5c29.333 0 44 14 44 42z" />
    <glyph glyph-name="gbreve" unicode="&#x11f;" horiz-adv-x="606" 
d="M40 -68l133.999 -0.000976562c4.66699 -66.667 46 -100 124 -100c34 0 62.833 7.83301 86.5 23.5s35.5 38.167 35.5 67.5c0 56.667 -40 85 -120 85c-81.333 0 -146.166 22.5 -194.499 67.5s-72.5 105.5 -72.5 181.5c0 80 26 142 78 186s115 66 189 66
c51.333 0 90 -9 116 -27l54 70l104 -80l-63 -75c36 -43.333 53 -90.666 51 -141.999c-2 -80 -37.333 -137.667 -106 -173c73.333 -32.667 110 -85.667 110 -159c0 -69.333 -26.333 -123 -79 -161s-115.667 -57 -189 -57c-84.667 0 -149.167 19.833 -193.5 59.5
s-65.833 95.5 -64.5 167.5zM299.999 380.999c-38 0 -68.833 -11 -92.5 -33s-35.5 -52.333 -35.5 -91c0 -35.333 12.167 -63.833 36.5 -85.5s54.833 -32.5 91.5 -32.5c34.667 0 64 10.333 88 31s36 49.667 36 87c0 34.667 -11.833 64 -35.5 88s-53.167 36 -88.5 36z
M352.999 715.999l121.001 -0.000976562c2 -43.333 -13 -78.5 -45 -105.5s-72 -40.5 -120 -40.5c-48.667 0 -90.5 12.833 -125.5 38.5s-49.833 61.5 -44.5 107.5h122c0 -15.333 5.16699 -26.166 15.5 -32.499s21.166 -9.5 32.499 -9.5c29.333 0 44 14 44 42z" />
    <glyph glyph-name="Gdotaccent" unicode="&#x120;" horiz-adv-x="742" 
d="M575 516l97.002 97.002c-70 72 -157 108 -261 108c-62 0 -117.333 -10 -166 -30s-87.834 -47.5 -117.501 -82.5s-52 -74.333 -67 -118s-22.5 -90.834 -22.5 -141.501c0 -47.333 7 -92.333 21 -135s35.167 -81.834 63.5 -117.501s67.166 -64 116.499 -85
s106.333 -31.5 171 -31.5c129.333 0 224.333 43.333 285 130v305h-302v-130h167v-112c-43.333 -32.667 -93 -49 -149 -49c-39.333 0 -73.833 6.83301 -103.5 20.5s-52.667 32 -69 55s-28.333 47 -36 72s-11.5 50.833 -11.5 77.5c0 74.667 19.667 131.5 59 170.5
s93 58.5 161 58.5c66 0 120.667 -20.667 164 -62zM312.002 856.002c0 24.667 9.16699 44 27.5 58s38.666 21 60.999 21s42.666 -7 60.999 -21s27.5 -33.333 27.5 -58c0 -24 -9.16699 -43 -27.5 -57s-38.666 -21 -60.999 -21s-42.666 7 -60.999 21s-27.5 33 -27.5 57z" />
    <glyph glyph-name="gdotaccent" unicode="&#x121;" horiz-adv-x="606" 
d="M40 -68l133.999 -0.000976562c4.66699 -66.667 46 -100 124 -100c34 0 62.833 7.83301 86.5 23.5s35.5 38.167 35.5 67.5c0 56.667 -40 85 -120 85c-81.333 0 -146.166 22.5 -194.499 67.5s-72.5 105.5 -72.5 181.5c0 80 26 142 78 186s115 66 189 66
c51.333 0 90 -9 116 -27l54 70l104 -80l-63 -75c36 -43.333 53 -90.666 51 -141.999c-2 -80 -37.333 -137.667 -106 -173c73.333 -32.667 110 -85.667 110 -159c0 -69.333 -26.333 -123 -79 -161s-115.667 -57 -189 -57c-84.667 0 -149.167 19.833 -193.5 59.5
s-65.833 95.5 -64.5 167.5zM299.999 380.999c-38 0 -68.833 -11 -92.5 -33s-35.5 -52.333 -35.5 -91c0 -35.333 12.167 -63.833 36.5 -85.5s54.833 -32.5 91.5 -32.5c34.667 0 64 10.333 88 31s36 49.667 36 87c0 34.667 -11.833 64 -35.5 88s-53.167 36 -88.5 36z
M211.999 651.999c0 25.333 9.33008 45.166 27.9971 59.499s39 21.5 61 21.5s42.333 -7.16699 61 -21.5s28 -34.166 28 -59.499c0 -20 -6.16699 -36.833 -18.5 -50.5s-27.166 -22 -44.499 -25s-34.666 -3 -51.999 0s-32.166 11.333 -44.499 25s-18.5 30.5 -18.5 50.5z" />
    <glyph glyph-name="Gcommaaccent" unicode="&#x122;" horiz-adv-x="742" 
d="M672 613l-97.002 -97.002c-43.333 41.333 -98 62 -164 62c-68 0 -121.667 -19.5 -161 -58.5s-59 -95.833 -59 -170.5c0 -26.667 3.83301 -52.5 11.5 -77.5s19.667 -49 36 -72s39.333 -41.333 69 -55s64.167 -20.5 103.5 -20.5c56 0 105.667 16.333 149 49v112h-167v130
h302v-305c-60.667 -86.667 -155.667 -130 -285 -130c-64.667 0 -121.667 10.5 -171 31.5s-88.166 49.333 -116.499 85s-49.5 74.834 -63.5 117.501s-21 87.667 -21 135c0 50.667 7.5 97.834 22.5 141.501s37.333 83 67 118s68.834 62.5 117.501 82.5s104 30 166 30
c104 0 191 -36 261 -108zM488.998 -138.002c0 -14.667 -1.99902 -29.833 -5.99902 -45.5s-10.833 -36.5 -20.5 -62.5s-15.834 -43.333 -18.501 -52h-77l15 101c-36.667 5.33301 -55 24.333 -55 57c0 18.667 5.5 34.5 16.5 47.5s24.5 20.833 40.5 23.5s32 2.5 48 -0.5
s29.5 -10.667 40.5 -23s16.5 -27.5 16.5 -45.5z" />
    <glyph glyph-name="gcommaaccent" unicode="&#x123;" horiz-adv-x="606" 
d="M218 649c0 10.667 1.83496 22.8359 5.50195 36.5029s7.5 25.667 11.5 36s9.5 23.833 16.5 40.5l16.5 40h81l-18 -97c18 -2.66699 32.167 -8.5 42.5 -17.5s15.166 -21.167 14.499 -36.5c-0.666992 -20.667 -6.83398 -37.834 -18.501 -51.501s-26 -22 -43 -25
s-33.667 -2.83301 -50 0.5s-30.333 11.666 -42 24.999s-17.167 29.666 -16.5 48.999zM40.002 -67.998l133.999 -0.000976562c4.66699 -66.667 46 -100 124 -100c34 0 62.833 7.83301 86.5 23.5s35.5 38.167 35.5 67.5c0 56.667 -40 85 -120 85
c-81.333 0 -146.166 22.5 -194.499 67.5s-72.5 105.5 -72.5 181.5c0 80 26 142 78 186s115 66 189 66c51.333 0 90 -9 116 -27l54 70l104 -80l-63 -75c36 -43.333 53 -90.666 51 -141.999c-2 -80 -37.333 -137.667 -106 -173c73.333 -32.667 110 -85.667 110 -159
c0 -69.333 -26.333 -123 -79 -161s-115.667 -57 -189 -57c-84.667 0 -149.167 19.833 -193.5 59.5s-65.833 95.5 -64.5 167.5zM300.001 381.001c-38 0 -68.833 -11 -92.5 -33s-35.5 -52.333 -35.5 -91c0 -35.333 12.167 -63.833 36.5 -85.5s54.833 -32.5 91.5 -32.5
c34.667 0 64 10.333 88 31s36 49.667 36 87c0 34.667 -11.833 64 -35.5 88s-53.167 36 -88.5 36z" />
    <glyph glyph-name="Hcircumflex" unicode="&#x124;" horiz-adv-x="779" 
d="M547 0h154v700h-154v-280h-313v280h-156v-700h156v277h313v-277zM349 916h73l145 -136v-5h-136l-46 41l-45 -41h-137v5z" />
    <glyph glyph-name="hcircumflex" unicode="&#x125;" horiz-adv-x="607" 
d="M206 700h-145v-700h144v250c0 38 10.5 67.667 31.5 89s47.167 32 78.5 32c28.667 0 51.5 -9.33301 68.5 -28s25.5 -45 25.5 -79v-264h144v265c0 158 -65.667 237 -197 237c-64.667 0 -114.667 -23 -150 -69v267zM261 916h72l143 -135v-5h-135l-45 41l-44 -41h-135v5z" />
    <glyph glyph-name="Hbar" unicode="&#x126;" horiz-adv-x="790" 
d="M706 -1h-154v272h-313v-272h-156v516h-62v96h62v88h156v-88h313v88h154v-88h65v-96h-65v-516zM239 415h313v100h-313v-100z" />
    <glyph glyph-name="hbar" unicode="&#x127;" horiz-adv-x="607" 
d="M3 548v96h58v56h145v-56h102v-96h-102v-115c38 44.667 87 67 147 67c68 0 118.333 -21.667 151 -65s49 -104 49 -182v-253h-144v252c0 40 -9.16699 69.167 -27.5 87.5s-41.833 27.5 -70.5 27.5c-30.667 0 -56 -11.833 -76 -35.5s-30 -52.167 -30 -85.5v-246h-144v548h-58
z" />
    <glyph glyph-name="Itilde" unicode="&#x128;" horiz-adv-x="311" 
d="M233 0h-155v700h155v-700zM59 775l-82.9971 48.9971c36 74 83.333 103 142 87c8 -2 22.5 -8 43.5 -18s37.167 -14 48.5 -12s20.666 12.333 27.999 31l87 -43c-34 -78 -79.333 -107 -136 -87c-8.66699 2.66699 -19.334 6.83398 -32.001 12.501
s-22.834 9.83398 -30.501 12.501s-16 4.33398 -25 5.00098s-16.833 -2 -23.5 -8s-13 -15.667 -19 -29z" />
    <glyph glyph-name="itilde" unicode="&#x129;" horiz-adv-x="267" 
d="M206 0h-145v494h145v-494zM55 575l-70 47.9941c30 72.667 69.667 101.334 119 86.001c6.66699 -2 14.667 -5.33301 24 -10l24 -12c6.66699 -3.33301 13.5 -5.66602 20.5 -6.99902s13.333 0.333984 19 5.00098s10.167 13 13.5 25l73 -42c-28 -78 -66 -106.667 -114 -86
c-6.66699 2.66699 -15.5 6.83398 -26.5 12.501s-19.5 9.83398 -25.5 12.501s-12.833 4.33398 -20.5 5.00098s-14.5 -2 -20.5 -8s-11.333 -15.667 -16 -29z" />
    <glyph glyph-name="Imacron" unicode="&#x12a;" horiz-adv-x="311" 
d="M233 0h-155v700h155v-700zM21 772v117h269v-117h-269z" />
    <glyph glyph-name="imacron" unicode="&#x12b;" horiz-adv-x="267" 
d="M206 0h-145v494h145v-494zM20 587v111h229v-111h-229z" />
    <glyph glyph-name="Ibreve" unicode="&#x12c;" horiz-adv-x="311" 
d="M233 0h-155v700h155v-700zM206 922l114.999 0.00195312c2 -46.667 -12.167 -84.334 -42.5 -113.001s-68.5 -43 -114.5 -43s-85.667 13.667 -119 41s-47.333 65.666 -42 114.999h116c0 -16 4.83301 -27.333 14.5 -34s19.834 -10 30.501 -10c28 0 42 14.667 42 44z" />
    <glyph glyph-name="ibreve" unicode="&#x12d;" horiz-adv-x="267" 
d="M206 0h-145v494h145v-494zM175 699l101 -0.000976562c2 -43.333 -10.5 -78.666 -37.5 -105.999s-60.5 -41 -100.5 -41c-40.667 0 -75.5 13 -104.5 39s-41.5 62 -37.5 108h102c0 -15.333 4.33301 -26 13 -32s17.667 -9 27 -9c24.667 0 37 13.667 37 41z" />
    <glyph glyph-name="Iogonek" unicode="&#x12e;" horiz-adv-x="313" 
d="M234 -68l71.0029 -55.999c-22.667 -28 -53.834 -47.167 -93.501 -57.5s-77.334 -8.16602 -113.001 6.50098s-58.5 41 -68.5 79c-5.33301 19.333 -4.33301 40.833 3 64.5s23 42.167 47 55.5v676h155v-700c-34 2.66699 -60.5 -3 -79.5 -17s-26.167 -28.667 -21.5 -44
c4.66699 -14.667 15.667 -23.834 33 -27.501s39.666 3.16602 66.999 20.499z" />
    <glyph glyph-name="iogonek" unicode="&#x12f;" horiz-adv-x="269" 
d="M208 494l-143.998 -0.00195312v-467c-22 -10.667 -38.833 -24.334 -50.5 -41.001s-17.834 -33.5 -18.501 -50.5s1.33301 -34.167 6 -51.5c16 -47.333 61.333 -72.333 136 -75c28 -1.33301 54.833 4 80.5 16s45.5 29.333 59.5 52l-72 56
c-16.667 -13.333 -34.334 -20 -53.001 -20c-12.667 0.666992 -23 4.33398 -31 11.001s-12 14.334 -12 23.001c-2.66699 21.333 7 36.333 29 45s45.333 11.334 70 8.00098v494zM55.002 628.998c0 25.333 8.5 45.333 25.5 60s35.833 22 56.5 22s39.5 -7.33301 56.5 -22
s25.5 -34.667 25.5 -60s-8.5 -45.333 -25.5 -60s-35.833 -22 -56.5 -22s-39.5 7.33301 -56.5 22s-25.5 34.667 -25.5 60z" />
    <glyph glyph-name="Idotaccent" unicode="&#x130;" horiz-adv-x="311" 
d="M78 0h155v700h-155v-700zM70 845c0 24.667 9.16699 44 27.5 58s38.666 21 60.999 21s42.666 -7 60.999 -21s27.5 -33.333 27.5 -58c0 -24 -9.16699 -42.833 -27.5 -56.5s-38.666 -20.5 -60.999 -20.5s-42.666 6.83301 -60.999 20.5s-27.5 32.5 -27.5 56.5z" />
    <glyph glyph-name="dotlessi" unicode="&#x131;" horiz-adv-x="267" 
d="M206 0h-145v494h145v-494z" />
    <glyph glyph-name="IJ" unicode="&#x132;" horiz-adv-x="1027" 
d="M233 0h-155v700h155v-700zM329 291l151 0.000976562c4.66699 -105.333 57.667 -158 159 -158c51.333 0 91.333 14.667 120 44s43 70.666 43 123.999v257h-194v142h350v-400c0 -94 -27.667 -170 -83 -228s-133.333 -87 -234 -87c-206 0 -310 102 -312 306z" />
    <glyph glyph-name="ij" unicode="&#x133;" horiz-adv-x="531" 
d="M205 495h-144v-495h144v495zM51 625c0 25.333 8.5 45.333 25.5 60s35.833 22 56.5 22s39.5 -7.33301 56.5 -22s25.5 -34.667 25.5 -60s-8.5 -45.333 -25.5 -60s-35.833 -22 -56.5 -22s-39.5 7.33301 -56.5 22s-25.5 34.667 -25.5 60zM470 495l-142.999 0.00195312v-523
c0 -68 -33 -85.333 -99 -52l-41 -105c32 -18.667 64.667 -29.667 98 -33s64 0.666992 92 12s50.667 32.666 68 63.999s25.666 70.666 24.999 117.999v519zM318.001 625.002c0 25.333 8.5 45.333 25.5 60s35.667 22 56 22s39 -7.33301 56 -22s25.5 -34.667 25.5 -60
s-8.5 -45.333 -25.5 -60s-35.667 -22 -56 -22s-39 7.33301 -56 22s-25.5 34.667 -25.5 60z" />
    <glyph glyph-name="Jcircumflex" unicode="&#x134;" horiz-adv-x="716" 
d="M169 291l-151 -0.000976562c2 -204 106 -306 312 -306c100.667 0 178.667 29 234 87s83 134 83 228v400h-350v-142h194v-257c0 -53.333 -14.333 -94.666 -43 -123.999s-68.667 -44 -120 -44c-101.333 0 -154.333 52.667 -159 158zM422 923.999h78l155 -147v-5h-145
l-49 44l-48 -44h-147v5z" />
    <glyph glyph-name="jcircumflex" unicode="&#x135;" horiz-adv-x="265" 
d="M97 718h62l122 -146v-5h-115l-38 43l-38 -43h-116v5zM204 495l-143.001 0.00195312v-540c0 -48.667 -14 -74.334 -42 -77.001c-16 -0.666992 -34.333 3.33301 -55 12l-49 -104c34.667 -23.333 73.334 -35 116.001 -35c57.333 0 100.5 16.167 129.5 48.5
s43.5 84.166 43.5 155.499v540z" />
    <glyph glyph-name="Kcommaaccent" unicode="&#x136;" horiz-adv-x="673" 
d="M656 700v-4l-284 -336l309 -351v-9h-188l-259 299v-299h-156v700h156v-289l233 289h189zM447 -114c0 -14.667 -2.00098 -29.835 -6.00098 -45.502s-11 -36.167 -21 -61.5l-20 -51h-81l16 100c-38 6 -57 24.667 -57 56c0 18.667 5.83301 34.334 17.5 47.001
s25.667 20.334 42 23.001s32.833 2.66699 49.5 0s30.834 -10.167 42.501 -22.5s17.5 -27.5 17.5 -45.5z" />
    <glyph glyph-name="kcommaaccent" unicode="&#x137;" horiz-adv-x="548" 
d="M61 699h144v-399l146 193h170v-9l-181 -223l209 -250v-11h-173l-171 217v-217h-144v699zM376 -115c0 -14.667 -1.99902 -29.833 -5.99902 -45.5s-10.833 -36.5 -20.5 -62.5s-15.834 -43.333 -18.501 -52h-77l15 101c-36 5.33301 -54 24.333 -54 57
c0 18.667 5.5 34.5 16.5 47.5s24.5 20.833 40.5 23.5s31.833 2.5 47.5 -0.5s29 -10.667 40 -23s16.5 -27.5 16.5 -45.5z" />
    <glyph glyph-name="kgreenlandic" unicode="&#x138;" horiz-adv-x="547" 
d="M61 492h144v-192l146 193h170v-9l-186 -223l214 -250v-11h-173l-171 217v-217h-144v492z" />
    <glyph glyph-name="Lacute" unicode="&#x139;" horiz-adv-x="600" 
d="M234 700h-156v-700h506v143h-350v557zM323 907v-5l-114 -129h-123v7l72 127h165z" />
    <glyph glyph-name="lacute" unicode="&#x13a;" horiz-adv-x="269" 
d="M206 699h-143v-699h143v699zM300 891v-5l-110 -126h-121v6l71 125h160z" />
    <glyph glyph-name="Lcommaaccent" unicode="&#x13b;" horiz-adv-x="600" 
d="M78 700h156v-557h350v-143h-506v700zM419 -124c0 -15.333 -1.99805 -31.1689 -5.99805 -47.502s-10.833 -37.666 -20.5 -63.999s-15.834 -44.166 -18.501 -53.499h-77l15 104c-16.667 2.66699 -29.834 9 -39.501 19s-14.5 23.333 -14.5 40c0 32 13.333 54.5 40 67.5
s53.5 13 80.5 0s40.5 -34.833 40.5 -65.5z" />
    <glyph glyph-name="lcommaaccent" unicode="&#x13c;" horiz-adv-x="269" 
d="M63 699h143v-699h-143v699zM216 -129c0 -15.333 -1.99805 -31.167 -5.99805 -47.5s-10.833 -37.666 -20.5 -63.999s-15.834 -44.166 -18.501 -53.499h-77l15 104c-16.667 2.66699 -29.834 9 -39.501 19s-14.5 23.333 -14.5 40c0 19.333 5.5 35.666 16.5 48.999
s24.333 21.5 40 24.5s31.5 2.83301 47.5 -0.5s29.5 -11.333 40.5 -24s16.5 -28.334 16.5 -47.001z" />
    <glyph glyph-name="Lcaron" unicode="&#x13d;" horiz-adv-x="602" 
d="M78 700h156v-557h350v-143h-506v700zM373 478l45 219h134l-77 -219h-102z" />
    <glyph glyph-name="lcaron" unicode="&#x13e;" horiz-adv-x="334" 
d="M63 699h143v-699h-143v699zM238 479l45 221h134l-77 -221h-102z" />
    <glyph glyph-name="Ldot" unicode="&#x13f;" horiz-adv-x="600" 
d="M78 700h156v-557h350v-143h-506v700zM333 373c0 27.333 9 48.666 27 63.999s38 23 60 23s42 -7.66699 60 -23s27 -36.666 27 -63.999c0 -26.667 -9 -47.667 -27 -63s-38 -23 -60 -23s-42 7.66699 -60 23s-27 36.333 -27 63z" />
    <glyph glyph-name="ldot" unicode="&#x140;" horiz-adv-x="425" 
d="M63 699h143v-699h-143v699zM261 327c0 27.333 9 48.666 27 63.999s38 23 60 23s42 -7.66699 60 -23s27 -36.666 27 -63.999c0 -26.667 -9 -47.667 -27 -63s-38 -23 -60 -23s-42 7.66699 -60 23s-27 36.333 -27 63z" />
    <glyph glyph-name="Lslash" unicode="&#x141;" horiz-adv-x="612" 
d="M246 426l103 53v-117l-103 -51v-168h350v-143h-505v234l-80 -41v114l80 41v352h155v-274z" />
    <glyph glyph-name="lslash" unicode="&#x142;" horiz-adv-x="303" 
d="M288 453v-102l-68 -36v-315h-143v244l-61 -32v104l61 32v351h143v-281z" />
    <glyph glyph-name="Nacute" unicode="&#x143;" horiz-adv-x="790" 
d="M565 245l-353 455h-134v-700h158v218l-6 230l348 -448h134v700h-157v-235zM567 909v-6l-122 -137h-133v7l78 136h177z" />
    <glyph glyph-name="nacute" unicode="&#x144;" 
d="M417 0h144.999v262c0 162.667 -68.667 244 -206 244c-67.333 1.33301 -120.666 -23.667 -159.999 -75l-5 63h-130v-494h142v255c0 33.333 10.5 62 31.5 86s47.833 35.667 80.5 35c68 0 102 -38.333 102 -115v-261zM473.999 710v-6l-109 -133h-119v6l70 133h158z" />
    <glyph glyph-name="Ncommaaccent" unicode="&#x145;" horiz-adv-x="790" 
d="M212 700l353 -455l-10 220v235h157v-700h-134l-348 448l6 -230v-218h-158v700h134zM495 -112c0 -15.333 -1.99805 -31.1689 -5.99805 -47.502s-10.833 -37.666 -20.5 -63.999s-15.834 -44.166 -18.501 -53.499h-77l15 104c-16.667 2.66699 -29.834 9 -39.501 19
s-14.5 23.333 -14.5 40c0 32 13.333 54.5 40 67.5s53.5 13 80.5 0s40.5 -34.833 40.5 -65.5z" />
    <glyph glyph-name="ncommaaccent" unicode="&#x146;" 
d="M562 0h-144.999v261c0 76.667 -34 115 -102 115c-32.667 0.666992 -59.5 -11 -80.5 -35s-31.5 -52.667 -31.5 -86v-255h-142v494h130l5 -63c39.333 51.333 92.666 76.333 159.999 75c137.333 0 206 -81.333 206 -244v-262zM390.001 -118
c0 -15.333 -1.99805 -31.167 -5.99805 -47.5s-10.833 -37.666 -20.5 -63.999s-15.834 -44.166 -18.501 -53.499h-77l15 104c-16.667 2.66699 -29.834 9 -39.501 19s-14.5 23.333 -14.5 40c0 19.333 5.5 35.666 16.5 48.999s24.5 21.333 40.5 24s31.833 2.5 47.5 -0.5
s29 -10.833 40 -23.5s16.5 -28.334 16.5 -47.001z" />
    <glyph glyph-name="Ncaron" unicode="&#x147;" horiz-adv-x="790" 
d="M565 245l-353 455h-134v-700h158v218l-6 230l348 -448h134v700h-157v-235zM213 901v5h141l45 -37l47 37h136v-5l-150 -130h-73z" />
    <glyph glyph-name="ncaron" unicode="&#x148;" 
d="M417 0h144.999v262c0 162.667 -68.667 244 -206 244c-67.333 1.33301 -120.666 -23.667 -159.999 -75l-5 63h-130v-494h142v255c0 33.333 10.5 62 31.5 86s47.833 35.667 80.5 35c68 0 102 -38.333 102 -115v-261zM144.999 699v6h136l43 -38l46 38h131v-6l-145 -131h-70z
" />
    <glyph glyph-name="napostrophe" unicode="&#x149;" 
d="M562 0h-144.999v261c0 76.667 -34 115 -102 115c-32.667 0.666992 -59.5 -11 -80.5 -35s-31.5 -52.667 -31.5 -86v-255h-142v494h130l5 -63c39.333 51.333 92.666 76.333 159.999 75c137.333 0 206 -81.333 206 -244v-262z" />
    <glyph glyph-name="Eng" unicode="&#x14a;" horiz-adv-x="786" 
d="M210 700l343.001 -437v437h155v-719c0 -49.333 -8 -90.833 -24 -124.5s-37.5 -57 -64.5 -70s-58 -17.5 -93 -13.5s-71.167 17.333 -108.5 40l53 111c33.333 -14 57.166 -16.5 71.499 -7.5s21.5 30.5 21.5 64.5v35l-330 416v-432h-156v700h132z" />
    <glyph glyph-name="eng" unicode="&#x14b;" horiz-adv-x="614" 
d="M417 -29l0.00195312 279c0 34 -8.83301 62.5 -26.5 85.5s-42.834 34.5 -75.501 34.5c-32.667 0.666992 -59.5 -11.333 -80.5 -36s-31.5 -54.334 -31.5 -89.001v-245h-142v494h127l10 -61c28.667 23.333 55 40.5 79 51.5s50.333 16.167 79 15.5
c58 0 106.667 -22.167 146 -66.5s59 -105.166 59 -182.499v-280c0 -68 -14.667 -117.667 -44 -149s-69.333 -47 -120 -47c-42.667 0 -84 11.667 -124 35l45 101c17.333 -8.66699 34.666 -13 51.999 -13c31.333 0 47 24.333 47 73z" />
    <glyph glyph-name="Omacron" unicode="&#x14c;" horiz-adv-x="832" 
d="M794 350c0 -112.667 -34.667 -202 -104 -268s-160.666 -99 -273.999 -99s-204.666 33 -273.999 99s-104 155.333 -104 268s34.667 202 104 268s160.666 99 273.999 99s204.666 -33 273.999 -99s104 -155.333 104 -268zM641 350c0 65.333 -20.8311 119.5 -62.498 162.5
s-95.834 64.5 -162.501 64.5c-66 0 -120 -21.667 -162 -65s-63 -97.333 -63 -162c0 -66 21 -120.167 63 -162.5s96 -63.5 162 -63.5c67.333 0 121.666 21.167 162.999 63.5s62 96.5 62 162.5zM242.002 786v119h359v-119h-359z" />
    <glyph glyph-name="omacron" unicode="&#x14d;" horiz-adv-x="605" 
d="M302 -11c-82 0 -147.501 23.833 -196.501 71.5s-73.5 109.5 -73.5 185.5c0 75.333 24.833 137.333 74.5 186s114.834 73 195.501 73c81.333 0 146.833 -24.333 196.5 -73s74.5 -110.667 74.5 -186c0 -76 -24.5 -137.833 -73.5 -185.5s-114.833 -71.5 -197.5 -71.5z
M301.999 117c41.333 0 72.5 12.501 93.5 37.501s31.5 55.5 31.5 91.5c0 34.667 -10.667 65 -32 91s-52.333 39 -93 39c-40 0 -70.667 -13 -92 -39s-32 -56.333 -32 -91s10.5 -64.834 31.5 -90.501s51.833 -38.5 92.5 -38.5zM150.999 578.001v121h313v-121h-313z" />
    <glyph glyph-name="Obreve" unicode="&#x14e;" horiz-adv-x="832" 
d="M794 350c0 -112.667 -34.667 -202 -104 -268s-160.666 -99 -273.999 -99s-204.666 33 -273.999 99s-104 155.333 -104 268s34.667 202 104 268s160.666 99 273.999 99s204.666 -33 273.999 -99s104 -155.333 104 -268zM641 350c0 65.333 -20.8311 119.5 -62.498 162.5
s-95.834 64.5 -162.501 64.5c-66 0 -120 -21.667 -162 -65s-63 -97.333 -63 -162c0 -66 21 -120.167 63 -162.5s96 -63.5 162 -63.5c67.333 0 121.666 21.167 162.999 63.5s62 96.5 62 162.5zM469.002 911l122 -0.000976562c2 -43.333 -13.167 -78.5 -45.5 -105.5
s-72.833 -40.5 -121.5 -40.5s-90.667 12.833 -126 38.5s-50.333 61.5 -45 107.5h124c0 -15.333 5.16699 -26.166 15.5 -32.499s20.833 -9.5 31.5 -9.5c30 0 45 14 45 42z" />
    <glyph glyph-name="obreve" unicode="&#x14f;" horiz-adv-x="605" 
d="M302 -11c-82 0 -147.501 23.833 -196.501 71.5s-73.5 109.5 -73.5 185.5c0 75.333 24.833 137.333 74.5 186s114.834 73 195.501 73c81.333 0 146.833 -24.333 196.5 -73s74.5 -110.667 74.5 -186c0 -76 -24.5 -137.833 -73.5 -185.5s-114.833 -71.5 -197.5 -71.5z
M301.999 117c41.333 0 72.5 12.501 93.5 37.501s31.5 55.5 31.5 91.5c0 34.667 -10.667 65 -32 91s-52.333 39 -93 39c-40 0 -70.667 -13 -92 -39s-32 -56.333 -32 -91s10.5 -64.834 31.5 -90.501s51.833 -38.5 92.5 -38.5zM352.999 706.001h113.999
c2 -42.667 -12.167 -77 -42.5 -103s-68.166 -39 -113.499 -39s-84.5 12.5 -117.5 37.5s-46.833 59.833 -41.5 104.5h115c0 -26.667 14.667 -40 44 -40c28 0 42 13.333 42 40z" />
    <glyph glyph-name="Ohungarumlaut" unicode="&#x150;" horiz-adv-x="832" 
d="M794 350c0 112.667 -34.667 202 -104 268s-160.666 99 -273.999 99s-204.666 -33 -273.999 -99s-104 -155.333 -104 -268s34.667 -202 104 -268s160.666 -99 273.999 -99s204.666 33 273.999 99s104 155.333 104 268zM641 350c0 -66 -20.6689 -120.167 -62.002 -162.5
s-95.666 -63.5 -162.999 -63.5c-66 0 -120 21.167 -162 63.5s-63 96.5 -63 162.5c0 64.667 21 118.667 63 162s96 65 162 65c66.667 0 120.834 -21.5 162.501 -64.5s62.5 -97.167 62.5 -162.5zM543.998 913h149v-5l-120 -131h-130zM345.998 914h149v-5l-106 -131h-136z" />
    <glyph glyph-name="ohungarumlaut" unicode="&#x151;" horiz-adv-x="605" 
d="M302 -11c82.667 0 148.501 23.833 197.501 71.5s73.5 109.5 73.5 185.5c0 75.333 -24.833 137.333 -74.5 186s-115.167 73 -196.5 73c-80.667 0 -145.834 -24.333 -195.501 -73s-74.5 -110.667 -74.5 -186c0 -76 24.5 -137.833 73.5 -185.5s114.5 -71.5 196.5 -71.5z
M302.001 117c-40.667 0 -71.5 12.832 -92.5 38.499s-31.5 55.834 -31.5 90.501s10.667 65 32 91s52 39 92 39c40.667 0 71.667 -13 93 -39s32 -56.333 32 -91c0 -36 -10.5 -66.5 -31.5 -91.5s-52.167 -37.5 -93.5 -37.5zM417.001 691.999h140v-4l-113 -119h-122z
M231.001 692.999h140v-4l-99 -120h-128z" />
    <glyph glyph-name="OE" unicode="&#x152;" horiz-adv-x="1038" 
d="M990 142l-0.000976562 -140h-463c-41.333 -12.667 -84.333 -19 -129 -19c-118 0 -207.333 33.667 -268 101s-91 157 -91 269c0 110 30.833 198.167 92.5 264.5s150.5 99.5 266.5 99.5c24.667 0 67.334 -5.33301 128.001 -16h456v-139h-315v-137h296v-135h-296v-148h323z
M194.999 352c0 -66 18.168 -122.499 54.501 -169.499s89.833 -70.5 160.5 -70.5c45.333 0 84.333 9 117 27v423c-40.667 18 -81.334 27 -122.001 27c-65.333 0 -116.5 -21.333 -153.5 -64s-55.833 -100.334 -56.5 -173.001z" />
    <glyph glyph-name="oe" unicode="&#x153;" horiz-adv-x="956" 
d="M302 -11c-82 0 -147.498 23.832 -196.498 71.499s-73.5 109.5 -73.5 185.5c0 75.333 24.833 137.5 74.5 186.5s114.834 73.5 195.501 73.5c40 0 76.333 -8 109 -24s59 -38.333 79 -67c20 28.667 46 51.167 78 67.5s67.667 24.5 107 24.5
c87.333 0 154.166 -26.833 200.499 -80.5s61.833 -129.5 46.5 -227.5h-366c3.33301 -25.333 17.166 -46.166 41.499 -62.499s56.166 -24.5 95.499 -24.5c55.333 0 98 13 128 39l81 -90c-25.333 -24.667 -57 -43.167 -95 -55.5s-77 -18.5 -117 -18.5
c-86 0 -152 31.333 -198 94c-20 -28.667 -46.5 -51.167 -79.5 -67.5s-69.833 -24.5 -110.5 -24.5zM302.002 117.999c41.333 0 73 12.833 95 38.5s33 55.5 33 89.5s-11.167 64.167 -33.5 90.5s-53.833 39.5 -94.5 39.5c-40 0 -70.667 -13 -92 -39s-32 -56.333 -32 -91
c0 -33.333 10.667 -63 32 -89s52 -39 92 -39zM556.002 303.999h240.001c-1.33301 26 -13.333 45.833 -36 59.5s-50 20.5 -82 20.5c-29.333 0 -55.333 -7.33301 -78 -22s-37.334 -34 -44.001 -58z" />
    <glyph glyph-name="Racute" unicode="&#x154;" horiz-adv-x="725" 
d="M699 0l-0.000976562 12l-192 232c62 22 104.333 51.167 127 87.5s34.334 80.5 35.001 132.5c0 65.333 -23 121 -69 167s-109.333 69 -190 69h-332v-700h156v230h113l179 -230h173zM233.999 566h176c33.333 0 59 -10.833 77 -32.5s27.333 -46.167 28 -73.5
c0 -25.333 -8.83301 -48 -26.5 -68s-43.167 -30 -76.5 -30h-178v204zM496.999 913v-6l-111 -135h-121v6l71 135h161z" />
    <glyph glyph-name="racute" unicode="&#x155;" horiz-adv-x="454" 
d="M195 493l-133.999 0.000976562v-493h144v257c0 35.333 11 63.166 33 83.499s49.333 30.5 82 30.5c29.333 0 55.666 -8.33301 78.999 -25l60 114c-34 30 -74.333 45 -121 45c-56.667 0 -100.667 -22 -132 -66zM377.001 704.001v-5l-103 -125h-112v6l66 124h149z" />
    <glyph glyph-name="Rcommaaccent" unicode="&#x156;" horiz-adv-x="725" 
d="M699 12l0.000976562 -12h-173l-179 230h-113v-230h-156v700h332c80.667 0 144 -23 190 -69s69 -101.667 69 -167c-0.666992 -52 -12.334 -96.167 -35.001 -132.5s-65 -65.5 -127 -87.5zM410.001 566h-176v-204h178c33.333 0 58.833 10 76.5 30s26.5 42.667 26.5 68
c-0.666992 27.333 -10 51.833 -28 73.5s-43.667 32.5 -77 32.5zM460.001 -120c0 -15.333 -1.99805 -31.167 -5.99805 -47.5s-10.833 -37.666 -20.5 -63.999s-15.834 -44.166 -18.501 -53.499h-77l15 104c-16.667 2.66699 -29.834 9 -39.501 19s-14.5 23.333 -14.5 40
c0 19.333 5.5 35.666 16.5 48.999s24.5 21.333 40.5 24s31.833 2.5 47.5 -0.5s29 -10.833 40 -23.5s16.5 -28.334 16.5 -47.001z" />
    <glyph glyph-name="rcommaaccent" unicode="&#x157;" horiz-adv-x="454" 
d="M61 493l133.999 -0.000976562l11 -54c31.333 44 75.333 66 132 66c46.667 0 87 -15 121 -45l-60 -114c-23.333 16.667 -49.666 25 -78.999 25c-32.667 0 -60 -10.167 -82 -30.5s-33 -48.166 -33 -83.499v-257h-144v493zM209.999 -124.001
c0 -14.667 -1.99902 -29.999 -5.99902 -45.999s-10.5 -36.833 -19.5 -62.5s-14.833 -42.834 -17.5 -51.501h-75l15 101c-35.333 6 -53 25 -53 57c0 18.667 5.33301 34.5 16 47.5s23.667 20.833 39 23.5s30.666 2.5 45.999 -0.5s28.333 -10.667 39 -23s16 -27.5 16 -45.5z
" />
    <glyph glyph-name="Rcaron" unicode="&#x158;" horiz-adv-x="725" 
d="M699 0l-0.000976562 12l-192 232c62 22 104.333 51.167 127 87.5s34.334 80.5 35.001 132.5c0 65.333 -23 121 -69 167s-109.333 69 -190 69h-332v-700h156v230h113l179 -230h173zM233.999 566h176c33.333 0 59 -10.833 77 -32.5s27.333 -46.167 28 -73.5
c0 -25.333 -8.83301 -48 -26.5 -68s-43.167 -30 -76.5 -30h-178v204zM167.999 900v6h138l43 -38l47 38h133v-6l-147 -133h-72z" />
    <glyph glyph-name="rcaron" unicode="&#x159;" horiz-adv-x="454" 
d="M195 493l-133.999 0.000976562v-493h144v257c0 35.333 11 63.166 33 83.499s49.333 30.5 82 30.5c29.333 0 55.666 -8.33301 78.999 -25l60 114c-34 30 -74.333 45 -121 45c-56.667 0 -100.667 -22 -132 -66zM80.001 698.001v5h130l42 -36l44 36h127v-5l-140 -126h-68z
" />
    <glyph glyph-name="Sacute" unicode="&#x15a;" horiz-adv-x="654" 
d="M492 531l98.001 85.999c-34.667 40 -72.5 68 -113.5 84s-90.167 24 -147.5 24c-76.667 0 -141.834 -18.833 -195.501 -56.5s-80.834 -89.834 -81.501 -156.501c-0.666992 -39.333 6.16602 -72.833 20.499 -100.5s35.5 -49.167 63.5 -64.5s56.833 -26.666 86.5 -33.999
s65.5 -13 107.5 -17c48.667 -4 84.5 -13.5 107.5 -28.5s34.167 -36.833 33.5 -65.5c0 -24.667 -13 -44.667 -39 -60s-59.667 -23 -101 -23c-38.667 0 -77.667 8.33301 -117 25s-71.666 41.334 -96.999 74.001l-93 -97c28 -47.333 70 -83.333 126 -108s116 -36.667 180 -36
c52.667 0.666992 100.667 8.5 144 23.5s79.333 40 108 75s43 77.167 43 126.5c0 136 -89.667 211.667 -269 227c-52 4.66699 -90.167 12.5 -114.5 23.5s-36.5 31.167 -36.5 60.5c0 23.333 12 42 36 56s53.667 21 89 21c30 0 59.833 -5 89.5 -15s53.834 -24.667 72.501 -44z
M497.001 925.999v-6l-115 -139h-125v6l73 139h167z" />
    <glyph glyph-name="sacute" unicode="&#x15b;" horiz-adv-x="497" 
d="M443 444l-70.9961 -90.002c-34 24 -73 36 -117 36c-22.667 0 -40.167 -3.66699 -52.5 -11s-18.5 -17.333 -18.5 -30c0 -27.333 24.333 -41.666 73 -42.999c22 -0.666992 41.833 -2.16699 59.5 -4.5s36.667 -7 57 -14s37.166 -15.833 50.499 -26.5
s24.666 -25.834 33.999 -45.501s14 -42.5 14 -68.5c0.666992 -45.333 -17 -84.333 -53 -117s-90.333 -49 -163 -49c-87.333 0 -164.666 28 -231.999 84l62 102c48.667 -40 106 -60.667 172 -62c21.333 -0.666992 39.166 3 53.499 11s21.166 18.333 20.499 31
c0 27.333 -28 42 -84 44c-24.667 1.33301 -48.5 4.83301 -71.5 10.5s-45 14.334 -66 26.001s-37.833 28 -50.5 49s-19 45.167 -19 72.5c0 52.667 20.667 92.334 62 119.001s91.666 40 150.999 40c76.667 0 139.667 -21.333 189 -64zM403.004 706.998v-6l-107 -129h-116v6
l68 129h155z" />
    <glyph glyph-name="Scircumflex" unicode="&#x15c;" horiz-adv-x="654" 
d="M492 531l98.001 85.999c-34.667 40 -72.5 68 -113.5 84s-90.167 24 -147.5 24c-76.667 0 -141.834 -18.833 -195.501 -56.5s-80.834 -89.834 -81.501 -156.501c-0.666992 -39.333 6.16602 -72.833 20.499 -100.5s35.5 -49.167 63.5 -64.5s56.833 -26.666 86.5 -33.999
s65.5 -13 107.5 -17c48.667 -4 84.5 -13.5 107.5 -28.5s34.167 -36.833 33.5 -65.5c0 -24.667 -13 -44.667 -39 -60s-59.667 -23 -101 -23c-38.667 0 -77.667 8.33301 -117 25s-71.666 41.334 -96.999 74.001l-93 -97c28 -47.333 70 -83.333 126 -108s116 -36.667 180 -36
c52.667 0.666992 100.667 8.5 144 23.5s79.333 40 108 75s43 77.167 43 126.5c0 136 -89.667 211.667 -269 227c-52 4.66699 -90.167 12.5 -114.5 23.5s-36.5 31.167 -36.5 60.5c0 23.333 12 42 36 56s53.667 21 89 21c30 0 59.833 -5 89.5 -15s53.834 -24.667 72.501 -44z
M305.001 928.999h75l149 -140v-5h-140l-47 42l-46 -42h-141v5z" />
    <glyph glyph-name="scircumflex" unicode="&#x15d;" horiz-adv-x="497" 
d="M443 444l-70.9961 -90.002c-34 24 -73 36 -117 36c-22.667 0 -40.167 -3.66699 -52.5 -11s-18.5 -17.333 -18.5 -30c0 -27.333 24.333 -41.666 73 -42.999c22 -0.666992 41.833 -2.16699 59.5 -4.5s36.667 -7 57 -14s37.166 -15.833 50.499 -26.5
s24.666 -25.834 33.999 -45.501s14 -42.5 14 -68.5c0.666992 -45.333 -17 -84.333 -53 -117s-90.333 -49 -163 -49c-87.333 0 -164.666 28 -231.999 84l62 102c48.667 -40 106 -60.667 172 -62c21.333 -0.666992 39.166 3 53.499 11s21.166 18.333 20.499 31
c0 27.333 -28 42 -84 44c-24.667 1.33301 -48.5 4.83301 -71.5 10.5s-45 14.334 -66 26.001s-37.833 28 -50.5 49s-19 45.167 -19 72.5c0 52.667 20.667 92.334 62 119.001s91.666 40 150.999 40c76.667 0 139.667 -21.333 189 -64zM216.004 711.998h68l135 -136v-5h-127
l-42 41l-42 -41h-127v5z" />
    <glyph glyph-name="Scedilla" unicode="&#x15e;" horiz-adv-x="662" 
d="M190 -196l63.001 48.998c8 -9.33301 18.667 -17 32 -23c16.667 -6.66699 34 -8.5 52 -5.5s29 10.833 33 23.5c5.33301 18 -3.83398 30.5 -27.501 37.5s-42.834 3.5 -57.501 -10.5l-37 27l32 83c-121.333 10 -207.333 66 -258 168l128 67
c18 -37.333 42.333 -63.833 73 -79.5s68.667 -23.5 114 -23.5c42.667 0 77 8.16699 103 24.5s39 39.5 39 69.5c0 50.667 -47 80.334 -141 89.001c-40.667 3.33301 -76.334 9 -107.001 17s-59.834 20 -87.501 36s-48.834 38.167 -63.501 66.5s-22 62.166 -22 101.499
c2.66699 66 31.334 117.5 86.001 154.5s119 55.5 193 55.5c55.333 0 106.166 -9.33301 152.499 -28s80.833 -45.667 103.5 -81l-106 -83c-29.333 39.333 -78.666 58.333 -147.999 57c-36.667 -0.666992 -67.167 -8.33398 -91.5 -23.001s-36.5 -34 -36.5 -58
c0 -44.667 46 -70.667 138 -78c41.333 -4.66699 77.5 -11.167 108.5 -19.5s60.5 -20.666 88.5 -36.999s49.5 -38.666 64.5 -66.999s22.5 -62.5 22.5 -102.5c0.666992 -65.333 -21.666 -117.333 -66.999 -156s-105 -62 -179 -70l-14 -38c44 -2 74.667 -14.5 92 -37.5
s23.333 -48.5 18 -76.5c-7.33301 -40.667 -35.666 -70 -84.999 -88c-35.333 -12.667 -73.666 -13.667 -114.999 -3s-72.333 31.334 -93 62.001z" />
    <glyph glyph-name="scedilla" unicode="&#x15f;" horiz-adv-x="497" 
d="M115 -190l57.998 45.002c12.667 -15.333 32.5 -24.5 59.5 -27.5s45.167 5.16699 54.5 24.5c4 11.333 0.666992 21.333 -10 30s-22.834 13 -36.501 13s-25.167 -4 -34.5 -12l-34 26l29 74c-66.667 6 -125.667 33.333 -177 82l59 98c46 -42 104.333 -63 175 -63
c21.333 0 39 4.66699 53 14s20.667 20 20 32c0 27.333 -27.667 42.333 -83 45c-24.667 0.666992 -48.5 4 -71.5 10s-45.167 14.833 -66.5 26.5s-38.166 28.167 -50.499 49.5s-18.5 45.666 -18.5 72.999c0 37.333 12 68.5 36 93.5s51 42 81 51s61.333 13.5 94 13.5
c42 0 77.833 -4.5 107.5 -13.5s58.834 -25.833 87.501 -50.5l-72 -85c-24 22 -62.667 33 -116 33c-22 0 -40.167 -3.16699 -54.5 -9.5s-21.5 -15.5 -21.5 -27.5c0 -13.333 6.83301 -23.5 20.5 -30.5s31.167 -11.333 52.5 -13s44.333 -5.16699 69 -10.5
s47.667 -12.333 69 -21s39.333 -24.167 54 -46.5s22 -50.5 22 -84.5c0.666992 -41.333 -13.666 -78 -42.999 -110s-74 -50.667 -134 -56l-11 -32c36 -0.666992 64.5 -11 85.5 -31s27.5 -46.667 19.5 -80c-6 -31.333 -23.833 -55.333 -53.5 -72
s-62.167 -24.334 -97.5 -23.001c-52.667 2 -93 23.667 -121 65z" />
    <glyph glyph-name="Scaron" unicode="&#x160;" horiz-adv-x="654" 
d="M492 531l98.001 85.999c-34.667 40 -72.5 68 -113.5 84s-90.167 24 -147.5 24c-76.667 0 -141.834 -18.833 -195.501 -56.5s-80.834 -89.834 -81.501 -156.501c-0.666992 -39.333 6.16602 -72.833 20.499 -100.5s35.5 -49.167 63.5 -64.5s56.833 -26.666 86.5 -33.999
s65.5 -13 107.5 -17c48.667 -4 84.5 -13.5 107.5 -28.5s34.167 -36.833 33.5 -65.5c0 -24.667 -13 -44.667 -39 -60s-59.667 -23 -101 -23c-38.667 0 -77.667 8.33301 -117 25s-71.666 41.334 -96.999 74.001l-93 -97c28 -47.333 70 -83.333 126 -108s116 -36.667 180 -36
c52.667 0.666992 100.667 8.5 144 23.5s79.333 40 108 75s43 77.167 43 126.5c0 136 -89.667 211.667 -269 227c-52 4.66699 -90.167 12.5 -114.5 23.5s-36.5 31.167 -36.5 60.5c0 23.333 12 42 36 56s53.667 21 89 21c30 0 59.833 -5 89.5 -15s53.834 -24.667 72.501 -44z
M145.001 907.999v5h147l46 -38l50 38h141v-5l-156 -134h-76z" />
    <glyph glyph-name="scaron" unicode="&#x161;" horiz-adv-x="497" 
d="M443 444l-70.9961 -90.002c-34 24 -73 36 -117 36c-22.667 0 -40.167 -3.66699 -52.5 -11s-18.5 -17.333 -18.5 -30c0 -27.333 24.333 -41.666 73 -42.999c22 -0.666992 41.833 -2.16699 59.5 -4.5s36.667 -7 57 -14s37.166 -15.833 50.499 -26.5
s24.666 -25.834 33.999 -45.501s14 -42.5 14 -68.5c0.666992 -45.333 -17 -84.333 -53 -117s-90.333 -49 -163 -49c-87.333 0 -164.666 28 -231.999 84l62 102c48.667 -40 106 -60.667 172 -62c21.333 -0.666992 39.166 3 53.499 11s21.166 18.333 20.499 31
c0 27.333 -28 42 -84 44c-24.667 1.33301 -48.5 4.83301 -71.5 10.5s-45 14.334 -66 26.001s-37.833 28 -50.5 49s-19 45.167 -19 72.5c0 52.667 20.667 92.334 62 119.001s91.666 40 150.999 40c76.667 0 139.667 -21.333 189 -64zM73.0039 697.998v5h135l43 -38l46 38h130
v-5l-144 -134h-70z" />
    <glyph glyph-name="Tcommaaccent" unicode="&#x162;" horiz-adv-x="617" 
d="M231 0l-0.000976562 559.001h-213v141h581v-141h-213v-559h-52l-16 -49c38 -4.66699 67.667 -16.834 89 -36.501s30.666 -42.834 27.999 -69.501c-4 -41.333 -24.667 -72.833 -62 -94.5s-79 -28.167 -125 -19.5s-82 31.334 -108 68.001l63 55
c22 -24 47.667 -35.333 77 -34c28.667 2 44.667 12 48 30c2.66699 16 -6.16602 29.5 -26.499 40.5s-47.166 12.167 -80.499 3.5l-23 16z" />
    <glyph glyph-name="tcommaaccent" unicode="&#x163;" horiz-adv-x="421" 
d="M114 613l143.999 15.999v-138h127v-124h-128v-199c0 -15.333 5.83301 -26.5 17.5 -33.5s24.5 -10.5 38.5 -10.5c18.667 0 36.667 4.33301 54 13l39 -123c-35.333 -13.333 -71 -20 -107 -20l-13 -35c42.667 -2.66699 72.5 -15.667 89.5 -39s22.833 -48 17.5 -74
c-8 -40.667 -31.333 -69.5 -70 -86.5s-79 -20.5 -121 -10.5s-72.667 29.333 -92 58l55 56c18.667 -18 42.667 -27.5 72 -28.5s46 7.16699 50 24.5c4 18.667 -6.16699 32.834 -30.5 42.501s-47.166 10.167 -68.499 1.5l-20 11l36 97c-60 32 -90 84.333 -90 157v199h-88v124
h88v122z" />
    <glyph glyph-name="Tcaron" unicode="&#x164;" horiz-adv-x="615" 
d="M230 561v-561h155v561h213v139h-581v-139h213zM115 900v6h145l46 -40l49 40h140v-6l-155 -140h-75z" />
    <glyph glyph-name="tcaron" unicode="&#x165;" horiz-adv-x="496" 
d="M108 613l144.001 16v-138h95v-120h-96v-186c0 -23.333 6 -40.166 18 -50.499s26.333 -15.5 43 -15.5c24 0 44 4 60 12l33 -120c-32.667 -12.667 -67.334 -20 -104.001 -22c-58.667 -2.66699 -105.5 11.166 -140.5 41.499s-52.5 81.833 -52.5 154.5v186h-83v120h83v122z
M378.001 418l44 216h131l-75 -216h-100z" />
    <glyph glyph-name="Tbar" unicode="&#x166;" horiz-adv-x="624" 
d="M123 284v117h111v158h-213v141h581v-141h-213v-158h124v-117h-124v-284h-155v284h-111z" />
    <glyph glyph-name="tbar" unicode="&#x167;" horiz-adv-x="420" 
d="M45 204l0.000976562 91h69v78h-88v118h88v122l144 16v-138h127v-118h-128v-78h96v-91h-96v-37c0 -19.333 5.5 -34 16.5 -44s24.167 -15 39.5 -15c22 0 40.333 3.66699 55 11l38 -112c-28.667 -11.333 -63.334 -18 -104.001 -20c-56.667 -2.66699 -102.167 11 -136.5 41
s-51.5 76.333 -51.5 139v37h-69z" />
    <glyph glyph-name="Utilde" unicode="&#x168;" horiz-adv-x="774" 
d="M551 699l155 -0.000976562v-391c0 -102 -26.5 -180.833 -79.5 -236.5s-126.5 -85.167 -220.5 -88.5c-97.333 -3.33301 -178 23 -242 79s-96 138 -96 246v391h155v-391c0 -62 16.333 -109 49 -141s77.667 -46.667 135 -44c96 6.66699 144 68.334 144 185.001v391z
M286 769.999l-89.998 52.999c38 80.667 89.333 112.667 154 96c8.66699 -2 19 -5.83301 31 -11.5l30.5 -14c8.33301 -3.66699 17.166 -6.16699 26.499 -7.5s17.666 0.666992 24.999 6s13.333 14.666 18 27.999l95 -47c-38 -86 -87.333 -117.667 -148 -95
c-9.33301 2.66699 -21 7.33398 -35 14.001s-25 11.334 -33 14.001s-17 4.33398 -27 5.00098s-18.833 -2.33301 -26.5 -9s-14.5 -17.334 -20.5 -32.001z" />
    <glyph glyph-name="utilde" unicode="&#x169;" 
d="M54 494h145v-261c0 -76.667 34 -115 102 -115c32.667 -0.666992 59.5 11 80.5 35s31.5 52.667 31.5 86v255h142v-494h-130l-5 65c-38 -51.333 -91.333 -76.333 -160 -75c-137.333 0 -206 80.667 -206 242v262zM209 569l-82.998 50.998c35.333 78 82.666 109 141.999 93
c7.33301 -2 16.5 -5.66699 27.5 -11l28.5 -13.5c8 -3.66699 16.167 -6.16699 24.5 -7.5s15.833 0.666992 22.5 6s12.334 14.333 17.001 27l86 -45c-34 -83.333 -79 -114.333 -135 -93c-8.66699 2.66699 -19.334 7.16699 -32.001 13.5s-22.834 10.833 -30.501 13.5
s-16 4.33398 -25 5.00098s-17 -2.16602 -24 -8.49902s-13.167 -16.5 -18.5 -30.5z" />
    <glyph glyph-name="Umacron" unicode="&#x16a;" horiz-adv-x="774" 
d="M551 699l155 -0.000976562v-391c0 -102 -26.5 -180.833 -79.5 -236.5s-126.5 -85.167 -220.5 -88.5c-97.333 -3.33301 -178 23 -242 79s-96 138 -96 246v391h155v-391c0 -62 16.333 -109 49 -141s77.667 -46.667 135 -44c96 6.66699 144 68.334 144 185.001v391z
M219 770.999v125h342v-125h-342z" />
    <glyph glyph-name="umacron" unicode="&#x16b;" 
d="M54 494h145v-261c0 -76.667 34 -115 102 -115c32.667 -0.666992 59.5 11 80.5 35s31.5 52.667 31.5 86v255h142v-494h-130l-5 65c-38 -51.333 -91.333 -76.333 -160 -75c-137.333 0 -206 80.667 -206 242v262zM145 592v118h319v-118h-319z" />
    <glyph glyph-name="Ubreve" unicode="&#x16c;" horiz-adv-x="774" 
d="M551 699l155 -0.000976562v-391c0 -102 -26.5 -180.833 -79.5 -236.5s-126.5 -85.167 -220.5 -88.5c-97.333 -3.33301 -178 23 -242 79s-96 138 -96 246v391h155v-391c0 -62 16.333 -109 49 -141s77.667 -46.667 135 -44c96 6.66699 144 68.334 144 185.001v391z
M436 904.999l120 -0.000976562c2 -43.333 -12.833 -78.5 -44.5 -105.5s-71.5 -40.5 -119.5 -40.5s-89.167 12.833 -123.5 38.5s-48.833 61.5 -43.5 107.5h120c0 -15.333 5.16699 -26.166 15.5 -32.499s20.833 -9.5 31.5 -9.5c29.333 0 44 14 44 42z" />
    <glyph glyph-name="ubreve" unicode="&#x16d;" 
d="M54 494h145v-261c0 -76.667 34 -115 102 -115c32.667 -0.666992 59.5 11 80.5 35s31.5 52.667 31.5 86v255h142v-494h-130l-5 65c-38 -51.333 -91.333 -76.333 -160 -75c-137.333 0 -206 80.667 -206 242v262zM357 707l114.999 -0.000976562
c2 -42 -12.167 -76 -42.5 -102s-68.5 -39 -114.5 -39s-85.667 12.333 -119 37s-47.333 59.334 -42 104.001h116c0 -14.667 4.83301 -25 14.5 -31s19.834 -9 30.501 -9c28 0 42 13.333 42 40z" />
    <glyph glyph-name="Uring" unicode="&#x16e;" horiz-adv-x="774" 
d="M551 699l155 -0.000976562v-391c0 -102 -26.5 -180.833 -79.5 -236.5s-126.5 -85.167 -220.5 -88.5c-97.333 -3.33301 -178 23 -242 79s-96 138 -96 246v391h155v-391c0 -62 16.333 -109 49 -141s77.667 -46.667 135 -44c96 6.66699 144 68.334 144 185.001v391z
M257 867.999c0 39.333 13.5 68.5 40.5 87.5s59.167 28.5 96.5 28.5c36 0 66.667 -9.5 92 -28.5s38 -48.167 38 -87.5c0 -35.333 -13.167 -63 -39.5 -83s-56.5 -30 -90.5 -30c-36.667 0 -68.667 9.16699 -96 27.5s-41 46.833 -41 85.5zM391 915.999
c-22 0 -37.667 -7.66699 -47 -23s-9.33301 -30.833 0 -46.5s25 -23.5 47 -23.5c22.667 0 38.5 7.83301 47.5 23.5s8.83301 31.167 -0.5 46.5s-25 23 -47 23z" />
    <glyph glyph-name="uring" unicode="&#x16f;" 
d="M54 494h145v-261c0 -76.667 34 -115 102 -115c32.667 -0.666992 59.5 11 80.5 35s31.5 52.667 31.5 86v255h142v-494h-130l-5 65c-38 -51.333 -91.333 -76.333 -160 -75c-137.333 0 -206 80.667 -206 242v262zM185 660c0 36 12.667 62.499 38 79.499s56 25.5 92 25.5
c34 0 63 -8.66699 87 -26s36 -43.666 36 -78.999c0 -32 -12.5 -57.167 -37.5 -75.5s-53.5 -27.5 -85.5 -27.5c-34.667 0 -65 8.33301 -91 25s-39 42.667 -39 78zM312 703.999c-21.333 0 -36.333 -7 -45 -21s-8.66699 -28.167 0 -42.5s23.667 -21.5 45 -21.5
s36.333 7.16699 45 21.5s8.5 28.5 -0.5 42.5s-23.833 21 -44.5 21z" />
    <glyph glyph-name="Uhungarumlaut" unicode="&#x170;" horiz-adv-x="774" 
d="M706 699l-155 0.000976562v-391c0 -116.667 -48 -178.334 -144 -185.001c-57.333 -2.66699 -102.333 12 -135 44s-49 79 -49 141v391h-155v-391c0 -108 32 -190 96 -246s144.667 -82.333 242 -79c94 3.33301 167.5 32.833 220.5 88.5s79.5 134.5 79.5 236.5v391z
M502 907.001h147v-5l-118 -141h-127zM309 908.001h146v-5l-104 -141h-133z" />
    <glyph glyph-name="uhungarumlaut" unicode="&#x171;" 
d="M199 494h-145v-262c0 -161.333 68.667 -242 206 -242c68.667 -1.33301 122 23.667 160 75l5 -65h130v494h-142v-255c0 -33.333 -10.5 -62 -31.5 -86s-47.833 -35.667 -80.5 -35c-68 0 -102 38.333 -102 115v261zM412 701h141v-4l-113 -127h-123zM226 702h141v-5
l-100 -126h-128z" />
    <glyph glyph-name="Uogonek" unicode="&#x172;" horiz-adv-x="776" 
d="M551 699l155.001 0.000976562v-413c0 -67.333 -15.667 -125 -47 -173s-72.666 -82.667 -123.999 -104h1c-32.667 -11.333 -48 -28 -46 -50c2 -16.667 12 -27.667 30 -33c22 -5.33301 42.667 2 62 22l82 -70c-23.333 -38 -57.833 -62.333 -103.5 -73
s-86.834 -5.33398 -123.501 15.999c-28 15.333 -47 39.333 -57 72s-8 63.667 6 93c-98 2 -175.5 30.5 -232.5 85.5s-85.5 133.833 -85.5 236.5v391h155v-391c0 -116.667 53.333 -178 160 -184c55.333 -2.66699 97.166 12.5 125.499 45.5s42.5 79.167 42.5 138.5v391z" />
    <glyph glyph-name="uogonek" unicode="&#x173;" horiz-adv-x="615" 
d="M554 492l0.00390625 -560.997c-19.333 4.66699 -42 0.5 -68 -12.5s-35.333 -30.833 -28 -53.5c6 -18 20.167 -28 42.5 -30s47.166 8.66699 74.499 32l45 -61c-20.667 -28 -49.667 -47.333 -87 -58s-73.666 -9.83398 -108.999 2.49902s-60.333 34.833 -75 67.5
c-14.667 29.333 -14.834 61.166 -0.500977 95.499s40.166 58.166 77.499 71.499l-10 74c-29.333 -24 -55.833 -41.167 -79.5 -51.5s-51.834 -15.5 -84.501 -15.5c-54.667 0 -101.334 20.833 -140.001 62.5s-58 98.167 -58 169.5v268h144v-267
c0 -27.333 9.83301 -51.333 29.5 -72s43.5 -31 71.5 -31c32.667 0 59.5 12.167 80.5 36.5s31.5 53.833 31.5 88.5v245h143z" />
    <glyph glyph-name="Wcircumflex" unicode="&#x174;" horiz-adv-x="1073" 
d="M814 1l254 699h-175l-83 -240l-60 -225l-164 465h-102l-157 -465l-63 226l-87 239h-175l261 -699h128l145 391l150 -391h128zM495 932h82l162 -152v-5h-152l-52 45l-50 -45h-153v5z" />
    <glyph glyph-name="wcircumflex" unicode="&#x175;" horiz-adv-x="845" 
d="M479 494h-113l-95 -315l-32 112l-69 203h-161l182 -497h144l87 247l88 -247h143l183 497h-161l-69 -203l-32 -112zM388 718h76l152 -139v-5h-143l-47 42l-47 -42h-143v5z" />
    <glyph glyph-name="Ycircumflex" unicode="&#x176;" horiz-adv-x="704" 
d="M352 422l-168 278h-180v-8l268 -414v-278h156v278l280 414v8h-179zM315 920h78l154 -138v-5h-145l-48 42l-48 -42h-146v5z" />
    <glyph glyph-name="ycircumflex" unicode="&#x177;" horiz-adv-x="573" 
d="M568 494h-159l-121 -311l-123 311h-162l207 -479l-102 -237h157zM247 723h83l166 -146v-5h-156l-52 43l-51 -43h-157v5z" />
    <glyph glyph-name="Ydieresis" unicode="&#x178;" horiz-adv-x="704" 
d="M352 422l-168 278h-180v-8l268 -414v-278h156v278l280 414v8h-179zM150 837c0 31.333 12.667 53.5 38 66.5s50.666 13 75.999 0s38 -35.167 38 -66.5s-12.667 -53.333 -38 -66s-50.666 -12.667 -75.999 0s-38 34.667 -38 66zM398 837c0 31.333 12.667 53.5 38 66.5
s50.5 13 75.5 0s37.5 -35.167 37.5 -66.5c0 -23.333 -7.83301 -41.666 -23.5 -54.999s-33 -20 -52 -20s-36.333 6.66699 -52 20s-23.5 31.666 -23.5 54.999z" />
    <glyph glyph-name="Zacute" unicode="&#x179;" horiz-adv-x="628" 
d="M48 700v-134h325l-342 -485v-81h560v146h-344l336 486v68h-535zM472 914v-6l-116 -141h-126v7l74 140h168z" />
    <glyph glyph-name="zacute" unicode="&#x17a;" horiz-adv-x="479" 
d="M434 494h-388v-125h198l-217 -308v-61h417v133h-217l207 291v70zM407 698v-5l-108 -123h-117v6l69 122h156z" />
    <glyph glyph-name="Zdotaccent" unicode="&#x17b;" horiz-adv-x="628" 
d="M48 700v-134h325l-342 -485v-81h560v146h-344l336 486v68h-535zM231 847c0 24.667 9.5 44 28.5 58s40.167 21 63.5 21s44.5 -7 63.5 -21s28.5 -33.333 28.5 -58c0 -24 -9.5 -43 -28.5 -57s-40.167 -21 -63.5 -21s-44.5 7 -63.5 21s-28.5 33 -28.5 57z" />
    <glyph glyph-name="zdotaccent" unicode="&#x17c;" horiz-adv-x="479" 
d="M434 494h-388v-125h198l-217 -308v-61h417v133h-217l207 291v70zM174 649c0 29.333 14.168 50.166 42.501 62.499s56.666 12.333 84.999 0s42.5 -33.166 42.5 -62.499c0 -22 -8.83301 -39.167 -26.5 -51.5s-37.167 -18.5 -58.5 -18.5s-40.833 6.16699 -58.5 18.5
s-26.5 29.5 -26.5 51.5z" />
    <glyph glyph-name="Zcaron" unicode="&#x17d;" horiz-adv-x="628" 
d="M48 700v-134h325l-342 -485v-81h560v146h-344l336 486v68h-535zM135 901v6h145l46 -40l49 40h140v-6l-155 -140h-75z" />
    <glyph glyph-name="zcaron" unicode="&#x17e;" horiz-adv-x="479" 
d="M434 494h-388v-125h198l-217 -308v-61h417v133h-217l207 291v70zM72 691v6h137l43 -36l46 36h131v-6l-145 -126h-71z" />
    <glyph glyph-name="longs" unicode="&#x17f;" horiz-adv-x="337" 
d="M256 0l-144 -0.00195312v359h-89v126h89v29c0 66.667 19.833 116.834 59.5 150.501s86.5 50.5 140.5 50.5c50 0 93 -11.333 129 -34l-51 -108c-18 12.667 -40.333 19 -67 19c-19.333 0 -35.333 -6.66699 -48 -20s-19 -32.666 -19 -57.999v-514z" />
    <glyph glyph-name="florin" unicode="&#x192;" horiz-adv-x="498" 
d="M431 364h-137.001v-369c0 -46.667 -10 -86 -30 -118s-45.333 -53.833 -76 -65.5s-64.5 -15.5 -101.5 -11.5s-72.5 16.667 -106.5 38l49 101c35.333 -20 64.333 -25 87 -15s34 33.667 34 71v369h-101v121h101v29c0 66 19.833 115.667 59.5 149s86.5 50 140.5 50
c46.667 0 92.334 -14 137.001 -42l-49 -101c-22 13.333 -45.667 20 -71 20c-22.667 0 -40.5 -6.33301 -53.5 -19s-19.5 -31.667 -19.5 -57v-29h137v-121z" />
    <glyph glyph-name="Aringacute" unicode="&#x1fa;" horiz-adv-x="790" 
d="M395 542l120 -284h-241zM394 781c23.333 0 40 -8.83301 50 -26.5s10.333 -35.334 1 -53.001s-26.333 -26.5 -51 -26.5c-23.333 0 -39.833 8.83301 -49.5 26.5s-9.66699 35.334 0 53.001s26.167 26.5 49.5 26.5zM252 733c0 -36 11.333 -64.332 34 -84.999l-290 -648h168
l51 120h359l51 -120h169l-292 651c22.667 21.333 34 48.666 34 81.999c0 41.333 -14.167 72 -42.5 92s-60.5 30 -96.5 30c-36.667 0 -70 -9.83301 -100 -29.5s-45 -50.5 -45 -92.5zM573 980.001v-4l-121 -96h-131v5l77 95h175z" />
    <glyph glyph-name="aringacute" unicode="&#x1fb;" horiz-adv-x="639" 
d="M438 437c-12.667 21.333 -32.166 38 -58.499 50s-55.5 18 -87.5 18c-74.667 1.33301 -136.5 -21.334 -185.5 -68.001s-73.5 -110 -73.5 -190s23.667 -143.167 71 -189.5s108.666 -69.166 183.999 -68.499c28 0.666992 56.5 7 85.5 19s51.167 30 66.5 54l8 -62h130v494
h-135zM307.001 378c41.333 0 73.5 -13.167 96.5 -39.5s34.5 -58.5 34.5 -96.5c0 -32.667 -12.167 -61.667 -36.5 -87s-55.833 -38 -94.5 -38c-37.333 0 -68.333 11.667 -93 35s-37 55 -37 95s12.333 71.833 37 95.5s55.667 35.5 93 35.5zM192.001 640
c0 -35.333 12.8311 -61.334 38.498 -78.001s55.834 -25 90.501 -25c32 0 60.333 9.16699 85 27.5s37 43.5 37 75.5c0 36 -11.833 62.5 -35.5 79.5s-52.5 25.5 -86.5 25.5c-35.333 0 -65.666 -8.66699 -90.999 -26s-38 -43.666 -38 -78.999zM317.999 683.999
c20.667 0 35.5029 -7 44.5029 -21s9.16699 -28.167 0.5 -42.5s-23.667 -21.5 -45 -21.5c-20.667 0 -35.334 7.16699 -44.001 21.5s-8.83398 28.5 -0.500977 42.5s23.166 21 44.499 21zM485.002 874.999v-5l-110 -96h-121v4l71 97h160z" />
    <glyph glyph-name="AEacute" unicode="&#x1fc;" horiz-adv-x="892" 
d="M849 0v138h-269v150h236v132h-236v144h253v136h-421l-439 -700h182l63 109h222v-109h409zM440 246h-142l148 254zM692 904v-5l-119 -133h-130v7l77 131h172z" />
    <glyph glyph-name="aeacute" unicode="&#x1fd;" horiz-adv-x="962" 
d="M564 205l366.001 0.000976562c18 90 3.83301 163 -42.5 219s-105.833 84 -178.5 84c-71.333 0 -125.333 -21.667 -162 -65v50h-108l-5 -56c-33.333 45.333 -83.333 68 -150 68c-69.333 0 -128.5 -23 -177.5 -69s-73.5 -109 -73.5 -189c0 -86.667 22.667 -151.5 68 -194.5
s107 -64.167 185 -63.5c28.667 0.666992 58.167 7.16699 88.5 19.5s50.5 30.166 60.5 53.499l1 -62h105l6 53c32 -46 83.333 -69 154 -69c86.667 0 153 25 199 75l-77 92c-32 -27.333 -72.667 -41 -122 -41c-32.667 0 -61.834 8.33301 -87.501 25s-42.167 40 -49.5 70z
M306.001 379.001c42 0 74.833 -13.832 98.5 -41.499s35.5 -58 35.5 -91s-11.833 -63.333 -35.5 -91s-56.5 -41.5 -98.5 -41.5c-37.333 0 -68.166 11.833 -92.499 35.5s-36.5 56.167 -36.5 97.5s12.167 73.666 36.5 96.999s55.166 35 92.499 35zM567.001 311.002
c22 48.667 67 73 135 73c24 0 45 -6.16699 63 -18.5s28.667 -30.5 32 -54.5h-230zM655.001 700.002v-6l-107 -129h-116v6l68 129h155z" />
    <glyph glyph-name="Oslashacute" unicode="&#x1fe;" horiz-adv-x="798" 
d="M585 932v-6l-116 -141h-126v7l74 140h168zM400 715c-58.667 0 -111.668 -10.668 -159.001 -32.001s-85.333 -49.833 -114 -85.5s-50.667 -75.334 -66 -119.001s-23 -88.834 -23 -135.501c0 -111.333 36 -201.666 108 -270.999l-87 -142h149l47 77
c42 -16 90.333 -24 145 -24c60 0 113.667 10.333 161 31s85 48.334 113 83.001s49.333 73 64 115s22.334 86.333 23.001 133c0.666992 54.667 -9.5 107.334 -30.5 158.001s-51.833 93.667 -92.5 129l82 135h-150l-44 -71c-44 12.667 -86 19 -126 19zM399.999 124.999
c-22.667 0 -45.666 2.33301 -68.999 7l228 372c34 -43.333 50.333 -97.333 49 -162c-0.666992 -27.333 -4.83398 -53.166 -12.501 -77.499s-19 -47.333 -34 -69s-36.333 -38.834 -64 -51.501s-60.167 -19 -97.5 -19zM400 573.999c12 0 28.666 -1.3291 49.999 -3.99609
l-225 -365c-20 37.333 -31.333 82.666 -34 135.999c-0.666992 27.333 2.83301 54.166 10.5 80.499s19.334 51.166 35.001 74.499s37.667 42.166 66 56.499s60.833 21.5 97.5 21.5z" />
    <glyph glyph-name="oslashacute" unicode="&#x1ff;" horiz-adv-x="605" 
d="M467 709v-5l-104 -127h-113v6l66 126h151zM302 -11c82.667 0 148.501 23.833 197.501 71.5s73.5 109.5 73.5 185.5c0 84 -30 150.667 -90 200l62 105h-126l-33 -56c-27.333 7.33301 -55.333 11 -84 11c-80.667 0 -145.834 -24.5 -195.501 -73.5
s-74.5 -111.167 -74.5 -186.5c0 -86 30 -152.667 90 -200l-59 -101h126l31 54c24 -6.66699 51.333 -10 82 -10zM302.001 376c6 0 10.667 -0.332031 14 -0.999023l-119 -202c-12.667 21.333 -19 45.666 -19 72.999c0 34.667 10.667 65 32 91s52 39 92 39zM302.001 117.001
h-12l118 201c12.667 -21.333 19 -45.333 19 -72c0 -36 -10.5 -66.5 -31.5 -91.5s-52.167 -37.5 -93.5 -37.5z" />
    <glyph glyph-name="Scommaaccent" unicode="&#x218;" horiz-adv-x="654" 
d="M590 617l-98.001 -85.999c-18.667 19.333 -42.834 34 -72.501 44s-59.5 15 -89.5 15c-35.333 0 -65 -7 -89 -21s-36 -32.667 -36 -56c0 -29.333 12.167 -49.5 36.5 -60.5s62.5 -18.833 114.5 -23.5c179.333 -15.333 269 -91 269 -227c0 -49.333 -14.333 -91.5 -43 -126.5
s-64.667 -60 -108 -75s-91.333 -22.833 -144 -23.5c-64 -0.666992 -124 11.333 -180 36s-98 60.667 -126 108l93 97c25.333 -32.667 57.666 -57.334 96.999 -74.001s78.333 -25 117 -25c41.333 0 75 7.66699 101 23s39 35.333 39 60c0.666992 28.667 -10.5 50.5 -33.5 65.5
s-58.833 24.5 -107.5 28.5c-42 4 -77.833 9.66699 -107.5 17s-58.5 18.666 -86.5 33.999s-49.167 36.833 -63.5 64.5s-21.166 61.167 -20.499 100.5c0.666992 66.667 27.834 118.834 81.501 156.501s118.834 56.5 195.501 56.5c57.333 0 106.5 -8 147.5 -24
s78.833 -44 113.5 -84zM424.999 -135.999c0 -11.333 -1.66797 -24.001 -5.00098 -38.001s-7 -26.333 -11 -37s-9.66699 -24.834 -17 -42.501s-12.666 -31.5 -15.999 -41.5h-83l16 100c-38.667 6 -58 25 -58 57c0 18.667 6 34.334 18 47.001s26.5 20.334 43.5 23.001
s34 2.66699 51 0s31.5 -10.167 43.5 -22.5s18 -27.5 18 -45.5z" />
    <glyph glyph-name="scommaaccent" unicode="&#x219;" horiz-adv-x="497" 
d="M443 444l-70.9961 -90.002c-34 24 -73 36 -117 36c-22.667 0 -40.167 -3.66699 -52.5 -11s-18.5 -17.333 -18.5 -30c0 -27.333 24.333 -41.666 73 -42.999c22 -0.666992 41.833 -2.16699 59.5 -4.5s36.667 -7 57 -14s37.166 -15.833 50.499 -26.5
s24.666 -25.834 33.999 -45.501s14 -42.5 14 -68.5c0.666992 -45.333 -17 -84.333 -53 -117s-90.333 -49 -163 -49c-87.333 0 -164.666 28 -231.999 84l62 102c48.667 -40 106 -60.667 172 -62c21.333 -0.666992 39.166 3 53.499 11s21.166 18.333 20.499 31
c0 27.333 -28 42 -84 44c-24.667 1.33301 -48.5 4.83301 -71.5 10.5s-45 14.334 -66 26.001s-37.833 28 -50.5 49s-19 45.167 -19 72.5c0 52.667 20.667 92.334 62 119.001s91.666 40 150.999 40c76.667 0 139.667 -21.333 189 -64zM329.004 -130.002
c0 -13.333 -1.83301 -27.166 -5.5 -41.499s-10 -33.333 -19 -57l-17.5 -46.5h-73l15 92c-34 4.66699 -51 22 -51 52c0 17.333 5.16699 31.666 15.5 42.999s22.833 18.333 37.5 21s29.5 2.66699 44.5 0s27.667 -9.66699 38 -21s15.5 -25.333 15.5 -42z" />
    <glyph glyph-name="uni021A" unicode="&#x21a;" horiz-adv-x="615" 
d="M230 0v561h-213v139h581v-139h-213v-561h-155zM385 -122c0 -12 -1.49902 -25.167 -4.49902 -39.5s-6.33301 -26.833 -10 -37.5l-15 -43.5l-14.5 -42.5h-76l15 103c-16.667 2.66699 -29.834 9 -39.501 19s-14.5 23 -14.5 39c0 19.333 5.5 35.5 16.5 48.5s24.333 21 40 24
s31.167 3 46.5 0s28.5 -11 39.5 -24s16.5 -28.5 16.5 -46.5z" />
    <glyph glyph-name="uni021B" unicode="&#x21b;" horiz-adv-x="419" 
d="M113 613l144.001 16.001v-138h125v-120h-126v-186c0 -44 18.667 -66 56 -66c24 0 44 4 60 12l33 -120c-32.667 -12.667 -67.334 -20 -104.001 -22c-58 -2.66699 -103.833 11.166 -137.5 41.499s-50.5 81.833 -50.5 154.5v186h-88v120h88v122zM325.001 -128.999
c0 -12 -1.49902 -25.167 -4.49902 -39.5s-6.33301 -26.833 -10 -37.5l-15 -43.5l-14.5 -42.5h-76l15 103c-16.667 2.66699 -29.834 9 -39.501 19s-14.5 23 -14.5 39c0 32 13.333 54.333 40 67s53.167 12.5 79.5 -0.5s39.5 -34.5 39.5 -64.5z" />
    <glyph glyph-name="dotlessj" unicode="&#x237;" horiz-adv-x="265" 
d="M61 495l143.001 -0.00195312v-540c0 -71.333 -14.5 -123.166 -43.5 -155.499s-72.167 -48.5 -129.5 -48.5c-42.667 0 -81.334 11.667 -116.001 35l49 104c20.667 -8.66699 39 -12.667 55 -12c28 2.66699 42 28.334 42 77.001v540z" />
    <glyph glyph-name="circumflex" unicode="&#x2c6;" horiz-adv-x="451" 
d="M183 719h75l149 -140v-5h-140l-47 42l-46 -42h-141v5z" />
    <glyph glyph-name="caron" unicode="&#x2c7;" horiz-adv-x="434" 
d="M25 694v6h145l46 -40l49 40h140v-6l-155 -140h-75z" />
    <glyph glyph-name="breve" unicode="&#x2d8;" horiz-adv-x="406" 
d="M243 699l114.999 0.00195312c2 -46.667 -12.167 -84.334 -42.5 -113.001s-68.5 -43 -114.5 -43s-85.667 13.667 -119 41s-47.333 65.666 -42 114.999h116c0 -16 4.83301 -27.333 14.5 -34s19.834 -10 30.501 -10c28 0 42 14.667 42 44z" />
    <glyph glyph-name="dotaccent" unicode="&#x2d9;" horiz-adv-x="276" 
d="M59 632c0 33.333 13.668 56.833 41.001 70.5s54.666 13.667 81.999 0s41 -37.167 41 -70.5c0 -24.667 -8.5 -44 -25.5 -58s-35.833 -21 -56.5 -21s-39.5 7 -56.5 21s-25.5 33.333 -25.5 58z" />
    <glyph glyph-name="ring" unicode="&#x2da;" horiz-adv-x="427" 
d="M67 585c0 44 14.333 76.5 43 97.5s63 31.5 103 31.5c38.667 0 71.5 -10.667 98.5 -32s40.5 -53.666 40.5 -96.999c0 -40 -14 -71 -42 -93s-60.333 -33 -97 -33c-39.333 0 -73.5 10.167 -102.5 30.5s-43.5 52.166 -43.5 95.499zM210 639c-24 0 -40.833 -8.66699 -50.5 -26
s-9.5 -34.666 0.5 -51.999s26.667 -26 50 -26c24.667 0 41.667 8.66699 51 26s9 34.666 -1 51.999s-26.667 26 -50 26z" />
    <glyph glyph-name="ogonek" unicode="&#x2db;" horiz-adv-x="390" 
d="M252 -156l71 -60.002c-25.333 -38 -64.666 -58 -117.999 -60c-33.333 -1.33301 -63.833 4.83398 -91.5 18.501s-47.5 36.167 -59.5 67.5c-4 10.667 -6 23.334 -6 38.001s3 30.667 9 48s16.667 32.166 32 44.499s36.5 21.833 63.5 28.5s61.167 6.33398 102.5 -0.999023
l15 -58c-14.667 6 -38.5 4.66699 -71.5 -4s-46.167 -26 -39.5 -52c4 -17.333 17.667 -26 41 -26s40.666 5.33301 51.999 16z" />
    <glyph glyph-name="tilde" unicode="&#x2dc;" horiz-adv-x="418" 
d="M111 644l-85 50c36 76 84.333 106 145 90c8.66699 -2 20.5 -6.5 35.5 -13.5s27 -12.167 36 -15.5s18.5 -3 28.5 1s17.667 13.667 23 29l89 -44c-34.667 -80.667 -81 -110.667 -139 -90c-8.66699 2.66699 -19.5 7 -32.5 13s-23.333 10.333 -31 13s-16.167 4.5 -25.5 5.5
s-17.5 -1.83301 -24.5 -8.5s-13.5 -16.667 -19.5 -30z" />
    <glyph glyph-name="hungarumlaut" unicode="&#x2dd;" horiz-adv-x="382" 
d="M310 701h148v-5l-119 -144h-129zM114 702h148v-5l-105 -144h-135z" />
    <glyph glyph-name="_375" unicode="&#x394;" horiz-adv-x="794" 
d="M777 31v-31h-768v36l298 664h170zM392 546l-178 -411h355z" />
    <glyph glyph-name="_376" unicode="&#x3a9;" horiz-adv-x="826" 
d="M413 574c-67.333 0 -119.499 -21.667 -156.499 -65s-56.167 -93.333 -57.5 -150c-1.33301 -46 10.167 -89.5 34.5 -130.5s58.166 -70.833 101.499 -89.5v-139h-253v133h79c-75.333 53.333 -113 131 -113 233c0 100 35.167 183.167 105.5 249.5s156.833 99.5 259.5 99.5
s189.167 -33.167 259.5 -99.5s105.5 -149.5 105.5 -249.5s-37.333 -177.667 -112 -233h78v-133h-253v139c43.333 18.667 77.166 48.5 101.499 89.5s35.833 84.5 34.5 130.5c-0.666992 56 -19.667 105.833 -57 149.5s-89.666 65.5 -156.999 65.5z" />
    <glyph glyph-name="pi" unicode="&#x3c0;" horiz-adv-x="671" 
d="M263 0l-143 0.000976562v367h-98v126h614v-126h-98v-209c0 -44.667 26 -60.334 78 -47.001l14 -114c-156 -30 -234.333 23 -235 159v211h-132v-367z" />
    <glyph glyph-name="Wgrave" unicode="&#x1e80;" horiz-adv-x="1073" 
d="M1068 700l-254 -699h-128l-150 391l-145 -391h-128l-261 699h175l87 -239l63 -226l157 465h102l164 -465l60 225l83 240h175zM347 903v6h182l80 -130v-6h-137z" />
    <glyph glyph-name="wgrave" unicode="&#x1e81;" horiz-adv-x="845" 
d="M366 494h113l95 -315l32 112l69 203h161l-183 -497h-143l-88 247l-87 -247h-144l-182 497h161l69 -203l32 -112zM258 693v6h165l72 -123v-6h-123z" />
    <glyph glyph-name="Wacute" unicode="&#x1e82;" horiz-adv-x="1073" 
d="M814 1l254 699h-175l-83 -240l-60 -225l-164 465h-102l-157 -465l-63 226l-87 239h-175l261 -699h128l145 391l150 -391h128zM721 910v-5l-124 -133h-134v7l79 131h179z" />
    <glyph glyph-name="wacute" unicode="&#x1e83;" horiz-adv-x="845" 
d="M479 494h-113l-95 -315l-32 112l-69 203h-161l182 -497h144l87 247l88 -247h143l183 497h-161l-69 -203l-32 -112zM584 701v-6l-116 -126h-125v6l74 126h167z" />
    <glyph glyph-name="Wdieresis" unicode="&#x1e84;" horiz-adv-x="1073" 
d="M814 1l254 699h-175l-83 -240l-60 -225l-164 465h-102l-157 -465l-63 226l-87 239h-175l261 -699h128l145 391l150 -391h128zM324 833c0 24.667 8.33301 44 25 58s34.834 21 54.501 21s37.834 -7 54.501 -21s25 -33.333 25 -58s-8.33301 -44 -25 -58
s-34.834 -21 -54.501 -21s-37.834 7 -54.501 21s-25 33.333 -25 58zM584 833c0 24.667 8.33301 44 25 58s34.834 21 54.501 21s37.834 -7 54.501 -21s25 -33.333 25 -58s-8.33301 -44 -25 -58s-34.834 -21 -54.501 -21s-37.834 7 -54.501 21s-25 33.333 -25 58z" />
    <glyph glyph-name="wdieresis" unicode="&#x1e85;" horiz-adv-x="845" 
d="M479 494h-113l-95 -315l-32 112l-69 203h-161l182 -497h144l87 247l88 -247h143l183 497h-161l-69 -203l-32 -112zM227 634c0 30.667 12.165 52.334 36.498 65.001s48.833 12.667 73.5 0s37 -34.334 37 -65.001c0 -22.667 -7.66699 -40.5 -23 -53.5
s-32.166 -19.5 -50.499 -19.5s-35.166 6.5 -50.499 19.5s-23 30.833 -23 53.5zM467.998 634c0 30.667 12.332 52.334 36.999 65.001s49.334 12.667 74.001 0s37 -34.334 37 -65.001c0 -22.667 -7.66699 -40.5 -23 -53.5s-32.333 -19.5 -51 -19.5s-35.667 6.5 -51 19.5
s-23 30.833 -23 53.5z" />
    <glyph glyph-name="Ygrave" unicode="&#x1ef2;" horiz-adv-x="704" 
d="M184 700l168 -278l177 278h179v-8l-280 -414v-278h-156v278l-268 414v8h180zM184 905v5h183l81 -129v-6h-138z" />
    <glyph glyph-name="ygrave" unicode="&#x1ef3;" horiz-adv-x="573" 
d="M409 494h159l-303 -716h-157l102 237l-207 479h162l123 -311zM121 692v6h169l74 -132v-7h-127z" />
    <glyph glyph-name="endash" unicode="&#x2013;" horiz-adv-x="597" 
d="M58 223v125h481v-125h-481z" />
    <glyph glyph-name="emdash" unicode="&#x2014;" horiz-adv-x="690" 
d="M58 226v125h574v-125h-574z" />
    <glyph glyph-name="quoteleft" unicode="&#x2018;" horiz-adv-x="273" 
d="M235 701l-49 -244h-147l85 244h111z" />
    <glyph glyph-name="quoteright" unicode="&#x2019;" horiz-adv-x="267" 
d="M46 458l49 242h147l-84 -242h-112z" />
    <glyph glyph-name="quotesinglbase" unicode="&#x201a;" horiz-adv-x="280" 
d="M26 -135l49 242h146l-84 -242h-111z" />
    <glyph glyph-name="quotedblleft" unicode="&#x201c;" horiz-adv-x="446" 
d="M408 699l-49 -242h-135l72 242h112zM235 699l-59 -242h-136l83 242h112z" />
    <glyph glyph-name="quotedblright" unicode="&#x201d;" horiz-adv-x="441" 
d="M47 457l49 242h135l-72 -242h-112zM220 457l59 242h136l-83 -242h-112z" />
    <glyph glyph-name="quotedblbase" unicode="&#x201e;" horiz-adv-x="469" 
d="M26 -135l49 242h146l-84 -242h-111zM215 -135l49 242h146l-84 -242h-111z" />
    <glyph glyph-name="dagger" unicode="&#x2020;" horiz-adv-x="603" 
d="M381 699v-184h189v-129h-189v-497h-159v497h-189v129h189v184h159z" />
    <glyph glyph-name="daggerdbl" unicode="&#x2021;" horiz-adv-x="636" 
d="M395 699v-182h190v-129h-190v-204h190v-127h-190v-180h-154v180h-190v127h190v204h-190v129h190v182h154z" />
    <glyph glyph-name="bullet" unicode="&#x2022;" horiz-adv-x="419" 
d="M210 180c-40 0 -73.167 12.5 -99.5 37.5s-39.5 57.5 -39.5 97.5s13.167 72.667 39.5 98s59.5 38 99.5 38c39.333 0 72.166 -12.667 98.499 -38s39.5 -58 39.5 -98s-13.167 -72.5 -39.5 -97.5s-59.166 -37.5 -98.499 -37.5z" />
    <glyph glyph-name="ellipsis" unicode="&#x2026;" horiz-adv-x="739" 
d="M50 73c0 25.333 8.5 45.333 25.5 60s35.833 22 56.5 22s39.5 -7.33301 56.5 -22s25.5 -34.667 25.5 -60s-8.5 -45.333 -25.5 -60s-35.833 -22 -56.5 -22s-39.5 7.33301 -56.5 22s-25.5 34.667 -25.5 60zM287 73c0 25.333 8.5 45.333 25.5 60s35.667 22 56 22
s39 -7.33301 56 -22s25.5 -34.667 25.5 -60s-8.5 -45.333 -25.5 -60s-35.667 -22 -56 -22s-39 7.33301 -56 22s-25.5 34.667 -25.5 60zM526 73c0 25.333 8.5 45.333 25.5 60s35.667 22 56 22s39 -7.33301 56 -22s25.5 -34.667 25.5 -60s-8.5 -45.333 -25.5 -60
s-35.667 -22 -56 -22s-39 7.33301 -56 22s-25.5 34.667 -25.5 60z" />
    <glyph glyph-name="perthousand" unicode="&#x2030;" horiz-adv-x="1192" 
d="M203 704c52.667 0 93.5 -15.833 122.5 -47.5s43.5 -69.167 43.5 -112.5c0 -44 -14.5 -81.833 -43.5 -113.5s-69.833 -47.5 -122.5 -47.5s-93.5 15.833 -122.5 47.5s-43.5 69.5 -43.5 113.5c0 43.333 14.5 80.833 43.5 112.5s69.833 47.5 122.5 47.5zM561 699h157
l-458 -700h-159zM618 314c52.667 0 93.5 -15.833 122.5 -47.5s43.5 -69.167 43.5 -112.5c0 -44 -14.5 -81.833 -43.5 -113.5s-69.833 -47.5 -122.5 -47.5s-93.5 15.833 -122.5 47.5s-43.5 69.5 -43.5 113.5c0 43.333 14.5 80.833 43.5 112.5s69.833 47.5 122.5 47.5z
M618 210c-17.333 0 -31 -5.66797 -41 -17.001s-15 -24.666 -15 -39.999s5 -28.5 15 -39.5s23.667 -16.5 41 -16.5s30.833 5.5 40.5 16.5s14.5 24.167 14.5 39.5c0 16 -4.83301 29.5 -14.5 40.5s-23.167 16.5 -40.5 16.5zM203 601.999c-18 0 -32 -5.66797 -42 -17.001
s-15 -25 -15 -41c0 -15.333 5 -28.666 15 -39.999s24 -17 42 -17s31.833 5.5 41.5 16.5s14.5 24.5 14.5 40.5s-4.83301 29.667 -14.5 41s-23.5 17 -41.5 17zM994 313.998c52.667 0 93.5 -15.833 122.5 -47.5s43.5 -69.167 43.5 -112.5c0 -44 -14.5 -81.833 -43.5 -113.5
s-69.833 -47.5 -122.5 -47.5s-93.5 15.833 -122.5 47.5s-43.5 69.5 -43.5 113.5c0 43.333 14.5 80.833 43.5 112.5s69.833 47.5 122.5 47.5zM994 209.998c-17.333 0 -31 -5.66797 -41 -17.001s-15 -24.666 -15 -39.999s5 -28.5 15 -39.5s23.667 -16.5 41 -16.5
s30.833 5.5 40.5 16.5s14.5 24.167 14.5 39.5c0 16 -4.83301 29.5 -14.5 40.5s-23.167 16.5 -40.5 16.5z" />
    <glyph glyph-name="guilsinglleft" unicode="&#x2039;" horiz-adv-x="356" 
d="M30 295l139.001 221.999h153v1l-139 -223c75.333 -123.333 121.666 -197.666 138.999 -222.999h-153z" />
    <glyph glyph-name="guilsinglright" unicode="&#x203a;" horiz-adv-x="357" 
d="M188 522l139 -222l-139 -222h-153l138 222l-138 223v-1h153z" />
    <glyph glyph-name="fraction" unicode="&#x2044;" horiz-adv-x="171" 
d="M221 708h121l-392 -713h-121z" />
    <glyph glyph-name="zerosuperior" unicode="&#x2070;" horiz-adv-x="408" 
d="M133 678v-56c0 -29.333 11.667 -50 35 -62s46.833 -12 70.5 0s35.5 32.667 35.5 62v56c0 30 -11.667 51.167 -35 63.5s-46.833 12.333 -70.5 0s-35.5 -33.5 -35.5 -63.5zM35 624v55c0 30 6.16699 56.667 18.5 80s28.5 41 48.5 53s42 20.833 66 26.5s48 5.66699 72 0
s46 -14.5 66 -26.5s36.167 -29.667 48.5 -53s18.5 -50 18.5 -80v-55c0 -30 -6.16699 -57 -18.5 -81s-28.5 -42.167 -48.5 -54.5s-42 -21.333 -66 -27s-48 -5.66699 -72 0s-46 14.667 -66 27s-36.167 30.5 -48.5 54.5s-18.5 51 -18.5 81z" />
    <glyph glyph-name="foursuperior" unicode="&#x2074;" horiz-adv-x="401" 
d="M190 837h130v-224h45v-85h-45v-61h-100v61h-193l-4 86zM220 613v127l-95 -127h95z" />
    <glyph glyph-name="fivesuperior" unicode="&#x2075;" horiz-adv-x="377" 
d="M324 832l0.00292969 -86h-184v-44h54c102.667 0 154 -41 154 -123c0 -44.667 -14.833 -77.5 -44.5 -98.5s-64.5 -31.5 -104.5 -31.5c-46.667 0 -84.5 10.167 -113.5 30.5s-43.833 51.5 -44.5 93.5h101c1.33301 -13.333 7.66602 -23.333 18.999 -30
s23.166 -9.5 35.499 -8.5s23.666 5.5 33.999 13.5s15.5 18.333 15.5 31c0 13.333 -5 23.333 -15 30s-22.333 10 -37 10h-148v213h278z" />
    <glyph glyph-name="sixsuperior" unicode="&#x2076;" horiz-adv-x="383" 
d="M249 584c0 12.667 -5.33398 22.334 -16.001 29.001s-23.667 10 -39 10s-28.5 -3.33301 -39.5 -10s-16.167 -16.334 -15.5 -29.001c0 -12 5.33301 -21.333 16 -28s23.334 -10 38.001 -10c15.333 0 28.5 3.33301 39.5 10s16.5 16 16.5 28zM341.999 730
l-93.998 -0.000976562c-2 14.667 -12 24.334 -30 29.001s-35.667 3.66699 -53 -3s-26 -17 -26 -31v-40c17.333 10.667 38 16.834 62 18.501s47.167 -1 69.5 -8s41.333 -20.333 57 -40s23.5 -43.5 23.5 -71.5c0 -40 -15.667 -70.667 -47 -92s-68 -32 -110 -32
c-41.333 0 -77.5 11.167 -108.5 33.5s-46.5 52.833 -46.5 91.5v140c0 37.333 15.167 66.166 45.5 86.499s66.5 30.5 108.5 30.5c43.333 0 78.666 -9.16699 105.999 -27.5s41.666 -46.5 42.999 -84.5z" />
    <glyph glyph-name="sevensuperior" unicode="&#x2077;" horiz-adv-x="328" 
d="M163 463h-112l133 278h-156v92h283l4 -41z" />
    <glyph glyph-name="eightsuperior" unicode="&#x2078;" horiz-adv-x="393" 
d="M134 567c-0.666992 -10 4.16699 -19.334 14.5 -28.001s26.833 -13 49.5 -13c22 0 38 4.33301 48 13s14.667 18 14 28c0 10.667 -5.83301 19.834 -17.5 27.501s-26.167 11.5 -43.5 11.5c-18.667 0 -34.167 -3.5 -46.5 -10.5s-18.5 -16.5 -18.5 -28.5zM32.001 567.999
c0 12.667 4.99902 26.667 14.999 42s23.333 27 40 35c-12.667 6 -23.167 16 -31.5 30s-12.5 27.333 -12.5 40c0 38 14.167 67.167 42.5 87.5s64.833 30.5 109.5 30.5c44 0 80.833 -10.333 110.5 -31s44.5 -49.334 44.5 -86.001c0 -29.333 -15 -51.666 -45 -66.999
c17.333 -8 30.833 -19.833 40.5 -35.5s14.5 -31.167 14.5 -46.5c0.666992 -43.333 -14.833 -75 -46.5 -95s-71.167 -29.333 -118.5 -28c-47.333 0 -86.666 10 -117.999 30s-46.333 51.333 -45 94zM198 678.999c16.667 0 29.334 3.33301 38.001 10s13 15 13 25
s-4.83301 18.667 -14.5 26s-22.167 11 -37.5 11c-16.667 0 -29.667 -3.5 -39 -10.5s-14 -15.5 -14 -25.5s4.66699 -18.5 14 -25.5s22.666 -10.5 39.999 -10.5z" />
    <glyph glyph-name="ninesuperior" unicode="&#x2079;" horiz-adv-x="385" 
d="M136 719c0 -12.667 5.33398 -22.334 16.001 -29.001s23.667 -10 39 -10s28.5 3.33301 39.5 10s16.167 16.334 15.5 29.001c0 12 -5.33301 21.333 -16 28s-23.334 10 -38.001 10c-15.333 0 -28.5 -3.33301 -39.5 -10s-16.5 -16 -16.5 -28zM38.001 573l95.999 0.00292969
c2 -14.667 12.333 -24.334 31 -29.001s36.834 -3.66699 54.501 3s26.5 17 26.5 31v40c-17.333 -10.667 -38 -16.834 -62 -18.501s-47.167 1 -69.5 8s-41.333 20.333 -57 40s-23.5 43.5 -23.5 71.5c0 40 15.667 70.667 47 92s68 32 110 32c41.333 0 77.5 -11.167 108.5 -33.5
s46.5 -52.833 46.5 -91.5v-140c0 -38 -15.167 -67.333 -45.5 -88s-66.5 -31 -108.5 -31c-45.333 0 -82 9.16699 -110 27.5s-42.667 47.166 -44 86.499z" />
    <glyph glyph-name="zeroinferior" unicode="&#x2080;" horiz-adv-x="410" 
d="M134 128v-56.001c0 -22 7.33301 -39.167 22 -51.5s30.834 -18.5 48.501 -18.5s33.834 6.16699 48.501 18.5s22 29.5 22 51.5v56c0 22.667 -7.33301 40.334 -22 53.001s-30.834 19.167 -48.501 19.5s-33.834 -6 -48.501 -19s-22 -30.833 -22 -53.5zM36 74.999v54
c0 30 6.16699 56.667 18.5 80s28.5 41.166 48.5 53.499s42 21.333 66 27s48 5.66699 72 0s46 -14.667 66 -27s36.167 -30.166 48.5 -53.499s18.5 -50 18.5 -80v-54c0 -42 -11.667 -77.5 -35 -106.5s-51.5 -46.833 -84.5 -53.5s-66 -6.66699 -99 0s-61.167 24.5 -84.5 53.5
s-35 64.5 -35 106.5z" />
    <glyph glyph-name="oneinferior" unicode="&#x2081;" horiz-adv-x="285" 
d="M35 -83v83h62v176l-52 -11v84l152 40v-289h64v-83h-226z" />
    <glyph glyph-name="twoinferior" unicode="&#x2082;" horiz-adv-x="377" 
d="M136 180l-97.999 -0.00195312c0.666992 36 15.667 64.5 45 85.5s63.666 31.5 102.999 31.5c46 0 83.333 -10.5 112 -31.5s43 -51.5 43 -91.5c0 -33.333 -11 -59.333 -33 -78s-46 -30.334 -72 -35.001s-50 -11.167 -72 -19.5s-33 -19.833 -33 -34.5h207v-90h-302v96
c0 26.667 7 48.334 21 65.001s30.833 28.334 50.5 35.001s39.5 12.167 59.5 16.5s37 9.83301 51 16.5s21 16 21 28c0 14.667 -8 24.834 -24 30.501s-32.5 6 -49.5 1s-26.833 -13.5 -29.5 -25.5z" />
    <glyph glyph-name="threeinferior" unicode="&#x2083;" horiz-adv-x="384" 
d="M190 72l-57.999 -0.000976562v75h54c37.333 0 56 11.667 56 35c0 22 -18.667 33.667 -56 35c-14.667 0.666992 -27.834 -1.66602 -39.501 -6.99902s-18.5 -13 -20.5 -23h-89c0 37.333 15.167 65.5 45.5 84.5s65.5 28.5 105.5 28.5s75.667 -10.333 107 -31s47 -50 47 -88
c0 -34 -16 -58 -48 -72c16.667 -5.33301 30.167 -15.666 40.5 -30.999s15.5 -32 15.5 -50c0 -42.667 -15.833 -72.834 -47.5 -90.501s-69.5 -26.5 -113.5 -26.5c-40.667 0 -77.167 10 -109.5 30s-48.833 49 -49.5 87h105c2.66699 -18.667 20.334 -28 53.001 -28
c15.333 0 28.666 3.16699 39.999 9.5s17 15.5 17 27.5c0 23.333 -18.333 35 -55 35z" />
    <glyph glyph-name="fourinferior" unicode="&#x2084;" horiz-adv-x="401" 
d="M190 286h130v-224h45v-85h-45v-61h-100v61h-193l-4 86zM220 62v127l-95 -127h95z" />
    <glyph glyph-name="fiveinferior" unicode="&#x2085;" horiz-adv-x="379" 
d="M325 291l0.00292969 -86h-184v-44h54c102.667 0 154 -41 154 -123c0 -44.667 -14.833 -77.5 -44.5 -98.5s-64.5 -31.5 -104.5 -31.5c-46.667 0 -84.5 10.167 -113.5 30.5s-43.833 51.5 -44.5 93.5h101c1.33301 -13.333 7.66602 -23.333 18.999 -30
s23.166 -9.5 35.499 -8.5s23.666 5.5 33.999 13.5s15.5 18.333 15.5 31c0 13.333 -5 23.333 -15 30s-22.333 10 -37 10h-148v213h278z" />
    <glyph glyph-name="sixinferior" unicode="&#x2086;" horiz-adv-x="386" 
d="M251 40c0 12.667 -5.33398 22.334 -16.001 29.001s-23.667 10 -39 10s-28.5 -3.33301 -39.5 -10s-16.167 -16.334 -15.5 -29.001c0 -12 5.33301 -21.333 16 -28s23.334 -10 38.001 -10c15.333 0 28.5 3.33301 39.5 10s16.5 16 16.5 28zM343.999 186l-93.998 -0.000976562
c-2 14.667 -12 24.334 -30 29.001s-35.667 3.66699 -53 -3s-26 -17 -26 -31v-40c17.333 10.667 38 16.834 62 18.501s47.167 -1 69.5 -8s41.333 -20.333 57 -40s23.5 -43.5 23.5 -71.5c0 -40 -15.667 -70.667 -47 -92s-68 -32 -110 -32c-41.333 0 -77.5 11.167 -108.5 33.5
s-46.5 52.833 -46.5 91.5v140c0 37.333 15.167 66.166 45.5 86.499s66.5 30.5 108.5 30.5c43.333 0 78.666 -9.16699 105.999 -27.5s41.666 -46.5 42.999 -84.5z" />
    <glyph glyph-name="seveninferior" unicode="&#x2087;" horiz-adv-x="327" 
d="M162 -83h-112l133 278h-156v92h283l4 -41z" />
    <glyph glyph-name="eightinferior" unicode="&#x2088;" horiz-adv-x="394" 
d="M135 31c-0.666992 -10 4.16699 -19.334 14.5 -28.001s26.833 -13 49.5 -13c22 0 38 4.33301 48 13s14.667 18 14 28c0 10.667 -5.83301 19.834 -17.5 27.501s-26.167 11.5 -43.5 11.5c-18.667 0 -34.167 -3.5 -46.5 -10.5s-18.5 -16.5 -18.5 -28.5zM33.001 31.999
c0 12.667 4.99902 26.667 14.999 42s23.333 27 40 35c-12.667 6 -23.167 16 -31.5 30s-12.5 27.333 -12.5 40c0 38 14.167 67.167 42.5 87.5s64.833 30.5 109.5 30.5c44 0 80.833 -10.333 110.5 -31s44.5 -49.334 44.5 -86.001c0 -29.333 -15 -51.666 -45 -66.999
c17.333 -8 30.833 -19.833 40.5 -35.5s14.5 -31.167 14.5 -46.5c0.666992 -43.333 -14.833 -75 -46.5 -95s-71.167 -29.333 -118.5 -28c-47.333 0 -86.666 10 -117.999 30s-46.333 51.333 -45 94zM199 142.999c16.667 0 29.332 3.33301 37.999 10s13 15 13 25
s-4.83301 18.667 -14.5 26s-22.167 11 -37.5 11c-16.667 0 -29.667 -3.5 -39 -10.5s-14 -15.5 -14 -25.5s4.83301 -18.5 14.5 -25.5s22.834 -10.5 39.501 -10.5z" />
    <glyph glyph-name="nineinferior" unicode="&#x2089;" horiz-adv-x="387" 
d="M136 170c0 -12.667 5.33398 -22.334 16.001 -29.001s23.667 -10 39 -10s28.5 3.33301 39.5 10s16.167 16.334 15.5 29.001c0 12 -5.33301 21.333 -16 28s-23.334 10 -38.001 10c-15.333 0 -28.5 -3.33301 -39.5 -10s-16.5 -16 -16.5 -28zM38.001 24l95.999 0.00292969
c2 -14.667 12.333 -24.334 31 -29.001s36.834 -3.66699 54.501 3s26.5 17 26.5 31v40c-17.333 -10.667 -38 -16.834 -62 -18.501s-47.167 1 -69.5 8s-41.333 20.333 -57 40s-23.5 43.5 -23.5 71.5c0 40 15.667 70.667 47 92s68 32 110 32c41.333 0 77.5 -11.167 108.5 -33.5
s46.5 -52.833 46.5 -91.5v-140c0 -38 -15.167 -67.333 -45.5 -88s-66.5 -31 -108.5 -31c-45.333 0 -82 9.16699 -110 27.5s-42.667 47.166 -44 86.499z" />
    <glyph glyph-name="Euro" unicode="&#x20ac;" horiz-adv-x="630" 
d="M45 211l0.00585938 109.002h59v25c0 13.333 0.333008 23.666 1 30.999h-60v111h83c24.667 68.667 66.167 124 124.5 166s132.5 63 222.5 63c40 0 77 -5.66699 111 -17l-43 -131c-22.667 6 -45.334 9 -68.001 9c-80.667 0 -141.334 -30 -182.001 -90h197l-24 -111h-212
c-1.33301 -14.667 -2 -26 -2 -34c0 -10 0.333008 -17.333 1 -22h195l-22 -109h-137c23.333 -32.667 53.166 -55.834 89.499 -69.501s68.5 -20.5 96.5 -20.5c25.333 0 50.666 4.33301 75.999 13l44 -135c-36 -10 -76 -15 -120 -15c-92.667 0 -168.834 19.833 -228.501 59.5
s-100.834 95.5 -123.501 167.5h-78z" />
    <glyph glyph-name="afii61289" unicode="&#x2113;" horiz-adv-x="392" 
d="M199 242l-0.00292969 -95.001c0 -29.333 12.333 -49.833 37 -61.5s55.667 -13.167 93 -4.5v-69c-67.333 -22 -122.666 -21.333 -165.999 2s-65 73 -65 149l-49 -24l-14 46c22.667 9.33301 43.334 19.333 62.001 30v333c0 60.667 11.333 103.667 34 129
s63.334 38 122.001 38c90 0 126.667 -64.333 110 -193c-11.333 -97.333 -66 -190.666 -164 -279.999zM195.997 547.999c0 -17.333 -0.165039 -54.832 -0.498047 -112.499s-0.5 -99.167 -0.5 -124.5c71.333 82 111.333 155.333 120 220l4 57
c1.33301 19.333 -3.33398 36.666 -14.001 51.999s-27.334 23 -50.001 23c-18.667 0 -33.167 -11.5 -43.5 -34.5s-15.5 -49.833 -15.5 -80.5z" />
    <glyph glyph-name="uni2117" unicode="&#x2117;" horiz-adv-x="811" 
d="M405 717c112 0 200.333 -35 265 -105s97 -156.667 97 -260s-32.333 -190 -97 -260s-153 -105 -265 -105c-111.333 0 -199.333 35 -264 105s-97 156.667 -97 260s32.333 190 97 260s152.667 105 264 105zM153 352c1.33301 -78 24.333 -142.333 69 -193
s105.667 -76 183 -76c78 0 139.333 25.333 184 76s67 115 67 193c0 77.333 -22.333 141.5 -67 192.5s-106 76.5 -184 76.5c-77.333 0 -138.333 -25.333 -183 -76s-67.667 -115 -69 -193zM379 267l65.999 0.00292969c26 0 49.333 4.66699 70 14s36.334 21.666 47.001 36.999
s18.5 32.166 23.5 50.499s5 36.5 0 54.5s-12.667 34.667 -23 50s-25.833 27.666 -46.5 36.999s-44 14 -70 14h-170v-356h103v99zM378.999 430.003h67.001c15.333 0 26.666 -6.33301 33.999 -19s8 -25.167 2 -37.5s-17.667 -18.5 -35 -18.5h-68v75z" />
    <glyph glyph-name="trademark" unicode="&#x2122;" horiz-adv-x="826" 
d="M263 607v-204h-106v204h-94v92h295v-92h-95zM498 699l76 -91.998l75 92h105v-297h-105v90l6 71c-8.66699 -12.667 -22 -30.834 -40 -54.501s-28.667 -37.834 -32 -42.501h-19l-71 97l5 -71v-90h-104v297h104z" />
    <glyph glyph-name="Omega" unicode="&#x2126;" horiz-adv-x="823" 
d="M412 574c-67.333 0 -119.499 -21.667 -156.499 -65s-56.167 -93.333 -57.5 -150c-1.33301 -46 10.167 -89.5 34.5 -130.5s58.166 -70.833 101.499 -89.5v-139h-253v133h79c-75.333 53.333 -113 131 -113 233c0 100 35.167 183.167 105.5 249.5s156.833 99.5 259.5 99.5
s189.167 -33.167 259.5 -99.5s105.5 -149.5 105.5 -249.5s-37.333 -177.667 -112 -233h78v-133h-253v139c43.333 18.667 77.166 48.5 101.499 89.5s35.833 84.5 34.5 130.5c-0.666992 56 -19.667 105.833 -57 149.5s-89.666 65.5 -156.999 65.5z" />
    <glyph glyph-name="estimated" unicode="&#x212e;" horiz-adv-x="624" 
d="M320 -7c-77.333 0 -141.329 26 -191.996 78s-76 124.667 -76 218c0 94.667 25.167 167.834 75.5 219.501s114.166 77.5 191.499 77.5c38.667 0 74.167 -5.66699 106.5 -17s61.333 -29 87 -53s44.667 -57.5 57 -100.5s16.166 -93.833 11.499 -152.5h-402v-170
c38.667 -35.333 85.667 -53 141 -53c83.333 0 146.666 31 189.999 93l37 -29c-28.667 -40.667 -61.334 -69.334 -98.001 -86.001s-79.667 -25 -129 -25zM319.004 539c-58 0 -104.666 -15.333 -139.999 -46v-183h283v186c-36.667 28.667 -84.334 43 -143.001 43z" />
    <glyph glyph-name="onethird" unicode="&#x2153;" horiz-adv-x="813" 
d="M44 327v80h62v179l-52 -11v84l152 40v-292h64v-80h-226zM616 153l-57 -0.00195312v75h53c21.333 0 35.666 1.83301 42.999 5.5s11.333 12.834 12 27.501c0 11.333 -5.16699 20.5 -15.5 27.5s-22.5 10.5 -36.5 10.5c-32.667 0 -53.334 -10.333 -62.001 -31h-89
c0 36.667 15.333 64.5 46 83.5s65.667 28.5 105 28.5c40 0 75.667 -10 107 -30s47 -49.333 47 -88c0 -15.333 -4.33301 -30.333 -13 -45s-21 -23.667 -37 -27c18.667 -5.33301 33.334 -15 44.001 -29s16 -29.333 16 -46c0 -41.333 -17.167 -72.166 -51.5 -92.499
s-72.833 -30.5 -115.5 -30.5c-40 0 -75.667 10 -107 30s-47.333 49 -48 87h101c5.33301 -20 24.333 -30 57 -30c14.667 0 27.834 3.5 39.501 10.5s17.5 15.833 17.5 26.5c0 10 -5 18.667 -15 26s-23.667 11 -41 11zM526 707.998h113l-395 -713h-110z" />
    <glyph glyph-name="twothirds" unicode="&#x2154;" horiz-adv-x="891" 
d="M604 708h112l-394 -713h-110zM144 593l-97.999 -0.00195312c0.666992 36 15.667 64.5 45 85.5s63.666 31.5 102.999 31.5c46 0 83.333 -10.5 112 -31.5s43 -51.5 43 -91.5c0 -33.333 -11 -59.333 -33 -78s-46 -30.334 -72 -35.001s-50 -11.167 -72 -19.5
s-33 -19.833 -33 -34.5h207v-90h-302v96c0 26.667 7 48.334 21 65.001s30.833 28.334 50.5 35.001s39.5 12.167 59.5 16.5s37 9.83301 51 16.5s21 16 21 28c0 14.667 -8 24.834 -24 30.501s-32.5 6 -49.5 1s-26.833 -13.5 -29.5 -25.5zM694.001 152.998l-57 -0.00195312v75
h53c21.333 0 35.666 1.83301 42.999 5.5s11.333 12.834 12 27.501c0 11.333 -5.16699 20.5 -15.5 27.5s-22.5 10.5 -36.5 10.5c-32.667 0 -53.334 -10.333 -62.001 -31h-89c0 36.667 15.333 64.5 46 83.5s65.667 28.5 105 28.5c40 0 75.667 -10 107 -30s47 -49.333 47 -88
c0 -15.333 -4.33301 -30.333 -13 -45s-21 -23.667 -37 -27c18.667 -5.33301 33.334 -15 44.001 -29s16 -29.333 16 -46c0 -41.333 -17.167 -72.166 -51.5 -92.499s-72.833 -30.5 -115.5 -30.5c-40 0 -75.667 10 -107 30s-47.333 49 -48 87h101
c5.33301 -20 24.333 -30 57 -30c14.667 0 27.834 3.5 39.501 10.5s17.5 15.833 17.5 26.5c0 10 -5 18.667 -15 26s-23.667 11 -41 11z" />
    <glyph glyph-name="oneeighth" unicode="&#x215b;" horiz-adv-x="819" 
d="M45 327v88h62v171l-52 -11v84l152 40v-284h64v-88h-226zM522 708h111l-395 -713h-108zM560 112c-0.666992 -10 4.16699 -19.334 14.5 -28.001s26.833 -13 49.5 -13c22 0 38 4.33301 48 13s14.667 18 14 28c0 10.667 -5.83301 19.834 -17.5 27.501
s-26.167 11.5 -43.5 11.5c-18.667 0 -34.167 -3.5 -46.5 -10.5s-18.5 -16.5 -18.5 -28.5zM458.001 112.999c0 12.667 4.99902 26.668 14.999 42.001s23.333 27 40 35c-12.667 6 -23.167 16 -31.5 30s-12.5 27.333 -12.5 40c0 38 14.167 67.167 42.5 87.5
s64.833 30.5 109.5 30.5c44 0 80.833 -10.333 110.5 -31s44.5 -49.334 44.5 -86.001c0 -30 -15 -52.333 -45 -67c17.333 -8 30.833 -19.833 40.5 -35.5s14.5 -31.167 14.5 -46.5c0.666992 -43.333 -14.833 -75 -46.5 -95s-71.167 -29.333 -118.5 -28
c-47.333 0 -86.666 10 -117.999 30s-46.333 51.333 -45 94zM624 224c16.667 0 29.334 3.33301 38.001 10s13 15 13 25s-4.83301 18.667 -14.5 26s-22.167 11 -37.5 11c-16.667 0 -29.667 -3.5 -39 -10.5s-14 -15.5 -14 -25.5s4.66699 -18.5 14 -25.5
s22.666 -10.5 39.999 -10.5z" />
    <glyph glyph-name="threeeighths" unicode="&#x215c;" horiz-adv-x="897" 
d="M592 708h112l-394 -713h-109zM636 116c-0.666992 -10 4.16602 -19.5 14.499 -28.5s26.833 -13.5 49.5 -13.5c22 0 38 4.5 48 13.5s14.333 18.5 13 28.5c0 10 -5.66699 18.833 -17 26.5s-25.666 11.5 -42.999 11.5c-18.667 0 -34.167 -3.5 -46.5 -10.5
s-18.5 -16.167 -18.5 -27.5zM536 116c0 13.333 4.16504 27.5 12.498 42.5s20.833 26.5 37.5 34.5c-12 6 -21.5 15.833 -28.5 29.5s-10.5 27.167 -10.5 40.5c0 37.333 14 66.333 42 87s64.333 31 109 31s81.834 -10.333 111.501 -31s44.5 -49.667 44.5 -87
c0 -30.667 -13.333 -52.667 -40 -66c16.667 -8 29 -19.833 37 -35.5s12 -30.834 12 -45.501c0.666992 -42.667 -14.666 -74.167 -45.999 -94.5s-71 -30.166 -119 -29.499c-47.333 0 -86.5 10 -117.5 30s-45.833 51.333 -44.5 94zM644.998 262
c1.33301 -22.667 19.665 -34 54.998 -34c32.667 0 49.667 11.333 51 34c0.666992 10.667 -4 19.5 -14 26.5s-23 10.5 -39 10.5c-15.333 0 -28.166 -3.5 -38.499 -10.5s-15.166 -15.833 -14.499 -26.5zM194.997 481l-57 -0.00195312v75h53
c21.333 0 35.666 1.83301 42.999 5.5s11.333 12.834 12 27.501c0 11.333 -5.16699 20.5 -15.5 27.5s-22.5 10.5 -36.5 10.5c-32.667 0 -53.334 -10.333 -62.001 -31h-89c0 36.667 15.333 64.5 46 83.5s65.667 28.5 105 28.5c40 0 75.667 -10 107 -30s47 -49.333 47 -88
c0 -15.333 -4.33301 -30.333 -13 -45s-21 -23.667 -37 -27c18.667 -5.33301 33.334 -15 44.001 -29s16 -29.333 16 -46c0 -41.333 -17.167 -72.166 -51.5 -92.499s-72.833 -30.5 -115.5 -30.5c-40 0 -75.667 10 -107 30s-47.333 49 -48 87h101
c4.66699 -20 23.667 -30 57 -30c14.667 0 27.834 3.5 39.501 10.5s17.5 15.833 17.5 26.5c0 10 -5 18.667 -15 26s-23.667 11 -41 11z" />
    <glyph glyph-name="fiveeighths" unicode="&#x215d;" horiz-adv-x="891" 
d="M584 708h112l-394 -713h-109zM630 116c-0.666992 -10 4.16602 -19.5 14.499 -28.5s26.833 -13.5 49.5 -13.5c22 0 38 4.5 48 13.5s14.333 18.5 13 28.5c0 10 -5.66699 18.833 -17 26.5s-25.666 11.5 -42.999 11.5c-18.667 0 -34.167 -3.5 -46.5 -10.5
s-18.5 -16.167 -18.5 -27.5zM530 116c0 13.333 4.16504 27.5 12.498 42.5s20.833 26.5 37.5 34.5c-12 6 -21.5 15.833 -28.5 29.5s-10.5 27.167 -10.5 40.5c0 37.333 14 66.333 42 87s64.333 31 109 31s81.834 -10.333 111.501 -31s44.5 -49.667 44.5 -87
c0 -30.667 -13.333 -52.667 -40 -66c16.667 -8 29 -19.833 37 -35.5s12 -30.834 12 -45.501c0.666992 -42.667 -14.666 -74.167 -45.999 -94.5s-71 -30.166 -119 -29.499c-47.333 0 -86.5 10 -117.5 30s-45.833 51.333 -44.5 94zM638.998 262
c1.33301 -22.667 19.665 -34 54.998 -34c32.667 0 49.667 11.333 51 34c0.666992 10.667 -4 19.5 -14 26.5s-23 10.5 -39 10.5c-15.333 0 -28.166 -3.5 -38.499 -10.5s-15.166 -15.833 -14.499 -26.5zM322.997 698l0.00292969 -86h-184v-44h54c102.667 0 154 -41 154 -123
c0 -44.667 -14.833 -77.5 -44.5 -98.5s-64.5 -31.5 -104.5 -31.5c-46.667 0 -84.5 10.167 -113.5 30.5s-43.833 51.5 -44.5 93.5h101c1.33301 -13.333 7.66602 -23.333 18.999 -30s23.166 -9.5 35.499 -8.5s23.666 5.5 33.999 13.5s15.5 18.333 15.5 31
c0 13.333 -5 23.333 -15 30s-22.333 10 -37 10h-148v213h278z" />
    <glyph glyph-name="seveneighths" unicode="&#x215e;" horiz-adv-x="806" 
d="M487 708h111l-394 -713h-109zM545 116c-0.666992 -10 4.16699 -19.501 14.5 -28.501s26.833 -13.5 49.5 -13.5c22 0 38 4.33301 48 13s14.667 18.334 14 29.001c0 10 -5.83301 18.833 -17.5 26.5s-26.167 11.5 -43.5 11.5c-18.667 0 -34.167 -3.5 -46.5 -10.5
s-18.5 -16.167 -18.5 -27.5zM445.001 115.999c0 13.333 4.16602 27.5 12.499 42.5s20.833 26.5 37.5 34.5c-12 6 -21.5 15.833 -28.5 29.5s-10.5 27.167 -10.5 40.5c0 38 14.167 67.167 42.5 87.5s64.833 30.5 109.5 30.5c44 0 80.833 -10.333 110.5 -31
s44.5 -49.667 44.5 -87c0 -31.333 -13.333 -53.333 -40 -66c16.667 -8 29.167 -19.833 37.5 -35.5s12.5 -30.834 12.5 -45.501c0.666992 -42.667 -14.833 -74.167 -46.5 -94.5s-71.167 -30.166 -118.5 -29.499c-47.333 0 -86.666 10 -117.999 30s-46.333 51.333 -45 94z
M554 261.999c2 -22.667 20.333 -34 55 -34c32.667 0 50 11.333 52 34c0.666992 10.667 -4 19.5 -14 26.5s-23 10.5 -39 10.5c-15.333 0 -28.333 -3.5 -39 -10.5s-15.667 -15.833 -15 -26.5zM163 328.999h-102l134 284h-156v86h282l4 -41z" />
    <glyph glyph-name="arrowleft" unicode="&#x2190;" horiz-adv-x="630" 
d="M274 107l-244 243l245 242l75 -71l-110 -110h339v-125h-340l105 -114z" />
    <glyph glyph-name="arrowup" unicode="&#x2191;" horiz-adv-x="546" 
d="M31 392l243 244l242 -245l-71 -75l-110 110v-339h-125v340l-114 -105z" />
    <glyph glyph-name="arrowright" unicode="&#x2192;" horiz-adv-x="632" 
d="M358 593l243 -242l-244 -242l-75 71l109 109h-339v126h341l-106 114z" />
    <glyph glyph-name="arrowdown" unicode="&#x2193;" horiz-adv-x="544" 
d="M514 314l-242 -244l-242 245l70 75l110 -109v339h126v-341l114 106z" />
    <glyph glyph-name="uni2196" unicode="&#x2196;" horiz-adv-x="523" 
d="M59 197v344l343 -2l4 -102l-155 -1l240 -240l-90 -88l-240 240l-6 -155z" />
    <glyph glyph-name="uni2197" unicode="&#x2197;" horiz-adv-x="523" 
d="M116 444l4 95h343c0 -38 -0.166992 -95.167 -0.5 -171.5s-0.5 -133.5 -0.5 -171.5l-102 -4c0 17.333 -0.166992 43.333 -0.5 78s-0.5 60.667 -0.5 78l-241 -240l-88 90l240 240z" />
    <glyph glyph-name="uni2198" unicode="&#x2198;" horiz-adv-x="554" 
d="M123 153l-4 95l155 6l-240 240l88 90l240 -240c0 17.333 0.166992 43.333 0.5 78s0.5 60.667 0.5 78l102 -4c0 -38.667 0.333008 -96 1 -172s1 -133 1 -171h-344z" />
    <glyph glyph-name="uni2199" unicode="&#x2199;" horiz-adv-x="556" 
d="M436 248l-4 -95h-343c0 38 0.166992 95 0.5 171s0.5 133.333 0.5 172l103 4c-0.666992 -17.333 -0.666992 -43.333 0 -78s0.666992 -60.667 0 -78l241 240l88 -90l-240 -240z" />
    <glyph glyph-name="partialdiff" unicode="&#x2202;" horiz-adv-x="579" 
d="M289 119c34 0 61.167 11.834 81.5 35.501s30.5 51.5 30.5 83.5c0 36 -9.83301 64.833 -29.5 86.5s-47.167 32.5 -82.5 32.5c-33.333 0 -59.666 -11.667 -78.999 -35s-29 -51 -29 -83c0 -32.667 9.66699 -60.834 29 -84.501s45.666 -35.5 78.999 -35.5zM359 459.001
c-12.667 30.667 -44.832 58.5 -96.499 83.5s-97.5 39.5 -137.5 43.5l24 116c115.333 -8.66699 209.833 -55.5 283.5 -140.5s110.5 -188.833 110.5 -311.5c-0.666992 -77.333 -23.667 -139.666 -69 -186.999s-107 -71 -185 -71c-80.667 0 -143.5 24.167 -188.5 72.5
s-67.5 106.166 -67.5 173.499c0 56 16.333 106.167 49 150.5s73.167 73 121.5 86s100.166 7.83301 155.499 -15.5z" />
    <glyph glyph-name="Delta" unicode="&#x2206;" horiz-adv-x="823" 
d="M796 31v-31h-768v36l298 664h170zM411 546l-178 -411h355z" />
    <glyph glyph-name="product" unicode="&#x220f;" horiz-adv-x="691" 
d="M613 -192h-145v756h-241v-756h-149v892h535v-892z" />
    <glyph glyph-name="summation" unicode="&#x2211;" horiz-adv-x="604" 
d="M394 362l-158 -218h316v-144h-511v92l189 272l-179 261v75h495v-136h-284z" />
    <glyph glyph-name="minus" unicode="&#x2212;" horiz-adv-x="524" 
d="M64 213v131h396v-131h-396z" />
    <glyph glyph-name="uni2215" unicode="&#x2215;" horiz-adv-x="484" 
d="M377 708h121l-392 -713h-121z" />
    <glyph glyph-name="uni2219" unicode="&#x2219;" horiz-adv-x="279" 
d="M53 316c0 27.333 9 48.666 27 63.999s37.833 23 59.5 23s41.5 -7.66699 59.5 -23s27 -36.666 27 -63.999c0 -26.667 -9 -47.667 -27 -63s-37.833 -23 -59.5 -23s-41.5 7.66699 -59.5 23s-27 36.333 -27 63z" />
    <glyph glyph-name="radical" unicode="&#x221a;" horiz-adv-x="613" 
d="M607 697l-229 -697h-98l-164 307l-72 -29l-35 85l188 85l143 -297l188 569z" />
    <glyph glyph-name="infinity" unicode="&#x221e;" horiz-adv-x="744" 
d="M213 158c-52.667 1.33301 -93.499 17.667 -122.499 49s-43.833 68.333 -44.5 111c0 44.667 15.5 83.5 46.5 116.5s73.5 49.5 127.5 49.5c24 0 49.5 -8.33301 76.5 -25s51.5 -38 73.5 -64c23.333 24.667 49 45.667 77 63s53.333 26 76 26c54.667 0 97.5 -16.5 128.5 -49.5
s46.5 -71.833 46.5 -116.5c0 -43.333 -14.667 -80.5 -44 -111.5s-70.333 -47.167 -123 -48.5c-52.667 -2.66699 -106.334 27 -161.001 89c-54.667 -62 -107 -91.667 -157 -89zM215.001 266.001c26.667 2 57 19.998 91 53.998c-1.33301 1.33301 -5 4.66602 -11 9.99902
s-9.83301 8.83301 -11.5 10.5s-5 4.83398 -10 9.50098s-8.83301 7.83398 -11.5 9.50098l-11 7c-4.66699 3 -8.66699 5 -12 6s-7.16602 2 -11.499 3s-8.5 1.5 -12.5 1.5c-20 0 -35.833 -5.16699 -47.5 -15.5s-18.167 -22.833 -19.5 -37.5
c-1.33301 -15.333 4.16699 -28.666 16.5 -39.999s29.166 -17.333 50.499 -18zM529.001 265.999c20.667 0.666992 36.6709 6.16797 48.0039 16.501s17.333 22.833 18 37.5c0 15.333 -5.83301 28.666 -17.5 39.999s-27.834 17 -48.501 17
c-26.667 0 -57.334 -19.333 -92.001 -58c11.333 -12.667 26.166 -25 44.499 -37s34.166 -17.333 47.499 -16z" />
    <glyph glyph-name="integral" unicode="&#x222b;" horiz-adv-x="506" 
d="M173 -2l0.00195312 515.999c0 66.667 19.833 116.834 59.5 150.501s86.5 50.5 140.5 50.5c46.667 0 92.334 -14 137.001 -42l-51 -108c-26 18 -51 27 -75 27c-19.333 0 -35.333 -6.66699 -48 -20s-19 -32.666 -19 -57.999v-516c0 -66 -20.333 -115.833 -61 -149.5
s-88.334 -50.5 -143.001 -50.5c-40.667 0 -80 12 -118 36l51 108c1.33301 -0.666992 4 -2.16699 8 -4.5s6.5 -3.83301 7.5 -4.5s3 -1.83398 6 -3.50098s4.83301 -2.66699 5.5 -3s2.16699 -1 4.5 -2s4.16602 -1.5 5.49902 -1.5s3.16602 -0.333008 5.49902 -1s4.5 -1 6.5 -1h7
c19.333 0 36 6.66699 50 20s21 32.333 21 57z" />
    <glyph glyph-name="approxequal" unicode="&#x2248;" horiz-adv-x="584" 
d="M147 320l-86.002 48.001c14.667 34.667 35.834 62 63.501 82s58.5 27.667 92.5 23c20.667 -2.66699 48.834 -11.667 84.501 -27s61.5 -24.333 77.5 -27c28 -4.66699 46.333 8.66602 55 39.999l89 -36c-8.66699 -47.333 -26.667 -79.666 -54 -96.999
s-59.333 -21.333 -96 -12c-16 4 -40.833 12.167 -74.5 24.5s-58.5 20.166 -74.5 23.499c-36 7.33301 -61.667 -6.66699 -77 -42zM146.998 110.001l-86.002 48.001c14.667 34.667 35.834 62 63.501 82s58.5 27.667 92.5 23c20.667 -2.66699 48.834 -11.667 84.501 -27
s61.5 -24.333 77.5 -27c28 -4.66699 46.333 8.66602 55 39.999l89 -36c-8.66699 -47.333 -26.667 -79.666 -54 -96.999s-59.333 -21.333 -96 -12c-16 4 -40.833 12.167 -74.5 24.5s-58.5 20.166 -74.5 23.499c-36 7.33301 -61.667 -6.66699 -77 -42z" />
    <glyph glyph-name="notequal" unicode="&#x2260;" horiz-adv-x="589" 
d="M72 128v128h166l57 107h-223v129h297l52 92l58 -32l-35 -60h70v-129h-142l-58 -107h200v-128h-273l-53 -93l-57 33l34 60h-93z" />
    <glyph glyph-name="lessequal" unicode="&#x2264;" horiz-adv-x="456" 
d="M52 72v116h347v-116h-347zM61 438v5l239 220l85 -86l-145 -137l144 -133l-84 -86z" />
    <glyph glyph-name="greaterequal" unicode="&#x2265;" horiz-adv-x="457" 
d="M405 188v-116h-347v116h347zM396 443v-5l-239 -217l-85 86l144 133l-145 137l86 86z" />
    <glyph glyph-name="lozenge" unicode="&#x25ca;" horiz-adv-x="601" 
d="M571 351l-210 -343h-120l-212 343l212 345h120zM180 351l122 -212l117 212l-117 213z" />
    <glyph glyph-name="fi" unicode="&#xfb01;" horiz-adv-x="649" 
d="M366 581l42.001 111.002c-32.667 15.333 -64.667 23 -96 23c-54 0 -100.833 -16.833 -140.5 -50.5s-59.5 -83.834 -59.5 -150.501v-29h-89v-125h89v-360h144v360h122v125h-122v29c0 25.333 6.33301 44.666 19 57.999s28.667 20 48 20
c13.333 0 27.666 -3.66699 42.999 -11zM589.001 495.002h-144v-495h144v495zM435.001 625.002c0 25.333 8.5 45.333 25.5 60s35.833 22 56.5 22s39.5 -7.33301 56.5 -22s25.5 -34.667 25.5 -60s-8.5 -45.333 -25.5 -60s-35.833 -22 -56.5 -22s-39.5 7.33301 -56.5 22
s-25.5 34.667 -25.5 60z" />
    <glyph glyph-name="fl" unicode="&#xfb02;" horiz-adv-x="652" 
d="M408 693l-42 -111.002c-14 6.66699 -28.333 10 -43 10c-19.333 0 -35.333 -6.66699 -48 -20s-19 -32.666 -19 -57.999v-29h115v-125h-115v-360h-144v360h-89v125h89v29c0 66.667 19.833 116.834 59.5 150.501s86.5 50.5 140.5 50.5c32.667 0 64.667 -7.33301 96 -22z
M445 699.998h144v-700h-144v700z" />
    <glyph glyph-name=".null" horiz-adv-x="0" 
 />
    <glyph glyph-name="nonmarkingreturn" horiz-adv-x="333" 
 />
    <glyph glyph-name="CR" horiz-adv-x="322" 
 />
    <glyph glyph-name="_0004" horiz-adv-x="0" 
 />
    <glyph glyph-name="g.alt" horiz-adv-x="641" 
d="M306 379c-36.667 0 -67.332 -11.665 -91.999 -34.998s-37 -55.666 -37 -96.999c0 -40.667 12.167 -72.334 36.5 -95.001s55.166 -34 92.499 -34c40 0 71.167 13.667 93.5 41s33.5 57.166 33.5 89.499s-11.167 62.166 -33.5 89.499s-53.5 41 -93.5 41zM50.002 -59.998
h142.997c3.33301 -22 16 -38.167 38 -48.5s48.333 -15.5 79 -15.5c34.667 0 64.834 9.16699 90.501 27.5s38.5 47.166 38.5 86.499v69c-30.667 -47.333 -81 -71.666 -151 -72.999c-75.333 -0.666992 -136.666 22.666 -183.999 69.999s-71 111 -71 191s24.5 143.5 73.5 190.5
s110.833 69.833 185.5 68.5c30.667 0 59.167 -6.5 85.5 -19.5s45.5 -29.5 57.5 -49.5l5 56h140v-506c0 -80 -25.833 -140.333 -77.5 -181s-116.5 -61 -194.5 -61c-72 0 -132.167 16.833 -180.5 50.5s-74.166 81.834 -77.499 144.501z" />
    <glyph glyph-name="gcircumflex.alt" horiz-adv-x="641" 
d="M306 379c40 0 71.165 -13.6689 93.498 -41.002s33.5 -57.166 33.5 -89.499s-11.167 -62.166 -33.5 -89.499s-53.5 -41 -93.5 -41c-37.333 0 -68.166 11.333 -92.499 34s-36.5 54.334 -36.5 95.001c0 41.333 12.333 73.666 37 96.999s55.334 35 92.001 35z
M192.998 -60.002h-142.997c3.33301 -62.667 29.166 -110.834 77.499 -144.501s108.5 -50.5 180.5 -50.5c78 0 142.833 20.333 194.5 61s77.5 101 77.5 181v506h-140l-5 -56c-12 20 -31.167 36.5 -57.5 49.5s-54.833 19.5 -85.5 19.5
c-74.667 1.33301 -136.5 -21.5 -185.5 -68.5s-73.5 -110.5 -73.5 -190.5s23.667 -143.667 71 -191s108.666 -70.666 183.999 -69.999c70 1.33301 120.333 25.666 151 72.999v-69c0 -39.333 -12.833 -68.166 -38.5 -86.499s-55.834 -27.5 -90.501 -27.5
c-30.667 0 -57 5.16699 -79 15.5s-34.667 26.5 -38 48.5zM509.001 575.998v-6h-145l-44 43l-51 -43h-140v6l155 140h75z" />
    <glyph glyph-name="gbreve.alt" horiz-adv-x="641" 
d="M365 713h116.001c0 -47.333 -15.333 -83.5 -46 -108.5s-69 -37.5 -115 -37.5c-46.667 0 -86.334 12.833 -119.001 38.5s-47 61.5 -43 107.5h117c0 -31.333 15 -47 45 -47s45 15.667 45 47zM306.001 379c-36.667 0 -67.332 -11.665 -91.999 -34.998
s-37 -55.666 -37 -96.999c0 -40.667 12.167 -72.334 36.5 -95.001s55.166 -34 92.499 -34c40 0 71.167 13.667 93.5 41s33.5 57.166 33.5 89.499s-11.167 62.166 -33.5 89.499s-53.5 41 -93.5 41zM50.0029 -59.998h142.997c3.33301 -22 16 -38.167 38 -48.5
s48.333 -15.5 79 -15.5c34.667 0 64.834 9.16699 90.501 27.5s38.5 47.166 38.5 86.499v69c-30.667 -47.333 -81 -71.666 -151 -72.999c-75.333 -0.666992 -136.666 22.666 -183.999 69.999s-71 111 -71 191s24.5 143.5 73.5 190.5s110.833 69.833 185.5 68.5
c30.667 0 59.167 -6.5 85.5 -19.5s45.5 -29.5 57.5 -49.5l5 56h140v-506c0 -80 -25.833 -140.333 -77.5 -181s-116.5 -61 -194.5 -61c-72 0 -132.167 16.833 -180.5 50.5s-74.166 81.834 -77.499 144.501z" />
    <glyph glyph-name="gdotaccent.alt" horiz-adv-x="641" 
d="M233 642c0 24.667 8.5 44 25.5 58s35.833 21 56.5 21s39.5 -7 56.5 -21s25.5 -33.333 25.5 -58c0 -24 -8.5 -42.667 -25.5 -56s-35.833 -20 -56.5 -20s-39.5 6.66699 -56.5 20s-25.5 32 -25.5 56zM306 379c40 0 71.165 -13.6689 93.498 -41.002
s33.5 -57.166 33.5 -89.499s-11.167 -62.166 -33.5 -89.499s-53.5 -41 -93.5 -41c-37.333 0 -68.166 11.333 -92.499 34s-36.5 54.334 -36.5 95.001c0 41.333 12.333 73.666 37 96.999s55.334 35 92.001 35zM192.998 -60.002h-142.997
c3.33301 -62.667 29.166 -110.834 77.499 -144.501s108.5 -50.5 180.5 -50.5c78 0 142.833 20.333 194.5 61s77.5 101 77.5 181v506h-140l-5 -56c-12 20 -31.167 36.5 -57.5 49.5s-54.833 19.5 -85.5 19.5c-74.667 1.33301 -136.5 -21.5 -185.5 -68.5
s-73.5 -110.5 -73.5 -190.5s23.667 -143.667 71 -191s108.666 -70.666 183.999 -69.999c70 1.33301 120.333 25.666 151 72.999v-69c0 -39.333 -12.833 -68.166 -38.5 -86.499s-55.834 -27.5 -90.501 -27.5c-30.667 0 -57 5.16699 -79 15.5s-34.667 26.5 -38 48.5z" />
    <glyph glyph-name="gcommaaccent.alt" horiz-adv-x="641" 
d="M234 648c0 12 1.66699 23.334 5 34.001s9.5 25.667 18.5 45s16.5 37 22.5 53h77l-16 -77c36 -5.33301 54 -25 54 -59c0 -20 -5.5 -36.5 -16.5 -49.5s-24.5 -20.833 -40.5 -23.5s-31.833 -2.33398 -47.5 0.999023s-29 12 -40 26s-16.5 30.667 -16.5 50zM306 379.001
c40 0 71.165 -13.6689 93.498 -41.002s33.5 -57.166 33.5 -89.499s-11.167 -62.166 -33.5 -89.499s-53.5 -41 -93.5 -41c-37.333 0 -68.166 11.333 -92.499 34s-36.5 54.334 -36.5 95.001c0 41.333 12.333 73.666 37 96.999s55.334 35 92.001 35zM192.998 -60.001h-142.997
c3.33301 -62.667 29.166 -110.834 77.499 -144.501s108.5 -50.5 180.5 -50.5c78 0 142.833 20.333 194.5 61s77.5 101 77.5 181v506h-140l-5 -56c-12 20 -31.167 36.5 -57.5 49.5s-54.833 19.5 -85.5 19.5c-74.667 1.33301 -136.5 -21.5 -185.5 -68.5
s-73.5 -110.5 -73.5 -190.5s23.667 -143.667 71 -191s108.666 -70.666 183.999 -69.999c70 1.33301 120.333 25.666 151 72.999v-69c0 -39.333 -12.833 -68.166 -38.5 -86.499s-55.834 -27.5 -90.501 -27.5c-30.667 0 -57 5.16699 -79 15.5s-34.667 26.5 -38 48.5z" />
    <glyph glyph-name="commaaccent" horiz-adv-x="382" 
d="M220 -286l-76.001 -0.00195312l15 104c-36 5.33301 -54 25.333 -54 60c0 19.333 5.5 35.5 16.5 48.5s24.167 20.833 39.5 23.5s30.833 2.33398 46.5 -0.999023s29.167 -11.5 40.5 -24.5s17.333 -28.833 18 -47.5c-1.33301 -19.333 -16.666 -73.666 -45.999 -162.999z" />
    <glyph glyph-name="commaaccent.alt" horiz-adv-x="406" 
d="M156 775l76.001 0.00195312l-15 -104c36 -5.33301 54 -25.333 54 -60c0 -19.333 -5.5 -35.5 -16.5 -48.5s-24.167 -20.833 -39.5 -23.5s-30.833 -2.33398 -46.5 0.999023s-29.167 11.5 -40.5 24.5s-17.333 28.833 -18 47.5c1.33301 19.333 16.666 73.666 45.999 162.999z
" />
    <glyph glyph-name="zero.tf" horiz-adv-x="711" 
d="M199 401l-0.00195312 -101c0 -59.333 14.333 -104.5 43 -135.5s66.334 -46.5 113.001 -46.5c47.333 0 85.333 15.5 114 46.5s43 76.167 43 135.5v101c0 58 -14.167 102.333 -42.5 133s-65.5 46 -111.5 46c-47.333 0 -85.666 -15.167 -114.999 -45.5
s-44 -74.833 -44 -133.5zM43.998 300l0.00195312 102c0 104 29.667 183.333 89 238s134.333 82 225 82c89.333 0 163 -27.667 221 -83s87 -134.333 87 -237v-101c0 -102 -29.333 -181 -88 -237s-131.334 -84 -218.001 -84c-56.667 0 -108.334 11 -155.001 33
s-85.167 57.833 -115.5 107.5s-45.5 109.5 -45.5 179.5z" />
    <glyph glyph-name="one.tf" horiz-adv-x="711" 
d="M111 0v131h180v371l-161 -53v139l314 112v-569h182v-131h-515z" />
    <glyph glyph-name="two.tf" horiz-adv-x="711" 
d="M227 492l-149.997 -0.00195312c2 39.333 11.333 73.5 28 102.5s38.5 51.5 65.5 67.5s56.167 27.833 87.5 35.5s65 11.5 101 11.5c80 0 146.833 -18.833 200.5 -56.5s80.5 -92.167 80.5 -163.5c0 -81.333 -24.667 -138.833 -74 -172.5s-118 -50.5 -206 -50.5
c-18.667 0 -34.834 -1 -48.501 -3s-28.5 -5.83301 -44.5 -11.5s-28.5 -15.334 -37.5 -29.001s-13.5 -30.834 -13.5 -51.501v-27h419v-144h-566v172c0 36 5.83301 67.833 17.5 95.5s26.667 49.834 45 66.501s40.666 30.334 66.999 41.001s52.333 17.834 78 21.501
s53.5 5.5 83.5 5.5c33.333 0 62.833 6.33301 88.5 19s38.5 34.334 38.5 65.001c0 28.667 -11.333 50.834 -34 66.501s-54 23.5 -94 23.5c-34.667 0 -64.834 -7.33301 -90.501 -22s-39.5 -35.334 -41.5 -62.001z" />
    <glyph glyph-name="three.tf" horiz-adv-x="711" 
d="M358 295h-106.999v127h97c86.667 0 130.334 23 131.001 69c0 20 -9.66699 38.167 -29 54.5s-52 24.5 -98 24.5c-76.667 0 -119.334 -22.667 -128.001 -68h-155c3.33301 38 13.666 71 30.999 99s39.5 49.833 66.5 65.5s56 27.167 87 34.5s64.167 11 99.5 11
c42 0 81.667 -5.5 119 -16.5s71.166 -30.5 101.499 -58.5s48.833 -63 55.5 -105c6.66699 -38.667 1.83398 -73.667 -14.499 -105s-41.166 -54.333 -74.499 -69c40 -16.667 68.833 -42 86.5 -76s23.5 -72.333 17.5 -115c-20 -120.667 -119 -181 -297 -181
c-76 0 -141.833 18.833 -197.5 56.5s-86.167 94.5 -91.5 170.5h157c7.33301 -58.667 51.666 -88 132.999 -88c13.333 0 26.833 1 40.5 3s28.5 5.83301 44.5 11.5s29 14.5 39 26.5s15 26.667 15 44c0 56.667 -43 85 -129 85z" />
    <glyph glyph-name="four.tf" horiz-adv-x="711" 
d="M421 699h155v-438h80v-135h-80v-127h-153v127h-373l-13 160zM197 261h226v249z" />
    <glyph glyph-name="five.tf" horiz-adv-x="711" 
d="M604 699l0.000976562 -140.001h-368v-108h123c40 0 76.167 -3.5 108.5 -10.5s62.166 -18.667 89.499 -35s48.5 -40 63.5 -71s22.5 -68.167 22.5 -111.5c0 -41.333 -8.5 -77.5 -25.5 -108.5s-39.333 -55.167 -67 -72.5s-57.334 -30.166 -89.001 -38.499
s-64.5 -12.5 -98.5 -12.5c-87.333 0 -156.666 17.833 -207.999 53.5s-77.333 92.834 -78 171.501h154c0 -28.667 13.167 -50.334 39.5 -65.001s56.5 -22 90.5 -22c16.667 0 33.667 2 51 6s34.5 13.5 51.5 28.5s25.5 34.833 25.5 59.5c0 18.667 -4.33301 34.5 -13 47.5
s-20.167 22.667 -34.5 29s-28.333 10.833 -42 13.5s-27.167 4 -40.5 4h-268v382h513z" />
    <glyph glyph-name="six.tf" horiz-adv-x="711" 
d="M219 474l0.00195312 -78c21.333 23.333 44.666 39.833 69.999 49.5s56.666 14.5 93.999 14.5c79.333 0 145.166 -20.333 197.499 -61s78.5 -98.667 78.5 -174c0 -40.667 -8.33301 -76.667 -25 -108s-39 -56.166 -67 -74.499s-59.167 -32 -93.5 -41
s-70.833 -13.5 -109.5 -13.5c-81.333 0 -151.166 20 -209.499 60s-87.5 99.667 -87.5 179v247c0 52 14.333 96.667 43 134s64.5 64.333 107.5 81s90.167 25 141.5 25c84 0 152 -16.833 204 -50.5s79.667 -87.834 83 -162.501h-146c-5.33301 27.333 -21.333 47.5 -48 60.5
s-58 19.5 -94 19.5c-38 0 -70.5 -9.83301 -97.5 -29.5s-40.833 -45.5 -41.5 -77.5zM364.002 126c40 0 73.333 9.00098 100 27.001s40 42 40 72c0 32 -12.5 57.167 -37.5 75.5s-58.833 27.5 -101.5 27.5c-43.333 0 -78.333 -9.16699 -105 -27.5s-39.667 -43.5 -39 -75.5
c0.666992 -30.667 14.167 -54.834 40.5 -72.501s60.5 -26.5 102.5 -26.5z" />
    <glyph glyph-name="seven.tf" horiz-adv-x="711" 
d="M334 0h-175l261 558h-314v142h515l5 -77z" />
    <glyph glyph-name="eight.tf" horiz-adv-x="711" 
d="M355 300c-42 0 -76.3311 -7.83301 -102.998 -23.5s-40.334 -36.834 -41.001 -63.501c-0.666992 -23.333 10.166 -44.5 32.499 -63.5s59.5 -28.5 111.5 -28.5s89.167 9.5 111.5 28.5s32.833 40.167 31.5 63.5c-0.666992 26.667 -13.5 47.834 -38.5 63.501
s-59.833 23.5 -104.5 23.5zM47.002 221c0.666992 24.667 10.5039 51.4971 29.5039 80.4971s45.833 49.5 80.5 61.5c-32.667 18 -56.334 42 -71.001 72s-19.667 62.667 -15 98c7.33301 58 37 103 89 135s116.333 48 193 48c82 0 149 -16.167 201 -48.5
s81.667 -79.166 89 -140.499c4 -34 -2 -65 -18 -93s-39.667 -49 -71 -63c38 -14 65.5 -35.667 82.5 -65s25.833 -57.666 26.5 -84.999c1.33301 -54 -12.667 -99.5 -42 -136.5s-67 -63.167 -113 -78.5s-97.667 -22.666 -155 -21.999
c-56.667 0.666992 -107.334 8.5 -152.001 23.5s-81.834 40.833 -111.501 77.5s-43.834 82 -42.501 136zM228.006 503.997c1.33301 -24.667 13.167 -45.334 35.5 -62.001s52.833 -25 91.5 -25s69 8.33301 91 25s33.667 37.334 35 62.001c1.33301 22 -9 41.667 -31 59
s-54.333 26 -97 26c-46 0 -78.667 -9.5 -98 -28.5s-28.333 -37.833 -27 -56.5z" />
    </font>
</defs>
</svg>
